%TF.GenerationSoftware,KiCad,Pcbnew,8.0.5*%
%TF.CreationDate,2024-11-21T22:32:41+00:00*%
%TF.ProjectId,spectrum-analyser,73706563-7472-4756-9d2d-616e616c7973,rev?*%
%TF.SameCoordinates,Original*%
%TF.FileFunction,Legend,Top*%
%TF.FilePolarity,Positive*%
%FSLAX46Y46*%
G04 Gerber Fmt 4.6, Leading zero omitted, Abs format (unit mm)*
G04 Created by KiCad (PCBNEW 8.0.5) date 2024-11-21 22:32:41*
%MOMM*%
%LPD*%
G01*
G04 APERTURE LIST*
%ADD10C,0.150000*%
%ADD11C,0.200000*%
%ADD12C,0.120000*%
%ADD13C,0.100000*%
G04 APERTURE END LIST*
D10*
X110000000Y-114250000D02*
X110000000Y-119750000D01*
X107250000Y-117000000D02*
X112750000Y-117000000D01*
X111500000Y-117000000D02*
G75*
G02*
X108500000Y-117000000I-1500000J0D01*
G01*
X108500000Y-117000000D02*
G75*
G02*
X111500000Y-117000000I1500000J0D01*
G01*
X110000000Y-153000000D02*
X111000000Y-152000000D01*
X126000000Y-108000000D02*
X137500000Y-108000000D01*
X137500000Y-120000000D01*
X126000000Y-120000000D01*
X126000000Y-108000000D01*
X125000000Y-114500000D02*
X126000000Y-114500000D01*
X125500000Y-131000000D02*
X127150000Y-131000000D01*
X127750000Y-131000000D02*
X129400000Y-131000000D01*
X130000000Y-131000000D02*
X131650000Y-131000000D01*
X132250000Y-131000000D02*
X133900000Y-131000000D01*
X134500000Y-131000000D02*
X135500000Y-131000000D01*
X142000000Y-116500000D02*
X142000000Y-117500000D01*
X142000000Y-116500000D02*
X141000000Y-116500000D01*
X125000000Y-116000000D02*
X124500000Y-115500000D01*
X125500000Y-115500000D01*
X125000000Y-116000000D01*
X110000000Y-153000000D02*
X109000000Y-152000000D01*
X137500000Y-113500000D02*
X139000000Y-113500000D01*
X110000000Y-153000000D02*
X110000000Y-150700000D01*
X142000000Y-118000000D02*
X141500000Y-117500000D01*
X142500000Y-117500000D01*
X142000000Y-118000000D01*
X125000000Y-115500000D02*
X125000000Y-114500000D01*
G36*
X142268542Y-72979077D02*
G01*
X142340484Y-73051019D01*
X142380826Y-73212386D01*
X142380826Y-73527251D01*
X142340484Y-73688617D01*
X142268541Y-73760561D01*
X142200026Y-73794819D01*
X142044960Y-73794819D01*
X141976444Y-73760561D01*
X141904501Y-73688617D01*
X141864160Y-73527251D01*
X141864160Y-73212386D01*
X141904501Y-73051019D01*
X141976444Y-72979077D01*
X142044960Y-72944819D01*
X142200026Y-72944819D01*
X142268542Y-72979077D01*
G37*
G36*
X143641937Y-74055930D02*
G01*
X141603049Y-74055930D01*
X141603049Y-73203152D01*
X141714160Y-73203152D01*
X141714160Y-73536485D01*
X141714411Y-73539038D01*
X141714249Y-73540131D01*
X141715058Y-73545604D01*
X141715601Y-73551117D01*
X141716023Y-73552138D01*
X141716399Y-73554675D01*
X141764018Y-73745151D01*
X141768965Y-73758997D01*
X141772284Y-73763476D01*
X141774418Y-73768628D01*
X141783746Y-73779994D01*
X141878984Y-73875233D01*
X141884734Y-73879953D01*
X141886033Y-73881450D01*
X141888287Y-73882869D01*
X141890349Y-73884561D01*
X141892181Y-73885319D01*
X141898476Y-73889282D01*
X141993714Y-73936901D01*
X142007445Y-73942156D01*
X142010134Y-73942347D01*
X142012623Y-73943378D01*
X142027255Y-73944819D01*
X142217731Y-73944819D01*
X142232363Y-73943378D01*
X142234852Y-73942346D01*
X142237540Y-73942156D01*
X142251272Y-73936901D01*
X142346510Y-73889282D01*
X142352809Y-73885317D01*
X142354637Y-73884560D01*
X142356693Y-73882871D01*
X142358953Y-73881450D01*
X142360252Y-73879951D01*
X142366002Y-73875233D01*
X142461241Y-73779993D01*
X142470568Y-73768628D01*
X142472701Y-73763476D01*
X142476021Y-73758997D01*
X142480968Y-73745151D01*
X142528587Y-73554675D01*
X142528962Y-73552138D01*
X142529385Y-73551117D01*
X142529927Y-73545604D01*
X142530737Y-73540131D01*
X142530574Y-73539038D01*
X142530826Y-73536485D01*
X142530826Y-73203152D01*
X142530574Y-73200598D01*
X142530737Y-73199506D01*
X142529927Y-73194032D01*
X142529385Y-73188520D01*
X142528962Y-73187498D01*
X142528587Y-73184962D01*
X142480968Y-72994486D01*
X142476021Y-72980640D01*
X142472702Y-72976161D01*
X142470568Y-72971008D01*
X142461240Y-72959643D01*
X142371416Y-72869819D01*
X142809398Y-72869819D01*
X142809398Y-73869819D01*
X142810839Y-73884451D01*
X142822038Y-73911487D01*
X142842730Y-73932179D01*
X142869766Y-73943378D01*
X142899030Y-73943378D01*
X142926066Y-73932179D01*
X142946758Y-73911487D01*
X142957957Y-73884451D01*
X142959398Y-73869819D01*
X142959398Y-73152235D01*
X143390708Y-73907030D01*
X143392897Y-73910114D01*
X143393466Y-73911487D01*
X143394863Y-73912884D01*
X143399218Y-73919019D01*
X143407106Y-73925127D01*
X143414158Y-73932179D01*
X143418576Y-73934009D01*
X143422356Y-73936936D01*
X143431977Y-73939560D01*
X143441194Y-73943378D01*
X143445975Y-73943378D01*
X143450587Y-73944636D01*
X143460484Y-73943378D01*
X143470458Y-73943378D01*
X143474873Y-73941548D01*
X143479617Y-73940946D01*
X143488281Y-73935995D01*
X143497494Y-73932179D01*
X143500872Y-73928800D01*
X143505026Y-73926427D01*
X143511135Y-73918537D01*
X143518186Y-73911487D01*
X143520015Y-73907070D01*
X143522943Y-73903290D01*
X143525567Y-73893666D01*
X143529385Y-73884451D01*
X143530121Y-73876968D01*
X143530643Y-73875058D01*
X143530455Y-73873582D01*
X143530826Y-73869819D01*
X143530826Y-72869819D01*
X143529385Y-72855187D01*
X143518186Y-72828151D01*
X143497494Y-72807459D01*
X143470458Y-72796260D01*
X143441194Y-72796260D01*
X143414158Y-72807459D01*
X143393466Y-72828151D01*
X143382267Y-72855187D01*
X143380826Y-72869819D01*
X143380826Y-73587402D01*
X142949516Y-72832609D01*
X142947327Y-72829525D01*
X142946758Y-72828151D01*
X142945358Y-72826751D01*
X142941006Y-72820619D01*
X142933116Y-72814509D01*
X142926066Y-72807459D01*
X142921649Y-72805629D01*
X142917869Y-72802702D01*
X142908245Y-72800077D01*
X142899030Y-72796260D01*
X142894249Y-72796260D01*
X142889637Y-72795002D01*
X142879740Y-72796260D01*
X142869766Y-72796260D01*
X142865350Y-72798089D01*
X142860607Y-72798692D01*
X142851942Y-72803642D01*
X142842730Y-72807459D01*
X142839351Y-72810837D01*
X142835198Y-72813211D01*
X142829088Y-72821100D01*
X142822038Y-72828151D01*
X142820208Y-72832567D01*
X142817281Y-72836348D01*
X142814656Y-72845971D01*
X142810839Y-72855187D01*
X142810102Y-72862669D01*
X142809581Y-72864580D01*
X142809768Y-72866055D01*
X142809398Y-72869819D01*
X142371416Y-72869819D01*
X142366002Y-72864405D01*
X142360252Y-72859686D01*
X142358953Y-72858188D01*
X142356693Y-72856766D01*
X142354637Y-72855078D01*
X142352809Y-72854320D01*
X142346510Y-72850356D01*
X142251272Y-72802737D01*
X142237540Y-72797482D01*
X142234852Y-72797291D01*
X142232363Y-72796260D01*
X142217731Y-72794819D01*
X142027255Y-72794819D01*
X142012623Y-72796260D01*
X142010134Y-72797290D01*
X142007445Y-72797482D01*
X141993714Y-72802737D01*
X141898476Y-72850356D01*
X141892181Y-72854318D01*
X141890349Y-72855077D01*
X141888287Y-72856768D01*
X141886033Y-72858188D01*
X141884734Y-72859684D01*
X141878984Y-72864405D01*
X141783746Y-72959643D01*
X141774419Y-72971008D01*
X141772285Y-72976158D01*
X141768965Y-72980640D01*
X141764018Y-72994486D01*
X141716399Y-73184962D01*
X141716023Y-73187498D01*
X141715601Y-73188520D01*
X141715058Y-73194032D01*
X141714249Y-73199506D01*
X141714411Y-73200598D01*
X141714160Y-73203152D01*
X141603049Y-73203152D01*
X141603049Y-72683708D01*
X143641937Y-72683708D01*
X143641937Y-74055930D01*
G37*
X142002438Y-141639411D02*
X141954819Y-141734649D01*
X141954819Y-141734649D02*
X141954819Y-141877506D01*
X141954819Y-141877506D02*
X142002438Y-142020363D01*
X142002438Y-142020363D02*
X142097676Y-142115601D01*
X142097676Y-142115601D02*
X142192914Y-142163220D01*
X142192914Y-142163220D02*
X142383390Y-142210839D01*
X142383390Y-142210839D02*
X142526247Y-142210839D01*
X142526247Y-142210839D02*
X142716723Y-142163220D01*
X142716723Y-142163220D02*
X142811961Y-142115601D01*
X142811961Y-142115601D02*
X142907200Y-142020363D01*
X142907200Y-142020363D02*
X142954819Y-141877506D01*
X142954819Y-141877506D02*
X142954819Y-141782268D01*
X142954819Y-141782268D02*
X142907200Y-141639411D01*
X142907200Y-141639411D02*
X142859580Y-141591792D01*
X142859580Y-141591792D02*
X142526247Y-141591792D01*
X142526247Y-141591792D02*
X142526247Y-141782268D01*
X142954819Y-141163220D02*
X141954819Y-141163220D01*
X141954819Y-141163220D02*
X142954819Y-140591792D01*
X142954819Y-140591792D02*
X141954819Y-140591792D01*
X142954819Y-140115601D02*
X141954819Y-140115601D01*
X141954819Y-140115601D02*
X141954819Y-139877506D01*
X141954819Y-139877506D02*
X142002438Y-139734649D01*
X142002438Y-139734649D02*
X142097676Y-139639411D01*
X142097676Y-139639411D02*
X142192914Y-139591792D01*
X142192914Y-139591792D02*
X142383390Y-139544173D01*
X142383390Y-139544173D02*
X142526247Y-139544173D01*
X142526247Y-139544173D02*
X142716723Y-139591792D01*
X142716723Y-139591792D02*
X142811961Y-139639411D01*
X142811961Y-139639411D02*
X142907200Y-139734649D01*
X142907200Y-139734649D02*
X142954819Y-139877506D01*
X142954819Y-139877506D02*
X142954819Y-140115601D01*
X123454819Y-133806077D02*
X124454819Y-133472744D01*
X124454819Y-133472744D02*
X123454819Y-133139411D01*
X123454819Y-132806077D02*
X124264342Y-132806077D01*
X124264342Y-132806077D02*
X124359580Y-132758458D01*
X124359580Y-132758458D02*
X124407200Y-132710839D01*
X124407200Y-132710839D02*
X124454819Y-132615601D01*
X124454819Y-132615601D02*
X124454819Y-132425125D01*
X124454819Y-132425125D02*
X124407200Y-132329887D01*
X124407200Y-132329887D02*
X124359580Y-132282268D01*
X124359580Y-132282268D02*
X124264342Y-132234649D01*
X124264342Y-132234649D02*
X123454819Y-132234649D01*
X124407200Y-131806077D02*
X124454819Y-131663220D01*
X124454819Y-131663220D02*
X124454819Y-131425125D01*
X124454819Y-131425125D02*
X124407200Y-131329887D01*
X124407200Y-131329887D02*
X124359580Y-131282268D01*
X124359580Y-131282268D02*
X124264342Y-131234649D01*
X124264342Y-131234649D02*
X124169104Y-131234649D01*
X124169104Y-131234649D02*
X124073866Y-131282268D01*
X124073866Y-131282268D02*
X124026247Y-131329887D01*
X124026247Y-131329887D02*
X123978628Y-131425125D01*
X123978628Y-131425125D02*
X123931009Y-131615601D01*
X123931009Y-131615601D02*
X123883390Y-131710839D01*
X123883390Y-131710839D02*
X123835771Y-131758458D01*
X123835771Y-131758458D02*
X123740533Y-131806077D01*
X123740533Y-131806077D02*
X123645295Y-131806077D01*
X123645295Y-131806077D02*
X123550057Y-131758458D01*
X123550057Y-131758458D02*
X123502438Y-131710839D01*
X123502438Y-131710839D02*
X123454819Y-131615601D01*
X123454819Y-131615601D02*
X123454819Y-131377506D01*
X123454819Y-131377506D02*
X123502438Y-131234649D01*
X123931009Y-130472744D02*
X123978628Y-130329887D01*
X123978628Y-130329887D02*
X124026247Y-130282268D01*
X124026247Y-130282268D02*
X124121485Y-130234649D01*
X124121485Y-130234649D02*
X124264342Y-130234649D01*
X124264342Y-130234649D02*
X124359580Y-130282268D01*
X124359580Y-130282268D02*
X124407200Y-130329887D01*
X124407200Y-130329887D02*
X124454819Y-130425125D01*
X124454819Y-130425125D02*
X124454819Y-130806077D01*
X124454819Y-130806077D02*
X123454819Y-130806077D01*
X123454819Y-130806077D02*
X123454819Y-130472744D01*
X123454819Y-130472744D02*
X123502438Y-130377506D01*
X123502438Y-130377506D02*
X123550057Y-130329887D01*
X123550057Y-130329887D02*
X123645295Y-130282268D01*
X123645295Y-130282268D02*
X123740533Y-130282268D01*
X123740533Y-130282268D02*
X123835771Y-130329887D01*
X123835771Y-130329887D02*
X123883390Y-130377506D01*
X123883390Y-130377506D02*
X123931009Y-130472744D01*
X123931009Y-130472744D02*
X123931009Y-130806077D01*
X133954819Y-149806077D02*
X134954819Y-149472744D01*
X134954819Y-149472744D02*
X133954819Y-149139411D01*
X134907200Y-148853696D02*
X134954819Y-148710839D01*
X134954819Y-148710839D02*
X134954819Y-148472744D01*
X134954819Y-148472744D02*
X134907200Y-148377506D01*
X134907200Y-148377506D02*
X134859580Y-148329887D01*
X134859580Y-148329887D02*
X134764342Y-148282268D01*
X134764342Y-148282268D02*
X134669104Y-148282268D01*
X134669104Y-148282268D02*
X134573866Y-148329887D01*
X134573866Y-148329887D02*
X134526247Y-148377506D01*
X134526247Y-148377506D02*
X134478628Y-148472744D01*
X134478628Y-148472744D02*
X134431009Y-148663220D01*
X134431009Y-148663220D02*
X134383390Y-148758458D01*
X134383390Y-148758458D02*
X134335771Y-148806077D01*
X134335771Y-148806077D02*
X134240533Y-148853696D01*
X134240533Y-148853696D02*
X134145295Y-148853696D01*
X134145295Y-148853696D02*
X134050057Y-148806077D01*
X134050057Y-148806077D02*
X134002438Y-148758458D01*
X134002438Y-148758458D02*
X133954819Y-148663220D01*
X133954819Y-148663220D02*
X133954819Y-148425125D01*
X133954819Y-148425125D02*
X134002438Y-148282268D01*
X133954819Y-147948934D02*
X134954819Y-147710839D01*
X134954819Y-147710839D02*
X134240533Y-147520363D01*
X134240533Y-147520363D02*
X134954819Y-147329887D01*
X134954819Y-147329887D02*
X133954819Y-147091792D01*
X109454819Y-149663220D02*
X110264342Y-149663220D01*
X110264342Y-149663220D02*
X110359580Y-149615601D01*
X110359580Y-149615601D02*
X110407200Y-149567982D01*
X110407200Y-149567982D02*
X110454819Y-149472744D01*
X110454819Y-149472744D02*
X110454819Y-149282268D01*
X110454819Y-149282268D02*
X110407200Y-149187030D01*
X110407200Y-149187030D02*
X110359580Y-149139411D01*
X110359580Y-149139411D02*
X110264342Y-149091792D01*
X110264342Y-149091792D02*
X109454819Y-149091792D01*
X110407200Y-148663220D02*
X110454819Y-148520363D01*
X110454819Y-148520363D02*
X110454819Y-148282268D01*
X110454819Y-148282268D02*
X110407200Y-148187030D01*
X110407200Y-148187030D02*
X110359580Y-148139411D01*
X110359580Y-148139411D02*
X110264342Y-148091792D01*
X110264342Y-148091792D02*
X110169104Y-148091792D01*
X110169104Y-148091792D02*
X110073866Y-148139411D01*
X110073866Y-148139411D02*
X110026247Y-148187030D01*
X110026247Y-148187030D02*
X109978628Y-148282268D01*
X109978628Y-148282268D02*
X109931009Y-148472744D01*
X109931009Y-148472744D02*
X109883390Y-148567982D01*
X109883390Y-148567982D02*
X109835771Y-148615601D01*
X109835771Y-148615601D02*
X109740533Y-148663220D01*
X109740533Y-148663220D02*
X109645295Y-148663220D01*
X109645295Y-148663220D02*
X109550057Y-148615601D01*
X109550057Y-148615601D02*
X109502438Y-148567982D01*
X109502438Y-148567982D02*
X109454819Y-148472744D01*
X109454819Y-148472744D02*
X109454819Y-148234649D01*
X109454819Y-148234649D02*
X109502438Y-148091792D01*
X109931009Y-147329887D02*
X109978628Y-147187030D01*
X109978628Y-147187030D02*
X110026247Y-147139411D01*
X110026247Y-147139411D02*
X110121485Y-147091792D01*
X110121485Y-147091792D02*
X110264342Y-147091792D01*
X110264342Y-147091792D02*
X110359580Y-147139411D01*
X110359580Y-147139411D02*
X110407200Y-147187030D01*
X110407200Y-147187030D02*
X110454819Y-147282268D01*
X110454819Y-147282268D02*
X110454819Y-147663220D01*
X110454819Y-147663220D02*
X109454819Y-147663220D01*
X109454819Y-147663220D02*
X109454819Y-147329887D01*
X109454819Y-147329887D02*
X109502438Y-147234649D01*
X109502438Y-147234649D02*
X109550057Y-147187030D01*
X109550057Y-147187030D02*
X109645295Y-147139411D01*
X109645295Y-147139411D02*
X109740533Y-147139411D01*
X109740533Y-147139411D02*
X109835771Y-147187030D01*
X109835771Y-147187030D02*
X109883390Y-147234649D01*
X109883390Y-147234649D02*
X109931009Y-147329887D01*
X109931009Y-147329887D02*
X109931009Y-147663220D01*
X109788152Y-146044172D02*
X109788152Y-145663220D01*
X109454819Y-145901315D02*
X110311961Y-145901315D01*
X110311961Y-145901315D02*
X110407200Y-145853696D01*
X110407200Y-145853696D02*
X110454819Y-145758458D01*
X110454819Y-145758458D02*
X110454819Y-145663220D01*
X110454819Y-145329886D02*
X109454819Y-145329886D01*
X110454819Y-144901315D02*
X109931009Y-144901315D01*
X109931009Y-144901315D02*
X109835771Y-144948934D01*
X109835771Y-144948934D02*
X109788152Y-145044172D01*
X109788152Y-145044172D02*
X109788152Y-145187029D01*
X109788152Y-145187029D02*
X109835771Y-145282267D01*
X109835771Y-145282267D02*
X109883390Y-145329886D01*
X110454819Y-144425124D02*
X109788152Y-144425124D01*
X109454819Y-144425124D02*
X109502438Y-144472743D01*
X109502438Y-144472743D02*
X109550057Y-144425124D01*
X109550057Y-144425124D02*
X109502438Y-144377505D01*
X109502438Y-144377505D02*
X109454819Y-144425124D01*
X109454819Y-144425124D02*
X109550057Y-144425124D01*
X110407200Y-143996553D02*
X110454819Y-143901315D01*
X110454819Y-143901315D02*
X110454819Y-143710839D01*
X110454819Y-143710839D02*
X110407200Y-143615601D01*
X110407200Y-143615601D02*
X110311961Y-143567982D01*
X110311961Y-143567982D02*
X110264342Y-143567982D01*
X110264342Y-143567982D02*
X110169104Y-143615601D01*
X110169104Y-143615601D02*
X110121485Y-143710839D01*
X110121485Y-143710839D02*
X110121485Y-143853696D01*
X110121485Y-143853696D02*
X110073866Y-143948934D01*
X110073866Y-143948934D02*
X109978628Y-143996553D01*
X109978628Y-143996553D02*
X109931009Y-143996553D01*
X109931009Y-143996553D02*
X109835771Y-143948934D01*
X109835771Y-143948934D02*
X109788152Y-143853696D01*
X109788152Y-143853696D02*
X109788152Y-143710839D01*
X109788152Y-143710839D02*
X109835771Y-143615601D01*
X109788152Y-142472743D02*
X110454819Y-142282267D01*
X110454819Y-142282267D02*
X109978628Y-142091791D01*
X109978628Y-142091791D02*
X110454819Y-141901315D01*
X110454819Y-141901315D02*
X109788152Y-141710839D01*
X110454819Y-140901315D02*
X109931009Y-140901315D01*
X109931009Y-140901315D02*
X109835771Y-140948934D01*
X109835771Y-140948934D02*
X109788152Y-141044172D01*
X109788152Y-141044172D02*
X109788152Y-141234648D01*
X109788152Y-141234648D02*
X109835771Y-141329886D01*
X110407200Y-140901315D02*
X110454819Y-140996553D01*
X110454819Y-140996553D02*
X110454819Y-141234648D01*
X110454819Y-141234648D02*
X110407200Y-141329886D01*
X110407200Y-141329886D02*
X110311961Y-141377505D01*
X110311961Y-141377505D02*
X110216723Y-141377505D01*
X110216723Y-141377505D02*
X110121485Y-141329886D01*
X110121485Y-141329886D02*
X110073866Y-141234648D01*
X110073866Y-141234648D02*
X110073866Y-140996553D01*
X110073866Y-140996553D02*
X110026247Y-140901315D01*
X109788152Y-140520362D02*
X110454819Y-140282267D01*
X109788152Y-140044172D02*
X110454819Y-140282267D01*
X110454819Y-140282267D02*
X110692914Y-140377505D01*
X110692914Y-140377505D02*
X110740533Y-140425124D01*
X110740533Y-140425124D02*
X110788152Y-140520362D01*
G36*
X100605547Y-100710175D02*
G01*
X100682534Y-100748669D01*
X100756648Y-100822782D01*
X100794819Y-100937295D01*
X100794819Y-101088220D01*
X99944819Y-101088220D01*
X99944819Y-100937295D01*
X99982990Y-100822781D01*
X100057103Y-100748669D01*
X100134090Y-100710175D01*
X100307624Y-100666792D01*
X100432013Y-100666792D01*
X100605547Y-100710175D01*
G37*
G36*
X100253963Y-98272479D02*
G01*
X100284370Y-98302886D01*
X100318628Y-98371402D01*
X100318628Y-98659649D01*
X99944819Y-98659649D01*
X99944819Y-98371402D01*
X99979077Y-98302886D01*
X100009484Y-98272479D01*
X100078000Y-98238221D01*
X100185447Y-98238221D01*
X100253963Y-98272479D01*
G37*
G36*
X100509104Y-96868687D02*
G01*
X100106989Y-96734649D01*
X100509104Y-96600610D01*
X100509104Y-96868687D01*
G37*
G36*
X101055930Y-101349331D02*
G01*
X99683708Y-101349331D01*
X99683708Y-100925125D01*
X99794819Y-100925125D01*
X99794819Y-101163220D01*
X99796260Y-101177852D01*
X99807459Y-101204888D01*
X99828151Y-101225580D01*
X99855187Y-101236779D01*
X99869819Y-101238220D01*
X100869819Y-101238220D01*
X100884451Y-101236779D01*
X100911487Y-101225580D01*
X100932179Y-101204888D01*
X100943378Y-101177852D01*
X100944819Y-101163220D01*
X100944819Y-100925125D01*
X100944089Y-100917718D01*
X100944230Y-100915744D01*
X100943639Y-100913146D01*
X100943378Y-100910493D01*
X100942619Y-100908662D01*
X100940970Y-100901407D01*
X100893351Y-100758551D01*
X100887357Y-100745125D01*
X100885592Y-100743090D01*
X100884561Y-100740600D01*
X100875233Y-100729235D01*
X100779994Y-100633997D01*
X100774244Y-100629278D01*
X100772945Y-100627780D01*
X100770686Y-100626358D01*
X100768628Y-100624669D01*
X100766798Y-100623911D01*
X100760502Y-100619948D01*
X100665264Y-100572329D01*
X100664194Y-100571919D01*
X100663759Y-100571597D01*
X100657613Y-100569401D01*
X100651532Y-100567074D01*
X100650992Y-100567035D01*
X100649913Y-100566650D01*
X100459437Y-100519031D01*
X100456900Y-100518655D01*
X100455879Y-100518233D01*
X100450366Y-100517690D01*
X100444893Y-100516881D01*
X100443800Y-100517043D01*
X100441247Y-100516792D01*
X100298390Y-100516792D01*
X100295836Y-100517043D01*
X100294744Y-100516881D01*
X100289270Y-100517690D01*
X100283758Y-100518233D01*
X100282736Y-100518655D01*
X100280200Y-100519031D01*
X100089724Y-100566650D01*
X100088644Y-100567035D01*
X100088104Y-100567074D01*
X100082014Y-100569404D01*
X100075878Y-100571597D01*
X100075442Y-100571919D01*
X100074373Y-100572329D01*
X99979135Y-100619948D01*
X99972840Y-100623910D01*
X99971008Y-100624669D01*
X99968946Y-100626360D01*
X99966692Y-100627780D01*
X99965393Y-100629276D01*
X99959643Y-100633997D01*
X99864405Y-100729235D01*
X99855078Y-100740600D01*
X99854046Y-100743090D01*
X99852281Y-100745126D01*
X99846287Y-100758551D01*
X99798668Y-100901408D01*
X99797018Y-100908661D01*
X99796260Y-100910493D01*
X99795998Y-100913147D01*
X99795408Y-100915745D01*
X99795548Y-100917719D01*
X99794819Y-100925125D01*
X99683708Y-100925125D01*
X99683708Y-100148588D01*
X99796260Y-100148588D01*
X99796260Y-100177852D01*
X99807459Y-100204888D01*
X99828151Y-100225580D01*
X99855187Y-100236779D01*
X99869819Y-100238220D01*
X100869819Y-100238220D01*
X100884451Y-100236779D01*
X100911487Y-100225580D01*
X100932179Y-100204888D01*
X100943378Y-100177852D01*
X100943378Y-100148588D01*
X100932179Y-100121552D01*
X100911487Y-100100860D01*
X100884451Y-100089661D01*
X100869819Y-100088220D01*
X99869819Y-100088220D01*
X99855187Y-100089661D01*
X99828151Y-100100860D01*
X99807459Y-100121552D01*
X99796260Y-100148588D01*
X99683708Y-100148588D01*
X99683708Y-99306078D01*
X99794819Y-99306078D01*
X99794819Y-99544173D01*
X99796260Y-99558805D01*
X99797291Y-99561294D01*
X99797482Y-99563982D01*
X99802737Y-99577714D01*
X99850356Y-99672952D01*
X99854320Y-99679251D01*
X99855078Y-99681079D01*
X99856766Y-99683135D01*
X99858188Y-99685395D01*
X99859686Y-99686694D01*
X99864405Y-99692444D01*
X99912024Y-99740063D01*
X99917773Y-99744781D01*
X99919073Y-99746280D01*
X99921332Y-99747701D01*
X99923389Y-99749390D01*
X99925216Y-99750147D01*
X99931516Y-99754112D01*
X100026754Y-99801731D01*
X100040485Y-99806986D01*
X100043174Y-99807177D01*
X100045663Y-99808208D01*
X100060295Y-99809649D01*
X100155533Y-99809649D01*
X100170165Y-99808208D01*
X100172654Y-99807176D01*
X100175342Y-99806986D01*
X100189074Y-99801731D01*
X100284312Y-99754112D01*
X100290611Y-99750147D01*
X100292439Y-99749390D01*
X100294495Y-99747701D01*
X100296755Y-99746280D01*
X100298054Y-99744781D01*
X100303804Y-99740063D01*
X100351423Y-99692444D01*
X100356141Y-99686694D01*
X100357640Y-99685395D01*
X100359061Y-99683135D01*
X100360750Y-99681079D01*
X100361507Y-99679251D01*
X100365472Y-99672952D01*
X100413091Y-99577714D01*
X100413500Y-99576644D01*
X100413823Y-99576209D01*
X100416015Y-99570072D01*
X100418346Y-99563983D01*
X100418384Y-99563442D01*
X100418770Y-99562363D01*
X100464392Y-99379873D01*
X100502886Y-99302886D01*
X100533293Y-99272479D01*
X100601809Y-99238221D01*
X100661637Y-99238221D01*
X100730153Y-99272479D01*
X100760561Y-99302886D01*
X100794819Y-99371402D01*
X100794819Y-99579622D01*
X100751049Y-99710932D01*
X100747789Y-99725269D01*
X100749864Y-99754459D01*
X100762950Y-99780632D01*
X100785057Y-99799806D01*
X100812820Y-99809060D01*
X100842010Y-99806985D01*
X100868183Y-99793899D01*
X100887357Y-99771792D01*
X100893351Y-99758366D01*
X100940970Y-99615510D01*
X100942619Y-99608254D01*
X100943378Y-99606424D01*
X100943639Y-99603770D01*
X100944230Y-99601173D01*
X100944089Y-99599198D01*
X100944819Y-99591792D01*
X100944819Y-99353697D01*
X100943378Y-99339065D01*
X100942347Y-99336576D01*
X100942156Y-99333887D01*
X100936901Y-99320156D01*
X100889282Y-99224918D01*
X100885317Y-99218618D01*
X100884560Y-99216791D01*
X100882872Y-99214734D01*
X100881450Y-99212475D01*
X100879950Y-99211174D01*
X100875232Y-99205425D01*
X100827612Y-99157806D01*
X100821863Y-99153088D01*
X100820564Y-99151590D01*
X100818305Y-99150168D01*
X100816247Y-99148479D01*
X100814417Y-99147721D01*
X100808121Y-99143758D01*
X100712883Y-99096139D01*
X100699151Y-99090884D01*
X100696463Y-99090693D01*
X100693974Y-99089662D01*
X100679342Y-99088221D01*
X100584104Y-99088221D01*
X100569472Y-99089662D01*
X100566983Y-99090692D01*
X100564294Y-99090884D01*
X100550563Y-99096139D01*
X100455325Y-99143758D01*
X100449025Y-99147722D01*
X100447198Y-99148480D01*
X100445141Y-99150168D01*
X100442882Y-99151590D01*
X100441582Y-99153088D01*
X100435833Y-99157807D01*
X100388214Y-99205426D01*
X100383495Y-99211175D01*
X100381997Y-99212475D01*
X100380575Y-99214734D01*
X100378887Y-99216791D01*
X100378129Y-99218618D01*
X100374165Y-99224918D01*
X100326546Y-99320156D01*
X100326136Y-99321225D01*
X100325814Y-99321661D01*
X100323618Y-99327806D01*
X100321291Y-99333888D01*
X100321252Y-99334427D01*
X100320867Y-99335507D01*
X100275244Y-99517997D01*
X100236751Y-99594984D01*
X100206344Y-99625391D01*
X100137828Y-99659649D01*
X100078000Y-99659649D01*
X100009484Y-99625391D01*
X99979077Y-99594984D01*
X99944819Y-99526468D01*
X99944819Y-99318248D01*
X99988589Y-99186939D01*
X99991849Y-99172602D01*
X99989774Y-99143412D01*
X99976688Y-99117238D01*
X99954580Y-99098064D01*
X99926818Y-99088810D01*
X99897628Y-99090885D01*
X99871455Y-99103972D01*
X99852281Y-99126079D01*
X99846287Y-99139504D01*
X99798668Y-99282361D01*
X99797018Y-99289614D01*
X99796260Y-99291446D01*
X99795998Y-99294100D01*
X99795408Y-99296698D01*
X99795548Y-99298672D01*
X99794819Y-99306078D01*
X99683708Y-99306078D01*
X99683708Y-98353697D01*
X99794819Y-98353697D01*
X99794819Y-98734649D01*
X99796260Y-98749281D01*
X99807459Y-98776317D01*
X99828151Y-98797009D01*
X99855187Y-98808208D01*
X99869819Y-98809649D01*
X100869819Y-98809649D01*
X100884451Y-98808208D01*
X100911487Y-98797009D01*
X100932179Y-98776317D01*
X100943378Y-98749281D01*
X100943378Y-98720017D01*
X100932179Y-98692981D01*
X100911487Y-98672289D01*
X100884451Y-98661090D01*
X100869819Y-98659649D01*
X100468628Y-98659649D01*
X100468628Y-98353697D01*
X100467187Y-98339065D01*
X100466156Y-98336576D01*
X100465965Y-98333887D01*
X100460710Y-98320156D01*
X100413091Y-98224918D01*
X100409126Y-98218618D01*
X100408369Y-98216791D01*
X100406680Y-98214734D01*
X100405259Y-98212475D01*
X100403760Y-98211175D01*
X100399042Y-98205426D01*
X100351423Y-98157807D01*
X100345673Y-98153088D01*
X100344374Y-98151590D01*
X100342114Y-98150168D01*
X100340058Y-98148480D01*
X100338230Y-98147722D01*
X100331931Y-98143758D01*
X100236693Y-98096139D01*
X100222961Y-98090884D01*
X100220273Y-98090693D01*
X100217784Y-98089662D01*
X100203152Y-98088221D01*
X100060295Y-98088221D01*
X100045663Y-98089662D01*
X100043174Y-98090692D01*
X100040485Y-98090884D01*
X100026754Y-98096139D01*
X99931516Y-98143758D01*
X99925216Y-98147722D01*
X99923389Y-98148480D01*
X99921332Y-98150168D01*
X99919073Y-98151590D01*
X99917773Y-98153088D01*
X99912024Y-98157807D01*
X99864405Y-98205426D01*
X99859686Y-98211175D01*
X99858188Y-98212475D01*
X99856766Y-98214734D01*
X99855078Y-98216791D01*
X99854320Y-98218618D01*
X99850356Y-98224918D01*
X99802737Y-98320156D01*
X99797482Y-98333888D01*
X99797291Y-98336575D01*
X99796260Y-98339065D01*
X99794819Y-98353697D01*
X99683708Y-98353697D01*
X99683708Y-97720017D01*
X99796260Y-97720017D01*
X99796260Y-97749281D01*
X99807459Y-97776317D01*
X99828151Y-97797009D01*
X99855187Y-97808208D01*
X99869819Y-97809649D01*
X100869819Y-97809649D01*
X100884451Y-97808208D01*
X100911487Y-97797009D01*
X100932179Y-97776317D01*
X100943378Y-97749281D01*
X100944819Y-97734649D01*
X100944819Y-97258459D01*
X100943378Y-97243827D01*
X100932179Y-97216791D01*
X100911487Y-97196099D01*
X100884451Y-97184900D01*
X100855187Y-97184900D01*
X100828151Y-97196099D01*
X100807459Y-97216791D01*
X100796260Y-97243827D01*
X100794819Y-97258459D01*
X100794819Y-97659649D01*
X99869819Y-97659649D01*
X99855187Y-97661090D01*
X99828151Y-97672289D01*
X99807459Y-97692981D01*
X99796260Y-97720017D01*
X99683708Y-97720017D01*
X99683708Y-96725269D01*
X99795408Y-96725269D01*
X99796074Y-96734649D01*
X99795408Y-96744029D01*
X99797103Y-96749114D01*
X99797483Y-96754459D01*
X99801687Y-96762868D01*
X99804662Y-96771792D01*
X99808173Y-96775840D01*
X99810569Y-96780632D01*
X99817673Y-96786794D01*
X99823836Y-96793899D01*
X99828627Y-96796294D01*
X99832676Y-96799806D01*
X99846102Y-96805800D01*
X100846102Y-97139133D01*
X100860438Y-97142393D01*
X100889628Y-97140318D01*
X100915802Y-97127232D01*
X100934976Y-97105124D01*
X100944230Y-97077362D01*
X100942155Y-97048172D01*
X100929068Y-97021999D01*
X100906961Y-97002825D01*
X100893536Y-96996831D01*
X100659104Y-96918687D01*
X100659104Y-96550610D01*
X100893536Y-96472467D01*
X100906961Y-96466473D01*
X100929068Y-96447299D01*
X100942155Y-96421126D01*
X100944230Y-96391936D01*
X100934976Y-96364174D01*
X100915802Y-96342066D01*
X100889628Y-96328980D01*
X100860438Y-96326905D01*
X100846102Y-96330165D01*
X99846102Y-96663498D01*
X99832676Y-96669492D01*
X99828627Y-96673003D01*
X99823836Y-96675399D01*
X99817673Y-96682503D01*
X99810569Y-96688666D01*
X99808173Y-96693457D01*
X99804662Y-96697506D01*
X99801687Y-96706429D01*
X99797483Y-96714839D01*
X99797103Y-96720183D01*
X99795408Y-96725269D01*
X99683708Y-96725269D01*
X99683708Y-95545847D01*
X99794838Y-95545847D01*
X99801186Y-95574413D01*
X99817983Y-95598376D01*
X99829553Y-95607448D01*
X100253930Y-95877506D01*
X99829553Y-96147564D01*
X99817983Y-96156636D01*
X99801186Y-96180599D01*
X99794838Y-96209165D01*
X99799905Y-96237987D01*
X99815616Y-96262675D01*
X99839579Y-96279472D01*
X99868145Y-96285820D01*
X99896967Y-96280753D01*
X99910085Y-96274114D01*
X100415469Y-95952506D01*
X100869819Y-95952506D01*
X100884451Y-95951065D01*
X100911487Y-95939866D01*
X100932179Y-95919174D01*
X100943378Y-95892138D01*
X100943378Y-95862874D01*
X100932179Y-95835838D01*
X100911487Y-95815146D01*
X100884451Y-95803947D01*
X100869819Y-95802506D01*
X100415469Y-95802506D01*
X99910085Y-95480898D01*
X99896967Y-95474259D01*
X99868145Y-95469192D01*
X99839579Y-95475540D01*
X99815616Y-95492337D01*
X99799905Y-95517025D01*
X99794838Y-95545847D01*
X99683708Y-95545847D01*
X99683708Y-95358081D01*
X101055930Y-95358081D01*
X101055930Y-101349331D01*
G37*
G36*
X98055930Y-134237175D02*
G01*
X96683708Y-134237175D01*
X96683708Y-133395786D01*
X96795689Y-133395786D01*
X96796260Y-133397356D01*
X96796260Y-133399030D01*
X96801241Y-133411056D01*
X96805689Y-133423287D01*
X96806818Y-133424520D01*
X96807459Y-133426066D01*
X96816664Y-133435271D01*
X96825453Y-133444868D01*
X96827435Y-133446042D01*
X96828151Y-133446758D01*
X96829787Y-133447436D01*
X96838103Y-133452362D01*
X97406750Y-133717731D01*
X96838103Y-133983100D01*
X96829787Y-133988025D01*
X96828151Y-133988704D01*
X96827435Y-133989419D01*
X96825453Y-133990594D01*
X96816664Y-134000190D01*
X96807459Y-134009396D01*
X96806818Y-134010941D01*
X96805689Y-134012175D01*
X96801241Y-134024405D01*
X96796260Y-134036432D01*
X96796260Y-134038105D01*
X96795689Y-134039676D01*
X96796260Y-134052677D01*
X96796260Y-134065696D01*
X96796899Y-134067240D01*
X96796973Y-134068912D01*
X96802479Y-134080710D01*
X96807459Y-134092732D01*
X96808641Y-134093914D01*
X96809349Y-134095430D01*
X96818945Y-134104218D01*
X96828151Y-134113424D01*
X96829696Y-134114064D01*
X96830930Y-134115194D01*
X96843160Y-134119641D01*
X96855187Y-134124623D01*
X96857482Y-134124849D01*
X96858431Y-134125194D01*
X96860197Y-134125116D01*
X96869819Y-134126064D01*
X97869819Y-134126064D01*
X97884451Y-134124623D01*
X97911487Y-134113424D01*
X97932179Y-134092732D01*
X97943378Y-134065696D01*
X97943378Y-134036432D01*
X97932179Y-134009396D01*
X97911487Y-133988704D01*
X97884451Y-133977505D01*
X97869819Y-133976064D01*
X97207887Y-133976064D01*
X97615821Y-133785695D01*
X97621180Y-133782520D01*
X97622993Y-133781861D01*
X97624275Y-133780686D01*
X97628471Y-133778201D01*
X97636168Y-133769795D01*
X97644575Y-133762097D01*
X97645984Y-133759076D01*
X97648234Y-133756620D01*
X97652128Y-133745910D01*
X97656950Y-133735579D01*
X97657096Y-133732250D01*
X97658235Y-133729119D01*
X97657734Y-133717731D01*
X97658235Y-133706343D01*
X97657096Y-133703211D01*
X97656950Y-133699883D01*
X97652128Y-133689551D01*
X97648234Y-133678842D01*
X97645984Y-133676385D01*
X97644575Y-133673365D01*
X97636168Y-133665666D01*
X97628471Y-133657261D01*
X97624275Y-133654775D01*
X97622993Y-133653601D01*
X97621180Y-133652941D01*
X97615821Y-133649767D01*
X97207887Y-133459398D01*
X97869819Y-133459398D01*
X97884451Y-133457957D01*
X97911487Y-133446758D01*
X97932179Y-133426066D01*
X97943378Y-133399030D01*
X97943378Y-133369766D01*
X97932179Y-133342730D01*
X97911487Y-133322038D01*
X97884451Y-133310839D01*
X97869819Y-133309398D01*
X96869819Y-133309398D01*
X96860197Y-133310345D01*
X96858431Y-133310268D01*
X96857482Y-133310612D01*
X96855187Y-133310839D01*
X96843160Y-133315820D01*
X96830930Y-133320268D01*
X96829696Y-133321397D01*
X96828151Y-133322038D01*
X96818945Y-133331243D01*
X96809349Y-133340032D01*
X96808641Y-133341547D01*
X96807459Y-133342730D01*
X96802479Y-133354751D01*
X96796973Y-133366550D01*
X96796899Y-133368221D01*
X96796260Y-133369766D01*
X96796260Y-133382784D01*
X96795689Y-133395786D01*
X96683708Y-133395786D01*
X96683708Y-132527255D01*
X96794819Y-132527255D01*
X96794819Y-132622493D01*
X96795548Y-132629898D01*
X96795408Y-132631873D01*
X96795998Y-132634470D01*
X96796260Y-132637125D01*
X96797018Y-132638956D01*
X96798668Y-132646210D01*
X96846287Y-132789067D01*
X96852281Y-132802492D01*
X96854046Y-132804527D01*
X96855078Y-132807018D01*
X96864405Y-132818383D01*
X96959643Y-132913621D01*
X96965393Y-132918341D01*
X96966692Y-132919838D01*
X96968946Y-132921257D01*
X96971008Y-132922949D01*
X96972840Y-132923707D01*
X96979135Y-132927670D01*
X97074373Y-132975289D01*
X97075442Y-132975698D01*
X97075878Y-132976021D01*
X97082014Y-132978213D01*
X97088104Y-132980544D01*
X97088644Y-132980582D01*
X97089724Y-132980968D01*
X97280200Y-133028587D01*
X97282736Y-133028962D01*
X97283758Y-133029385D01*
X97289270Y-133029927D01*
X97294744Y-133030737D01*
X97295836Y-133030574D01*
X97298390Y-133030826D01*
X97441247Y-133030826D01*
X97443800Y-133030574D01*
X97444893Y-133030737D01*
X97450366Y-133029927D01*
X97455879Y-133029385D01*
X97456900Y-133028962D01*
X97459437Y-133028587D01*
X97649913Y-132980968D01*
X97650992Y-132980582D01*
X97651532Y-132980544D01*
X97657613Y-132978216D01*
X97663759Y-132976021D01*
X97664194Y-132975698D01*
X97665264Y-132975289D01*
X97760502Y-132927670D01*
X97766798Y-132923706D01*
X97768628Y-132922949D01*
X97770686Y-132921259D01*
X97772945Y-132919838D01*
X97774244Y-132918339D01*
X97779994Y-132913621D01*
X97875233Y-132818383D01*
X97884561Y-132807018D01*
X97885592Y-132804527D01*
X97887357Y-132802493D01*
X97893351Y-132789067D01*
X97940970Y-132646211D01*
X97942619Y-132638955D01*
X97943378Y-132637125D01*
X97943639Y-132634471D01*
X97944230Y-132631874D01*
X97944089Y-132629899D01*
X97944819Y-132622493D01*
X97944819Y-132527255D01*
X97944089Y-132519848D01*
X97944230Y-132517874D01*
X97943639Y-132515276D01*
X97943378Y-132512623D01*
X97942619Y-132510792D01*
X97940970Y-132503537D01*
X97893351Y-132360681D01*
X97887357Y-132347255D01*
X97885590Y-132345218D01*
X97884560Y-132342730D01*
X97875232Y-132331364D01*
X97827612Y-132283745D01*
X97816247Y-132274418D01*
X97789211Y-132263220D01*
X97759948Y-132263220D01*
X97732912Y-132274419D01*
X97712219Y-132295112D01*
X97701021Y-132322148D01*
X97701021Y-132351411D01*
X97712220Y-132378447D01*
X97721548Y-132389813D01*
X97756648Y-132424912D01*
X97794819Y-132539425D01*
X97794819Y-132610323D01*
X97756648Y-132724835D01*
X97682534Y-132798948D01*
X97605547Y-132837442D01*
X97432013Y-132880826D01*
X97307624Y-132880826D01*
X97134090Y-132837442D01*
X97057103Y-132798949D01*
X96982990Y-132724836D01*
X96944819Y-132610322D01*
X96944819Y-132539425D01*
X96982990Y-132424911D01*
X97018090Y-132389812D01*
X97027417Y-132378447D01*
X97038616Y-132351411D01*
X97038616Y-132322148D01*
X97027417Y-132295112D01*
X97006724Y-132274419D01*
X96979688Y-132263220D01*
X96950425Y-132263220D01*
X96923389Y-132274419D01*
X96912024Y-132283746D01*
X96864405Y-132331365D01*
X96855078Y-132342730D01*
X96854046Y-132345220D01*
X96852281Y-132347256D01*
X96846287Y-132360681D01*
X96798668Y-132503538D01*
X96797018Y-132510791D01*
X96796260Y-132512623D01*
X96795998Y-132515277D01*
X96795408Y-132517875D01*
X96795548Y-132519849D01*
X96794819Y-132527255D01*
X96683708Y-132527255D01*
X96683708Y-131322147D01*
X96796260Y-131322147D01*
X96796260Y-131351411D01*
X96807459Y-131378447D01*
X96828151Y-131399139D01*
X96855187Y-131410338D01*
X96869819Y-131411779D01*
X97661637Y-131411779D01*
X97730153Y-131446037D01*
X97760561Y-131476444D01*
X97794819Y-131544960D01*
X97794819Y-131700026D01*
X97760561Y-131768541D01*
X97730153Y-131798948D01*
X97661637Y-131833207D01*
X96869819Y-131833207D01*
X96855187Y-131834648D01*
X96828151Y-131845847D01*
X96807459Y-131866539D01*
X96796260Y-131893575D01*
X96796260Y-131922839D01*
X96807459Y-131949875D01*
X96828151Y-131970567D01*
X96855187Y-131981766D01*
X96869819Y-131983207D01*
X97679342Y-131983207D01*
X97693974Y-131981766D01*
X97696463Y-131980734D01*
X97699151Y-131980544D01*
X97712883Y-131975289D01*
X97808121Y-131927670D01*
X97814417Y-131923706D01*
X97816247Y-131922949D01*
X97818305Y-131921259D01*
X97820564Y-131919838D01*
X97821863Y-131918339D01*
X97827612Y-131913622D01*
X97875232Y-131866003D01*
X97879950Y-131860253D01*
X97881450Y-131858953D01*
X97882872Y-131856693D01*
X97884560Y-131854637D01*
X97885317Y-131852809D01*
X97889282Y-131846510D01*
X97936901Y-131751272D01*
X97942156Y-131737541D01*
X97942347Y-131734851D01*
X97943378Y-131732363D01*
X97944819Y-131717731D01*
X97944819Y-131527255D01*
X97943378Y-131512623D01*
X97942347Y-131510134D01*
X97942156Y-131507445D01*
X97936901Y-131493714D01*
X97889282Y-131398476D01*
X97885317Y-131392176D01*
X97884560Y-131390349D01*
X97882872Y-131388292D01*
X97881450Y-131386033D01*
X97879950Y-131384732D01*
X97875232Y-131378983D01*
X97827612Y-131331364D01*
X97821863Y-131326646D01*
X97820564Y-131325148D01*
X97818305Y-131323726D01*
X97816247Y-131322037D01*
X97814417Y-131321279D01*
X97808121Y-131317316D01*
X97712883Y-131269697D01*
X97699151Y-131264442D01*
X97696463Y-131264251D01*
X97693974Y-131263220D01*
X97679342Y-131261779D01*
X96869819Y-131261779D01*
X96855187Y-131263220D01*
X96828151Y-131274419D01*
X96807459Y-131295111D01*
X96796260Y-131322147D01*
X96683708Y-131322147D01*
X96683708Y-131150668D01*
X98055930Y-131150668D01*
X98055930Y-134237175D01*
G37*
G36*
X106021449Y-117640930D02*
G01*
X102650668Y-117640930D01*
X102650668Y-116454819D01*
X102761779Y-116454819D01*
X102761779Y-117454819D01*
X102763220Y-117469451D01*
X102774419Y-117496487D01*
X102795111Y-117517179D01*
X102822147Y-117528378D01*
X102836779Y-117529819D01*
X103312969Y-117529819D01*
X103327601Y-117528378D01*
X103354637Y-117517179D01*
X103375329Y-117496487D01*
X103386528Y-117469451D01*
X103386528Y-117440187D01*
X103375329Y-117413151D01*
X103354637Y-117392459D01*
X103327601Y-117381260D01*
X103312969Y-117379819D01*
X102911779Y-117379819D01*
X102911779Y-116454819D01*
X103571303Y-116454819D01*
X103571303Y-117454819D01*
X103572744Y-117469451D01*
X103583943Y-117496487D01*
X103604635Y-117517179D01*
X103631671Y-117528378D01*
X103646303Y-117529819D01*
X104122493Y-117529819D01*
X104137125Y-117528378D01*
X104164161Y-117517179D01*
X104184853Y-117496487D01*
X104196052Y-117469451D01*
X104196052Y-117440187D01*
X104184853Y-117413151D01*
X104164161Y-117392459D01*
X104137125Y-117381260D01*
X104122493Y-117379819D01*
X103721303Y-117379819D01*
X103721303Y-117006009D01*
X103979636Y-117006009D01*
X103994268Y-117004568D01*
X104021304Y-116993369D01*
X104041996Y-116972677D01*
X104053195Y-116945641D01*
X104053195Y-116916377D01*
X104041996Y-116889341D01*
X104021304Y-116868649D01*
X103994268Y-116857450D01*
X103979636Y-116856009D01*
X103721303Y-116856009D01*
X103721303Y-116529819D01*
X104122493Y-116529819D01*
X104137125Y-116528378D01*
X104164161Y-116517179D01*
X104184853Y-116496487D01*
X104196052Y-116469451D01*
X104196052Y-116454819D01*
X104476065Y-116454819D01*
X104476065Y-117454819D01*
X104477506Y-117469451D01*
X104488705Y-117496487D01*
X104509397Y-117517179D01*
X104536433Y-117528378D01*
X104565697Y-117528378D01*
X104592733Y-117517179D01*
X104613425Y-117496487D01*
X104624624Y-117469451D01*
X104626065Y-117454819D01*
X104626065Y-117006009D01*
X104884398Y-117006009D01*
X104899030Y-117004568D01*
X104926066Y-116993369D01*
X104946758Y-116972677D01*
X104957957Y-116945641D01*
X104957957Y-116916377D01*
X104946758Y-116889341D01*
X104926066Y-116868649D01*
X104899030Y-116857450D01*
X104884398Y-116856009D01*
X104626065Y-116856009D01*
X104626065Y-116529819D01*
X105027255Y-116529819D01*
X105041887Y-116528378D01*
X105068923Y-116517179D01*
X105089615Y-116496487D01*
X105100814Y-116469451D01*
X105100814Y-116440187D01*
X105191792Y-116440187D01*
X105191792Y-116469451D01*
X105202991Y-116496487D01*
X105223683Y-116517179D01*
X105250719Y-116528378D01*
X105265351Y-116529819D01*
X105476065Y-116529819D01*
X105476065Y-117454819D01*
X105477506Y-117469451D01*
X105488705Y-117496487D01*
X105509397Y-117517179D01*
X105536433Y-117528378D01*
X105565697Y-117528378D01*
X105592733Y-117517179D01*
X105613425Y-117496487D01*
X105624624Y-117469451D01*
X105626065Y-117454819D01*
X105626065Y-116529819D01*
X105836779Y-116529819D01*
X105851411Y-116528378D01*
X105878447Y-116517179D01*
X105899139Y-116496487D01*
X105910338Y-116469451D01*
X105910338Y-116440187D01*
X105899139Y-116413151D01*
X105878447Y-116392459D01*
X105851411Y-116381260D01*
X105836779Y-116379819D01*
X105265351Y-116379819D01*
X105250719Y-116381260D01*
X105223683Y-116392459D01*
X105202991Y-116413151D01*
X105191792Y-116440187D01*
X105100814Y-116440187D01*
X105089615Y-116413151D01*
X105068923Y-116392459D01*
X105041887Y-116381260D01*
X105027255Y-116379819D01*
X104551065Y-116379819D01*
X104536433Y-116381260D01*
X104509397Y-116392459D01*
X104488705Y-116413151D01*
X104477506Y-116440187D01*
X104476065Y-116454819D01*
X104196052Y-116454819D01*
X104196052Y-116440187D01*
X104184853Y-116413151D01*
X104164161Y-116392459D01*
X104137125Y-116381260D01*
X104122493Y-116379819D01*
X103646303Y-116379819D01*
X103631671Y-116381260D01*
X103604635Y-116392459D01*
X103583943Y-116413151D01*
X103572744Y-116440187D01*
X103571303Y-116454819D01*
X102911779Y-116454819D01*
X102910338Y-116440187D01*
X102899139Y-116413151D01*
X102878447Y-116392459D01*
X102851411Y-116381260D01*
X102822147Y-116381260D01*
X102795111Y-116392459D01*
X102774419Y-116413151D01*
X102763220Y-116440187D01*
X102761779Y-116454819D01*
X102650668Y-116454819D01*
X102650668Y-116268708D01*
X106021449Y-116268708D01*
X106021449Y-117640930D01*
G37*
G36*
X141768542Y-85979077D02*
G01*
X141840484Y-86051019D01*
X141880826Y-86212386D01*
X141880826Y-86527251D01*
X141840484Y-86688617D01*
X141768541Y-86760561D01*
X141700026Y-86794819D01*
X141544960Y-86794819D01*
X141476444Y-86760561D01*
X141404501Y-86688617D01*
X141364160Y-86527251D01*
X141364160Y-86212386D01*
X141404501Y-86051019D01*
X141476444Y-85979077D01*
X141544960Y-85944819D01*
X141700026Y-85944819D01*
X141768542Y-85979077D01*
G37*
G36*
X143902401Y-87055930D02*
G01*
X141103049Y-87055930D01*
X141103049Y-86203152D01*
X141214160Y-86203152D01*
X141214160Y-86536485D01*
X141214411Y-86539038D01*
X141214249Y-86540131D01*
X141215058Y-86545604D01*
X141215601Y-86551117D01*
X141216023Y-86552138D01*
X141216399Y-86554675D01*
X141264018Y-86745151D01*
X141268965Y-86758997D01*
X141272284Y-86763476D01*
X141274418Y-86768628D01*
X141283746Y-86779994D01*
X141378984Y-86875233D01*
X141384734Y-86879953D01*
X141386033Y-86881450D01*
X141388287Y-86882869D01*
X141390349Y-86884561D01*
X141392181Y-86885319D01*
X141398476Y-86889282D01*
X141493714Y-86936901D01*
X141507445Y-86942156D01*
X141510134Y-86942347D01*
X141512623Y-86943378D01*
X141527255Y-86944819D01*
X141717731Y-86944819D01*
X141732363Y-86943378D01*
X141734852Y-86942346D01*
X141737540Y-86942156D01*
X141751272Y-86936901D01*
X141846510Y-86889282D01*
X141852809Y-86885317D01*
X141854637Y-86884560D01*
X141856693Y-86882871D01*
X141858953Y-86881450D01*
X141860252Y-86879951D01*
X141866002Y-86875233D01*
X141961241Y-86779993D01*
X141970568Y-86768628D01*
X141972701Y-86763476D01*
X141976021Y-86758997D01*
X141980968Y-86745151D01*
X142028587Y-86554675D01*
X142028962Y-86552138D01*
X142029385Y-86551117D01*
X142029927Y-86545604D01*
X142030737Y-86540131D01*
X142030574Y-86539038D01*
X142030826Y-86536485D01*
X142030826Y-86203152D01*
X142030574Y-86200598D01*
X142030737Y-86199506D01*
X142029927Y-86194032D01*
X142029385Y-86188520D01*
X142028962Y-86187498D01*
X142028587Y-86184962D01*
X141980968Y-85994486D01*
X141976021Y-85980640D01*
X141972702Y-85976161D01*
X141970568Y-85971008D01*
X141961240Y-85959643D01*
X141871416Y-85869819D01*
X142309398Y-85869819D01*
X142309398Y-86869819D01*
X142310839Y-86884451D01*
X142322038Y-86911487D01*
X142342730Y-86932179D01*
X142369766Y-86943378D01*
X142399030Y-86943378D01*
X142426066Y-86932179D01*
X142446758Y-86911487D01*
X142457957Y-86884451D01*
X142459398Y-86869819D01*
X142459398Y-86421009D01*
X142717731Y-86421009D01*
X142732363Y-86419568D01*
X142759399Y-86408369D01*
X142780091Y-86387677D01*
X142791290Y-86360641D01*
X142791290Y-86331377D01*
X142780091Y-86304341D01*
X142759399Y-86283649D01*
X142732363Y-86272450D01*
X142717731Y-86271009D01*
X142459398Y-86271009D01*
X142459398Y-85944819D01*
X142860588Y-85944819D01*
X142875220Y-85943378D01*
X142902256Y-85932179D01*
X142922948Y-85911487D01*
X142934147Y-85884451D01*
X142934147Y-85869819D01*
X143166541Y-85869819D01*
X143166541Y-86869819D01*
X143167982Y-86884451D01*
X143179181Y-86911487D01*
X143199873Y-86932179D01*
X143226909Y-86943378D01*
X143256173Y-86943378D01*
X143283209Y-86932179D01*
X143303901Y-86911487D01*
X143315100Y-86884451D01*
X143316541Y-86869819D01*
X143316541Y-86421009D01*
X143574874Y-86421009D01*
X143589506Y-86419568D01*
X143616542Y-86408369D01*
X143637234Y-86387677D01*
X143648433Y-86360641D01*
X143648433Y-86331377D01*
X143637234Y-86304341D01*
X143616542Y-86283649D01*
X143589506Y-86272450D01*
X143574874Y-86271009D01*
X143316541Y-86271009D01*
X143316541Y-85944819D01*
X143717731Y-85944819D01*
X143732363Y-85943378D01*
X143759399Y-85932179D01*
X143780091Y-85911487D01*
X143791290Y-85884451D01*
X143791290Y-85855187D01*
X143780091Y-85828151D01*
X143759399Y-85807459D01*
X143732363Y-85796260D01*
X143717731Y-85794819D01*
X143241541Y-85794819D01*
X143226909Y-85796260D01*
X143199873Y-85807459D01*
X143179181Y-85828151D01*
X143167982Y-85855187D01*
X143166541Y-85869819D01*
X142934147Y-85869819D01*
X142934147Y-85855187D01*
X142922948Y-85828151D01*
X142902256Y-85807459D01*
X142875220Y-85796260D01*
X142860588Y-85794819D01*
X142384398Y-85794819D01*
X142369766Y-85796260D01*
X142342730Y-85807459D01*
X142322038Y-85828151D01*
X142310839Y-85855187D01*
X142309398Y-85869819D01*
X141871416Y-85869819D01*
X141866002Y-85864405D01*
X141860252Y-85859686D01*
X141858953Y-85858188D01*
X141856693Y-85856766D01*
X141854637Y-85855078D01*
X141852809Y-85854320D01*
X141846510Y-85850356D01*
X141751272Y-85802737D01*
X141737540Y-85797482D01*
X141734852Y-85797291D01*
X141732363Y-85796260D01*
X141717731Y-85794819D01*
X141527255Y-85794819D01*
X141512623Y-85796260D01*
X141510134Y-85797290D01*
X141507445Y-85797482D01*
X141493714Y-85802737D01*
X141398476Y-85850356D01*
X141392181Y-85854318D01*
X141390349Y-85855077D01*
X141388287Y-85856768D01*
X141386033Y-85858188D01*
X141384734Y-85859684D01*
X141378984Y-85864405D01*
X141283746Y-85959643D01*
X141274419Y-85971008D01*
X141272285Y-85976158D01*
X141268965Y-85980640D01*
X141264018Y-85994486D01*
X141216399Y-86184962D01*
X141216023Y-86187498D01*
X141215601Y-86188520D01*
X141215058Y-86194032D01*
X141214249Y-86199506D01*
X141214411Y-86200598D01*
X141214160Y-86203152D01*
X141103049Y-86203152D01*
X141103049Y-85683708D01*
X143902401Y-85683708D01*
X143902401Y-87055930D01*
G37*
G36*
X129911399Y-139979077D02*
G01*
X129941806Y-140009484D01*
X129976064Y-140078000D01*
X129976064Y-140185447D01*
X129941806Y-140253963D01*
X129911399Y-140284370D01*
X129842883Y-140318628D01*
X129554636Y-140318628D01*
X129554636Y-139944819D01*
X129842883Y-139944819D01*
X129911399Y-139979077D01*
G37*
G36*
X132625685Y-139979077D02*
G01*
X132656092Y-140009484D01*
X132690350Y-140078000D01*
X132690350Y-140185447D01*
X132656092Y-140253963D01*
X132625685Y-140284370D01*
X132557169Y-140318628D01*
X132268922Y-140318628D01*
X132268922Y-139944819D01*
X132557169Y-139944819D01*
X132625685Y-139979077D01*
G37*
G36*
X127768542Y-139979077D02*
G01*
X127798949Y-140009484D01*
X127833207Y-140078000D01*
X127833207Y-140185447D01*
X127798949Y-140253963D01*
X127768542Y-140284370D01*
X127700026Y-140318628D01*
X127411779Y-140318628D01*
X127411779Y-139944819D01*
X127700026Y-139944819D01*
X127768542Y-139979077D01*
G37*
G36*
X133950020Y-141151168D02*
G01*
X127150668Y-141151168D01*
X127150668Y-140950425D01*
X130167982Y-140950425D01*
X130167982Y-140979689D01*
X130179181Y-141006725D01*
X130199873Y-141027417D01*
X130226909Y-141038616D01*
X130241541Y-141040057D01*
X131003445Y-141040057D01*
X131018077Y-141038616D01*
X131045113Y-141027417D01*
X131065805Y-141006725D01*
X131077004Y-140979689D01*
X131077004Y-140950425D01*
X131065805Y-140923389D01*
X131045113Y-140902697D01*
X131018077Y-140891498D01*
X131003445Y-140890057D01*
X130241541Y-140890057D01*
X130226909Y-140891498D01*
X130199873Y-140902697D01*
X130179181Y-140923389D01*
X130167982Y-140950425D01*
X127150668Y-140950425D01*
X127150668Y-139869819D01*
X127261779Y-139869819D01*
X127261779Y-140869819D01*
X127263220Y-140884451D01*
X127274419Y-140911487D01*
X127295111Y-140932179D01*
X127322147Y-140943378D01*
X127351411Y-140943378D01*
X127378447Y-140932179D01*
X127399139Y-140911487D01*
X127410338Y-140884451D01*
X127411779Y-140869819D01*
X127411779Y-140468628D01*
X127717731Y-140468628D01*
X127732363Y-140467187D01*
X127734852Y-140466155D01*
X127737540Y-140465965D01*
X127751272Y-140460710D01*
X127846510Y-140413091D01*
X127852809Y-140409126D01*
X127854637Y-140408369D01*
X127856693Y-140406680D01*
X127858953Y-140405259D01*
X127860252Y-140403760D01*
X127866002Y-140399042D01*
X127913621Y-140351423D01*
X127918339Y-140345673D01*
X127919838Y-140344374D01*
X127921259Y-140342114D01*
X127922948Y-140340058D01*
X127923705Y-140338230D01*
X127927670Y-140331931D01*
X127975289Y-140236693D01*
X127980544Y-140222962D01*
X127980735Y-140220272D01*
X127981766Y-140217784D01*
X127983207Y-140203152D01*
X127983207Y-140060295D01*
X127981766Y-140045663D01*
X127980735Y-140043174D01*
X127980544Y-140040485D01*
X127975289Y-140026754D01*
X127927670Y-139931516D01*
X127923705Y-139925216D01*
X127922948Y-139923389D01*
X127921259Y-139921332D01*
X127919838Y-139919073D01*
X127918339Y-139917773D01*
X127913621Y-139912024D01*
X127874220Y-139872623D01*
X128166593Y-139872623D01*
X128168581Y-139887191D01*
X128406676Y-140887191D01*
X128408405Y-140892210D01*
X128408645Y-140894012D01*
X128409587Y-140895640D01*
X128411466Y-140901091D01*
X128417852Y-140909915D01*
X128423307Y-140919337D01*
X128426364Y-140921677D01*
X128428623Y-140924798D01*
X128437898Y-140930505D01*
X128446545Y-140937124D01*
X128450265Y-140938116D01*
X128453545Y-140940134D01*
X128464299Y-140941858D01*
X128474821Y-140944664D01*
X128478636Y-140944157D01*
X128482440Y-140944767D01*
X128493038Y-140942243D01*
X128503829Y-140940810D01*
X128507160Y-140938881D01*
X128510908Y-140937989D01*
X128519732Y-140931602D01*
X128529154Y-140926148D01*
X128531494Y-140923090D01*
X128534615Y-140920832D01*
X128540322Y-140911556D01*
X128546941Y-140902910D01*
X128548966Y-140897510D01*
X128549951Y-140895910D01*
X128550238Y-140894118D01*
X128552104Y-140889144D01*
X128670111Y-140446613D01*
X128788120Y-140889144D01*
X128789985Y-140894119D01*
X128790273Y-140895910D01*
X128791257Y-140897509D01*
X128793283Y-140902911D01*
X128799903Y-140911559D01*
X128805609Y-140920832D01*
X128808729Y-140923090D01*
X128811070Y-140926148D01*
X128820491Y-140931602D01*
X128829316Y-140937989D01*
X128833063Y-140938881D01*
X128836395Y-140940810D01*
X128847188Y-140942244D01*
X128857784Y-140944767D01*
X128861585Y-140944157D01*
X128865404Y-140944665D01*
X128875935Y-140941856D01*
X128886679Y-140940134D01*
X128889955Y-140938118D01*
X128893679Y-140937125D01*
X128902329Y-140930503D01*
X128911601Y-140924798D01*
X128913859Y-140921677D01*
X128916917Y-140919337D01*
X128922372Y-140909914D01*
X128928758Y-140901091D01*
X128930635Y-140895642D01*
X128931579Y-140894013D01*
X128931818Y-140892209D01*
X128933548Y-140887191D01*
X129171644Y-139887191D01*
X129173632Y-139872623D01*
X129173182Y-139869819D01*
X129404636Y-139869819D01*
X129404636Y-140869819D01*
X129406077Y-140884451D01*
X129417276Y-140911487D01*
X129437968Y-140932179D01*
X129465004Y-140943378D01*
X129494268Y-140943378D01*
X129521304Y-140932179D01*
X129541996Y-140911487D01*
X129553195Y-140884451D01*
X129554636Y-140869819D01*
X129554636Y-140468628D01*
X129678682Y-140468628D01*
X129989622Y-140912829D01*
X129999193Y-140923989D01*
X130023872Y-140939716D01*
X130052689Y-140944802D01*
X130081260Y-140938472D01*
X130105234Y-140921690D01*
X130120961Y-140897012D01*
X130126046Y-140868194D01*
X130119717Y-140839623D01*
X130112507Y-140826810D01*
X129861703Y-140468518D01*
X129875220Y-140467187D01*
X129877709Y-140466155D01*
X129880397Y-140465965D01*
X129894129Y-140460710D01*
X129989367Y-140413091D01*
X129995666Y-140409126D01*
X129997494Y-140408369D01*
X129999550Y-140406680D01*
X130001810Y-140405259D01*
X130003109Y-140403760D01*
X130008859Y-140399042D01*
X130056478Y-140351423D01*
X130061196Y-140345673D01*
X130062695Y-140344374D01*
X130064116Y-140342114D01*
X130065805Y-140340058D01*
X130066562Y-140338230D01*
X130070527Y-140331931D01*
X130118146Y-140236693D01*
X130123401Y-140222962D01*
X130123592Y-140220272D01*
X130124623Y-140217784D01*
X130126064Y-140203152D01*
X130126064Y-140060295D01*
X131118922Y-140060295D01*
X131118922Y-140155533D01*
X131120363Y-140170165D01*
X131121394Y-140172654D01*
X131121585Y-140175342D01*
X131126840Y-140189074D01*
X131174459Y-140284312D01*
X131178423Y-140290611D01*
X131179181Y-140292439D01*
X131180869Y-140294495D01*
X131182291Y-140296755D01*
X131183789Y-140298054D01*
X131188508Y-140303804D01*
X131236127Y-140351423D01*
X131241876Y-140356141D01*
X131243176Y-140357640D01*
X131245435Y-140359061D01*
X131247492Y-140360750D01*
X131249319Y-140361507D01*
X131255619Y-140365472D01*
X131350857Y-140413091D01*
X131351926Y-140413500D01*
X131352362Y-140413823D01*
X131358498Y-140416015D01*
X131364588Y-140418346D01*
X131365128Y-140418384D01*
X131366208Y-140418770D01*
X131548698Y-140464392D01*
X131625685Y-140502886D01*
X131656092Y-140533293D01*
X131690350Y-140601809D01*
X131690350Y-140661637D01*
X131656091Y-140730153D01*
X131625684Y-140760561D01*
X131557169Y-140794819D01*
X131348949Y-140794819D01*
X131217639Y-140751049D01*
X131203302Y-140747789D01*
X131174112Y-140749864D01*
X131147939Y-140762950D01*
X131128765Y-140785057D01*
X131119511Y-140812820D01*
X131121586Y-140842010D01*
X131134672Y-140868183D01*
X131156779Y-140887357D01*
X131170205Y-140893351D01*
X131313061Y-140940970D01*
X131320316Y-140942619D01*
X131322147Y-140943378D01*
X131324800Y-140943639D01*
X131327398Y-140944230D01*
X131329372Y-140944089D01*
X131336779Y-140944819D01*
X131574874Y-140944819D01*
X131589506Y-140943378D01*
X131591995Y-140942346D01*
X131594683Y-140942156D01*
X131608415Y-140936901D01*
X131703653Y-140889282D01*
X131709952Y-140885317D01*
X131711780Y-140884560D01*
X131713836Y-140882872D01*
X131716096Y-140881450D01*
X131717396Y-140879950D01*
X131723146Y-140875232D01*
X131770764Y-140827613D01*
X131775482Y-140821863D01*
X131776981Y-140820564D01*
X131778402Y-140818305D01*
X131780092Y-140816247D01*
X131780849Y-140814417D01*
X131784813Y-140808121D01*
X131832432Y-140712883D01*
X131837687Y-140699152D01*
X131837878Y-140696462D01*
X131838909Y-140693974D01*
X131840350Y-140679342D01*
X131840350Y-140584104D01*
X131838909Y-140569472D01*
X131837878Y-140566983D01*
X131837687Y-140564294D01*
X131832432Y-140550563D01*
X131784813Y-140455325D01*
X131780848Y-140449025D01*
X131780091Y-140447198D01*
X131778402Y-140445141D01*
X131776981Y-140442882D01*
X131775482Y-140441582D01*
X131770764Y-140435833D01*
X131723145Y-140388214D01*
X131717395Y-140383495D01*
X131716096Y-140381997D01*
X131713836Y-140380575D01*
X131711780Y-140378887D01*
X131709952Y-140378129D01*
X131703653Y-140374165D01*
X131608415Y-140326546D01*
X131607345Y-140326136D01*
X131606910Y-140325814D01*
X131600764Y-140323618D01*
X131594683Y-140321291D01*
X131594143Y-140321252D01*
X131593064Y-140320867D01*
X131410574Y-140275244D01*
X131333587Y-140236751D01*
X131303180Y-140206344D01*
X131268922Y-140137828D01*
X131268922Y-140078000D01*
X131303180Y-140009484D01*
X131333587Y-139979077D01*
X131402103Y-139944819D01*
X131610323Y-139944819D01*
X131741632Y-139988589D01*
X131755969Y-139991849D01*
X131785159Y-139989774D01*
X131811333Y-139976688D01*
X131830507Y-139954580D01*
X131839761Y-139926818D01*
X131837686Y-139897628D01*
X131824599Y-139871455D01*
X131822713Y-139869819D01*
X132118922Y-139869819D01*
X132118922Y-140869819D01*
X132120363Y-140884451D01*
X132131562Y-140911487D01*
X132152254Y-140932179D01*
X132179290Y-140943378D01*
X132208554Y-140943378D01*
X132235590Y-140932179D01*
X132256282Y-140911487D01*
X132267481Y-140884451D01*
X132268922Y-140869819D01*
X132268922Y-140468628D01*
X132392968Y-140468628D01*
X132703908Y-140912829D01*
X132713479Y-140923989D01*
X132738158Y-140939716D01*
X132766975Y-140944802D01*
X132795546Y-140938472D01*
X132819520Y-140921690D01*
X132835247Y-140897012D01*
X132840332Y-140868194D01*
X132834003Y-140839623D01*
X132826793Y-140826810D01*
X132575989Y-140468518D01*
X132589506Y-140467187D01*
X132591995Y-140466155D01*
X132594683Y-140465965D01*
X132608415Y-140460710D01*
X132703653Y-140413091D01*
X132709952Y-140409126D01*
X132711780Y-140408369D01*
X132713836Y-140406680D01*
X132716096Y-140405259D01*
X132717395Y-140403760D01*
X132723145Y-140399042D01*
X132770764Y-140351423D01*
X132775482Y-140345673D01*
X132776981Y-140344374D01*
X132778402Y-140342114D01*
X132780091Y-140340058D01*
X132780848Y-140338230D01*
X132784813Y-140331931D01*
X132801584Y-140298390D01*
X133071303Y-140298390D01*
X133071303Y-140441247D01*
X133071554Y-140443800D01*
X133071392Y-140444893D01*
X133072201Y-140450366D01*
X133072744Y-140455879D01*
X133073166Y-140456900D01*
X133073542Y-140459437D01*
X133121161Y-140649913D01*
X133121546Y-140650992D01*
X133121585Y-140651532D01*
X133123912Y-140657613D01*
X133126108Y-140663759D01*
X133126430Y-140664194D01*
X133126840Y-140665264D01*
X133174459Y-140760502D01*
X133178422Y-140766798D01*
X133179180Y-140768628D01*
X133180869Y-140770686D01*
X133182291Y-140772945D01*
X133183789Y-140774244D01*
X133188508Y-140779994D01*
X133283746Y-140875233D01*
X133295111Y-140884561D01*
X133297601Y-140885592D01*
X133299636Y-140887357D01*
X133313062Y-140893351D01*
X133455918Y-140940970D01*
X133463173Y-140942619D01*
X133465004Y-140943378D01*
X133467657Y-140943639D01*
X133470255Y-140944230D01*
X133472229Y-140944089D01*
X133479636Y-140944819D01*
X133574874Y-140944819D01*
X133582279Y-140944089D01*
X133584254Y-140944230D01*
X133586851Y-140943639D01*
X133589506Y-140943378D01*
X133591337Y-140942619D01*
X133598591Y-140940970D01*
X133741448Y-140893351D01*
X133754873Y-140887357D01*
X133756908Y-140885591D01*
X133759399Y-140884560D01*
X133770765Y-140875232D01*
X133818383Y-140827613D01*
X133827711Y-140816247D01*
X133838909Y-140789211D01*
X133838909Y-140759948D01*
X133827710Y-140732912D01*
X133807017Y-140712219D01*
X133779981Y-140701021D01*
X133750718Y-140701021D01*
X133723682Y-140712220D01*
X133712316Y-140721548D01*
X133677217Y-140756647D01*
X133562704Y-140794819D01*
X133491806Y-140794819D01*
X133377293Y-140756648D01*
X133303180Y-140682534D01*
X133264686Y-140605547D01*
X133221303Y-140432013D01*
X133221303Y-140307624D01*
X133264686Y-140134090D01*
X133303180Y-140057103D01*
X133377293Y-139982990D01*
X133491806Y-139944819D01*
X133562704Y-139944819D01*
X133677217Y-139982990D01*
X133712317Y-140018090D01*
X133723682Y-140027417D01*
X133750718Y-140038616D01*
X133779981Y-140038616D01*
X133807017Y-140027417D01*
X133827710Y-140006724D01*
X133838909Y-139979688D01*
X133838909Y-139950425D01*
X133827710Y-139923389D01*
X133818383Y-139912024D01*
X133770764Y-139864405D01*
X133759399Y-139855078D01*
X133756908Y-139854046D01*
X133754873Y-139852281D01*
X133741448Y-139846287D01*
X133598591Y-139798668D01*
X133591337Y-139797018D01*
X133589506Y-139796260D01*
X133586851Y-139795998D01*
X133584254Y-139795408D01*
X133582279Y-139795548D01*
X133574874Y-139794819D01*
X133479636Y-139794819D01*
X133472229Y-139795548D01*
X133470255Y-139795408D01*
X133467657Y-139795998D01*
X133465004Y-139796260D01*
X133463173Y-139797018D01*
X133455918Y-139798668D01*
X133313062Y-139846287D01*
X133299636Y-139852281D01*
X133297601Y-139854045D01*
X133295111Y-139855077D01*
X133283746Y-139864405D01*
X133188508Y-139959643D01*
X133183789Y-139965392D01*
X133182291Y-139966692D01*
X133180869Y-139968951D01*
X133179181Y-139971008D01*
X133178423Y-139972835D01*
X133174459Y-139979135D01*
X133126840Y-140074373D01*
X133126430Y-140075442D01*
X133126108Y-140075878D01*
X133123912Y-140082023D01*
X133121585Y-140088105D01*
X133121546Y-140088644D01*
X133121161Y-140089724D01*
X133073542Y-140280200D01*
X133073166Y-140282736D01*
X133072744Y-140283758D01*
X133072201Y-140289270D01*
X133071392Y-140294744D01*
X133071554Y-140295836D01*
X133071303Y-140298390D01*
X132801584Y-140298390D01*
X132832432Y-140236693D01*
X132837687Y-140222962D01*
X132837878Y-140220272D01*
X132838909Y-140217784D01*
X132840350Y-140203152D01*
X132840350Y-140060295D01*
X132838909Y-140045663D01*
X132837878Y-140043174D01*
X132837687Y-140040485D01*
X132832432Y-140026754D01*
X132784813Y-139931516D01*
X132780848Y-139925216D01*
X132780091Y-139923389D01*
X132778402Y-139921332D01*
X132776981Y-139919073D01*
X132775482Y-139917773D01*
X132770764Y-139912024D01*
X132723145Y-139864405D01*
X132717395Y-139859686D01*
X132716096Y-139858188D01*
X132713836Y-139856766D01*
X132711780Y-139855078D01*
X132709952Y-139854320D01*
X132703653Y-139850356D01*
X132608415Y-139802737D01*
X132594683Y-139797482D01*
X132591995Y-139797291D01*
X132589506Y-139796260D01*
X132574874Y-139794819D01*
X132193922Y-139794819D01*
X132179290Y-139796260D01*
X132152254Y-139807459D01*
X132131562Y-139828151D01*
X132120363Y-139855187D01*
X132118922Y-139869819D01*
X131822713Y-139869819D01*
X131802492Y-139852281D01*
X131789067Y-139846287D01*
X131646210Y-139798668D01*
X131638956Y-139797018D01*
X131637125Y-139796260D01*
X131634470Y-139795998D01*
X131631873Y-139795408D01*
X131629898Y-139795548D01*
X131622493Y-139794819D01*
X131384398Y-139794819D01*
X131369766Y-139796260D01*
X131367277Y-139797290D01*
X131364588Y-139797482D01*
X131350857Y-139802737D01*
X131255619Y-139850356D01*
X131249319Y-139854320D01*
X131247492Y-139855078D01*
X131245435Y-139856766D01*
X131243176Y-139858188D01*
X131241876Y-139859686D01*
X131236127Y-139864405D01*
X131188508Y-139912024D01*
X131183789Y-139917773D01*
X131182291Y-139919073D01*
X131180869Y-139921332D01*
X131179181Y-139923389D01*
X131178423Y-139925216D01*
X131174459Y-139931516D01*
X131126840Y-140026754D01*
X131121585Y-140040486D01*
X131121394Y-140043173D01*
X131120363Y-140045663D01*
X131118922Y-140060295D01*
X130126064Y-140060295D01*
X130124623Y-140045663D01*
X130123592Y-140043174D01*
X130123401Y-140040485D01*
X130118146Y-140026754D01*
X130070527Y-139931516D01*
X130066562Y-139925216D01*
X130065805Y-139923389D01*
X130064116Y-139921332D01*
X130062695Y-139919073D01*
X130061196Y-139917773D01*
X130056478Y-139912024D01*
X130008859Y-139864405D01*
X130003109Y-139859686D01*
X130001810Y-139858188D01*
X129999550Y-139856766D01*
X129997494Y-139855078D01*
X129995666Y-139854320D01*
X129989367Y-139850356D01*
X129894129Y-139802737D01*
X129880397Y-139797482D01*
X129877709Y-139797291D01*
X129875220Y-139796260D01*
X129860588Y-139794819D01*
X129479636Y-139794819D01*
X129465004Y-139796260D01*
X129437968Y-139807459D01*
X129417276Y-139828151D01*
X129406077Y-139855187D01*
X129404636Y-139869819D01*
X129173182Y-139869819D01*
X129168999Y-139843728D01*
X129153663Y-139818806D01*
X129129956Y-139801650D01*
X129101488Y-139794871D01*
X129072593Y-139799504D01*
X129047671Y-139814840D01*
X129030514Y-139838547D01*
X129025724Y-139852448D01*
X128856471Y-140563303D01*
X128742580Y-140136208D01*
X128741294Y-140132780D01*
X128741103Y-140131339D01*
X128740111Y-140129626D01*
X128737417Y-140122442D01*
X128731402Y-140114583D01*
X128726441Y-140106015D01*
X128722582Y-140103061D01*
X128719630Y-140099204D01*
X128711065Y-140094245D01*
X128703203Y-140088227D01*
X128698506Y-140086974D01*
X128694305Y-140084542D01*
X128684498Y-140083239D01*
X128674928Y-140080687D01*
X128670109Y-140081327D01*
X128665297Y-140080688D01*
X128655736Y-140083237D01*
X128645919Y-140084542D01*
X128641713Y-140086976D01*
X128637021Y-140088228D01*
X128629161Y-140094243D01*
X128620594Y-140099204D01*
X128617640Y-140103062D01*
X128613783Y-140106015D01*
X128608824Y-140114580D01*
X128602807Y-140122441D01*
X128600110Y-140129630D01*
X128599121Y-140131340D01*
X128598929Y-140132779D01*
X128597644Y-140136208D01*
X128483752Y-140563303D01*
X128314501Y-139852447D01*
X128309711Y-139838547D01*
X128292554Y-139814840D01*
X128267632Y-139799504D01*
X128238737Y-139794871D01*
X128210269Y-139801649D01*
X128186562Y-139818806D01*
X128171226Y-139843728D01*
X128166593Y-139872623D01*
X127874220Y-139872623D01*
X127866002Y-139864405D01*
X127860252Y-139859686D01*
X127858953Y-139858188D01*
X127856693Y-139856766D01*
X127854637Y-139855078D01*
X127852809Y-139854320D01*
X127846510Y-139850356D01*
X127751272Y-139802737D01*
X127737540Y-139797482D01*
X127734852Y-139797291D01*
X127732363Y-139796260D01*
X127717731Y-139794819D01*
X127336779Y-139794819D01*
X127322147Y-139796260D01*
X127295111Y-139807459D01*
X127274419Y-139828151D01*
X127263220Y-139855187D01*
X127261779Y-139869819D01*
X127150668Y-139869819D01*
X127150668Y-139683708D01*
X133950020Y-139683708D01*
X133950020Y-141151168D01*
G37*
G36*
X124753963Y-125153431D02*
G01*
X124784370Y-125183838D01*
X124818628Y-125252354D01*
X124818628Y-125540601D01*
X124444819Y-125540601D01*
X124444819Y-125252354D01*
X124479077Y-125183838D01*
X124509484Y-125153431D01*
X124578000Y-125119173D01*
X124685447Y-125119173D01*
X124753963Y-125153431D01*
G37*
G36*
X125555930Y-127896950D02*
G01*
X124183708Y-127896950D01*
X124183708Y-127282268D01*
X124294819Y-127282268D01*
X124294819Y-127377506D01*
X124295548Y-127384911D01*
X124295408Y-127386886D01*
X124295998Y-127389483D01*
X124296260Y-127392138D01*
X124297018Y-127393969D01*
X124298668Y-127401223D01*
X124346287Y-127544080D01*
X124352281Y-127557505D01*
X124354046Y-127559540D01*
X124355078Y-127562031D01*
X124364405Y-127573396D01*
X124459643Y-127668634D01*
X124465393Y-127673354D01*
X124466692Y-127674851D01*
X124468946Y-127676270D01*
X124471008Y-127677962D01*
X124472840Y-127678720D01*
X124479135Y-127682683D01*
X124574373Y-127730302D01*
X124575442Y-127730711D01*
X124575878Y-127731034D01*
X124582014Y-127733226D01*
X124588104Y-127735557D01*
X124588644Y-127735595D01*
X124589724Y-127735981D01*
X124780200Y-127783600D01*
X124782736Y-127783975D01*
X124783758Y-127784398D01*
X124789270Y-127784940D01*
X124794744Y-127785750D01*
X124795836Y-127785587D01*
X124798390Y-127785839D01*
X124941247Y-127785839D01*
X124943800Y-127785587D01*
X124944893Y-127785750D01*
X124950366Y-127784940D01*
X124955879Y-127784398D01*
X124956900Y-127783975D01*
X124959437Y-127783600D01*
X125149913Y-127735981D01*
X125150992Y-127735595D01*
X125151532Y-127735557D01*
X125157613Y-127733229D01*
X125163759Y-127731034D01*
X125164194Y-127730711D01*
X125165264Y-127730302D01*
X125260502Y-127682683D01*
X125266798Y-127678719D01*
X125268628Y-127677962D01*
X125270686Y-127676272D01*
X125272945Y-127674851D01*
X125274244Y-127673352D01*
X125279994Y-127668634D01*
X125375233Y-127573396D01*
X125384561Y-127562031D01*
X125385592Y-127559540D01*
X125387357Y-127557506D01*
X125393351Y-127544080D01*
X125440970Y-127401224D01*
X125442619Y-127393968D01*
X125443378Y-127392138D01*
X125443639Y-127389484D01*
X125444230Y-127386887D01*
X125444089Y-127384912D01*
X125444819Y-127377506D01*
X125444819Y-127282268D01*
X125444089Y-127274861D01*
X125444230Y-127272887D01*
X125443639Y-127270289D01*
X125443378Y-127267636D01*
X125442619Y-127265805D01*
X125440970Y-127258550D01*
X125393351Y-127115694D01*
X125387357Y-127102268D01*
X125385590Y-127100231D01*
X125384560Y-127097743D01*
X125375232Y-127086377D01*
X125327612Y-127038758D01*
X125316247Y-127029431D01*
X125289211Y-127018233D01*
X125259948Y-127018233D01*
X125232912Y-127029432D01*
X125212219Y-127050125D01*
X125201021Y-127077161D01*
X125201021Y-127106424D01*
X125212220Y-127133460D01*
X125221548Y-127144826D01*
X125256648Y-127179925D01*
X125294819Y-127294438D01*
X125294819Y-127365336D01*
X125256648Y-127479848D01*
X125182534Y-127553961D01*
X125105547Y-127592455D01*
X124932013Y-127635839D01*
X124807624Y-127635839D01*
X124634090Y-127592455D01*
X124557103Y-127553962D01*
X124482990Y-127479849D01*
X124444819Y-127365335D01*
X124444819Y-127294438D01*
X124482990Y-127179924D01*
X124518090Y-127144825D01*
X124527417Y-127133460D01*
X124538616Y-127106424D01*
X124538616Y-127077161D01*
X124527417Y-127050125D01*
X124506724Y-127029432D01*
X124479688Y-127018233D01*
X124450425Y-127018233D01*
X124423389Y-127029432D01*
X124412024Y-127038759D01*
X124364405Y-127086378D01*
X124355078Y-127097743D01*
X124354046Y-127100233D01*
X124352281Y-127102269D01*
X124346287Y-127115694D01*
X124298668Y-127258551D01*
X124297018Y-127265804D01*
X124296260Y-127267636D01*
X124295998Y-127270290D01*
X124295408Y-127272888D01*
X124295548Y-127274862D01*
X124294819Y-127282268D01*
X124183708Y-127282268D01*
X124183708Y-126077160D01*
X124296260Y-126077160D01*
X124296260Y-126106424D01*
X124307459Y-126133460D01*
X124328151Y-126154152D01*
X124355187Y-126165351D01*
X124369819Y-126166792D01*
X124771009Y-126166792D01*
X124771009Y-126588220D01*
X124369819Y-126588220D01*
X124355187Y-126589661D01*
X124328151Y-126600860D01*
X124307459Y-126621552D01*
X124296260Y-126648588D01*
X124296260Y-126677852D01*
X124307459Y-126704888D01*
X124328151Y-126725580D01*
X124355187Y-126736779D01*
X124369819Y-126738220D01*
X125369819Y-126738220D01*
X125384451Y-126736779D01*
X125411487Y-126725580D01*
X125432179Y-126704888D01*
X125443378Y-126677852D01*
X125443378Y-126648588D01*
X125432179Y-126621552D01*
X125411487Y-126600860D01*
X125384451Y-126589661D01*
X125369819Y-126588220D01*
X124921009Y-126588220D01*
X124921009Y-126166792D01*
X125369819Y-126166792D01*
X125384451Y-126165351D01*
X125411487Y-126154152D01*
X125432179Y-126133460D01*
X125443378Y-126106424D01*
X125443378Y-126077160D01*
X125432179Y-126050124D01*
X125411487Y-126029432D01*
X125384451Y-126018233D01*
X125369819Y-126016792D01*
X124369819Y-126016792D01*
X124355187Y-126018233D01*
X124328151Y-126029432D01*
X124307459Y-126050124D01*
X124296260Y-126077160D01*
X124183708Y-126077160D01*
X124183708Y-125234649D01*
X124294819Y-125234649D01*
X124294819Y-125615601D01*
X124296260Y-125630233D01*
X124307459Y-125657269D01*
X124328151Y-125677961D01*
X124355187Y-125689160D01*
X124369819Y-125690601D01*
X125369819Y-125690601D01*
X125384451Y-125689160D01*
X125411487Y-125677961D01*
X125432179Y-125657269D01*
X125443378Y-125630233D01*
X125443378Y-125600969D01*
X125432179Y-125573933D01*
X125411487Y-125553241D01*
X125384451Y-125542042D01*
X125369819Y-125540601D01*
X124968628Y-125540601D01*
X124968628Y-125416555D01*
X125412829Y-125105615D01*
X125423989Y-125096044D01*
X125439716Y-125071365D01*
X125444802Y-125042548D01*
X125438472Y-125013977D01*
X125421690Y-124990003D01*
X125397012Y-124974276D01*
X125368194Y-124969191D01*
X125339623Y-124975520D01*
X125326810Y-124982730D01*
X124968518Y-125233533D01*
X124967187Y-125220017D01*
X124966156Y-125217528D01*
X124965965Y-125214839D01*
X124960710Y-125201108D01*
X124913091Y-125105870D01*
X124909126Y-125099570D01*
X124908369Y-125097743D01*
X124906680Y-125095686D01*
X124905259Y-125093427D01*
X124903760Y-125092127D01*
X124899042Y-125086378D01*
X124851423Y-125038759D01*
X124845673Y-125034040D01*
X124844374Y-125032542D01*
X124842114Y-125031120D01*
X124840058Y-125029432D01*
X124838230Y-125028674D01*
X124831931Y-125024710D01*
X124736693Y-124977091D01*
X124722961Y-124971836D01*
X124720273Y-124971645D01*
X124717784Y-124970614D01*
X124703152Y-124969173D01*
X124560295Y-124969173D01*
X124545663Y-124970614D01*
X124543174Y-124971644D01*
X124540485Y-124971836D01*
X124526754Y-124977091D01*
X124431516Y-125024710D01*
X124425216Y-125028674D01*
X124423389Y-125029432D01*
X124421332Y-125031120D01*
X124419073Y-125032542D01*
X124417773Y-125034040D01*
X124412024Y-125038759D01*
X124364405Y-125086378D01*
X124359686Y-125092127D01*
X124358188Y-125093427D01*
X124356766Y-125095686D01*
X124355078Y-125097743D01*
X124354320Y-125099570D01*
X124350356Y-125105870D01*
X124302737Y-125201108D01*
X124297482Y-125214840D01*
X124297291Y-125217527D01*
X124296260Y-125220017D01*
X124294819Y-125234649D01*
X124183708Y-125234649D01*
X124183708Y-124187030D01*
X124294819Y-124187030D01*
X124294819Y-124329887D01*
X124295548Y-124337292D01*
X124295408Y-124339267D01*
X124295998Y-124341864D01*
X124296260Y-124344519D01*
X124297018Y-124346350D01*
X124298668Y-124353604D01*
X124346287Y-124496461D01*
X124352281Y-124509886D01*
X124354046Y-124511921D01*
X124355078Y-124514412D01*
X124364405Y-124525777D01*
X124459643Y-124621015D01*
X124465393Y-124625735D01*
X124466692Y-124627232D01*
X124468946Y-124628651D01*
X124471008Y-124630343D01*
X124472840Y-124631101D01*
X124479135Y-124635064D01*
X124574373Y-124682683D01*
X124575442Y-124683092D01*
X124575878Y-124683415D01*
X124582014Y-124685607D01*
X124588104Y-124687938D01*
X124588644Y-124687976D01*
X124589724Y-124688362D01*
X124780200Y-124735981D01*
X124782736Y-124736356D01*
X124783758Y-124736779D01*
X124789270Y-124737321D01*
X124794744Y-124738131D01*
X124795836Y-124737968D01*
X124798390Y-124738220D01*
X124941247Y-124738220D01*
X124943800Y-124737968D01*
X124944893Y-124738131D01*
X124950366Y-124737321D01*
X124955879Y-124736779D01*
X124956900Y-124736356D01*
X124959437Y-124735981D01*
X125149913Y-124688362D01*
X125150992Y-124687976D01*
X125151532Y-124687938D01*
X125157613Y-124685610D01*
X125163759Y-124683415D01*
X125164194Y-124683092D01*
X125165264Y-124682683D01*
X125260502Y-124635064D01*
X125266798Y-124631100D01*
X125268628Y-124630343D01*
X125270686Y-124628653D01*
X125272945Y-124627232D01*
X125274244Y-124625733D01*
X125279994Y-124621015D01*
X125375233Y-124525777D01*
X125384561Y-124514412D01*
X125385592Y-124511921D01*
X125387357Y-124509887D01*
X125393351Y-124496461D01*
X125440970Y-124353605D01*
X125442619Y-124346349D01*
X125443378Y-124344519D01*
X125443639Y-124341865D01*
X125444230Y-124339268D01*
X125444089Y-124337293D01*
X125444819Y-124329887D01*
X125444819Y-124234649D01*
X125444089Y-124227242D01*
X125444230Y-124225268D01*
X125443639Y-124222670D01*
X125443378Y-124220017D01*
X125442619Y-124218186D01*
X125440970Y-124210931D01*
X125393351Y-124068075D01*
X125387357Y-124054649D01*
X125385590Y-124052612D01*
X125384560Y-124050124D01*
X125375232Y-124038758D01*
X125327612Y-123991139D01*
X125316247Y-123981812D01*
X125300410Y-123975252D01*
X125289212Y-123970614D01*
X125274580Y-123969173D01*
X124941247Y-123969173D01*
X124926615Y-123970614D01*
X124899579Y-123981813D01*
X124878887Y-124002505D01*
X124867688Y-124029541D01*
X124866247Y-124044173D01*
X124866247Y-124234649D01*
X124867688Y-124249281D01*
X124878887Y-124276317D01*
X124899579Y-124297009D01*
X124926615Y-124308208D01*
X124955879Y-124308208D01*
X124982915Y-124297009D01*
X125003607Y-124276317D01*
X125014806Y-124249281D01*
X125016247Y-124234649D01*
X125016247Y-124119173D01*
X125243514Y-124119173D01*
X125256648Y-124132306D01*
X125294819Y-124246819D01*
X125294819Y-124317717D01*
X125256648Y-124432229D01*
X125182534Y-124506342D01*
X125105547Y-124544836D01*
X124932013Y-124588220D01*
X124807624Y-124588220D01*
X124634090Y-124544836D01*
X124557103Y-124506343D01*
X124482990Y-124432230D01*
X124444819Y-124317716D01*
X124444819Y-124204735D01*
X124484520Y-124125333D01*
X124489775Y-124111602D01*
X124491849Y-124082412D01*
X124482595Y-124054650D01*
X124463422Y-124032543D01*
X124437247Y-124019455D01*
X124408057Y-124017381D01*
X124380296Y-124026635D01*
X124358188Y-124045808D01*
X124350356Y-124058251D01*
X124302737Y-124153489D01*
X124297482Y-124167221D01*
X124297291Y-124169908D01*
X124296260Y-124172398D01*
X124294819Y-124187030D01*
X124183708Y-124187030D01*
X124183708Y-123858062D01*
X125555930Y-123858062D01*
X125555930Y-127896950D01*
G37*
X137431009Y-129129887D02*
X137478628Y-128987030D01*
X137478628Y-128987030D02*
X137526247Y-128939411D01*
X137526247Y-128939411D02*
X137621485Y-128891792D01*
X137621485Y-128891792D02*
X137764342Y-128891792D01*
X137764342Y-128891792D02*
X137859580Y-128939411D01*
X137859580Y-128939411D02*
X137907200Y-128987030D01*
X137907200Y-128987030D02*
X137954819Y-129082268D01*
X137954819Y-129082268D02*
X137954819Y-129463220D01*
X137954819Y-129463220D02*
X136954819Y-129463220D01*
X136954819Y-129463220D02*
X136954819Y-129129887D01*
X136954819Y-129129887D02*
X137002438Y-129034649D01*
X137002438Y-129034649D02*
X137050057Y-128987030D01*
X137050057Y-128987030D02*
X137145295Y-128939411D01*
X137145295Y-128939411D02*
X137240533Y-128939411D01*
X137240533Y-128939411D02*
X137335771Y-128987030D01*
X137335771Y-128987030D02*
X137383390Y-129034649D01*
X137383390Y-129034649D02*
X137431009Y-129129887D01*
X137431009Y-129129887D02*
X137431009Y-129463220D01*
X137669104Y-128510839D02*
X137669104Y-128034649D01*
X137954819Y-128606077D02*
X136954819Y-128272744D01*
X136954819Y-128272744D02*
X137954819Y-127939411D01*
X136954819Y-127748934D02*
X136954819Y-127177506D01*
X137954819Y-127463220D02*
X136954819Y-127463220D01*
X136954819Y-126987029D02*
X136954819Y-126415601D01*
X137954819Y-126701315D02*
X136954819Y-126701315D01*
X137573866Y-126082267D02*
X137573866Y-125320363D01*
X137954819Y-125701315D02*
X137192914Y-125701315D01*
G36*
X129078533Y-106959180D02*
G01*
X129105027Y-106985674D01*
X129139285Y-107054190D01*
X129139285Y-107161637D01*
X129105026Y-107230153D01*
X129074619Y-107260561D01*
X129006104Y-107294819D01*
X128717857Y-107294819D01*
X128717857Y-106921009D01*
X128964020Y-106921009D01*
X129078533Y-106959180D01*
G37*
G36*
X129027001Y-106479077D02*
G01*
X129057408Y-106509484D01*
X129091666Y-106578000D01*
X129091666Y-106637828D01*
X129057408Y-106706344D01*
X129027001Y-106736751D01*
X128958485Y-106771009D01*
X128717857Y-106771009D01*
X128717857Y-106444819D01*
X128958485Y-106444819D01*
X129027001Y-106479077D01*
G37*
G36*
X134455573Y-106479077D02*
G01*
X134527515Y-106551019D01*
X134567857Y-106712386D01*
X134567857Y-107027251D01*
X134527515Y-107188617D01*
X134455572Y-107260561D01*
X134387057Y-107294819D01*
X134231991Y-107294819D01*
X134163475Y-107260561D01*
X134091532Y-107188617D01*
X134051191Y-107027251D01*
X134051191Y-106712386D01*
X134091532Y-106551019D01*
X134163475Y-106479077D01*
X134231991Y-106444819D01*
X134387057Y-106444819D01*
X134455573Y-106479077D01*
G37*
G36*
X133455573Y-106479077D02*
G01*
X133485980Y-106509484D01*
X133520238Y-106578000D01*
X133520238Y-106685447D01*
X133485980Y-106753963D01*
X133455573Y-106784370D01*
X133387057Y-106818628D01*
X133098810Y-106818628D01*
X133098810Y-106444819D01*
X133387057Y-106444819D01*
X133455573Y-106479077D01*
G37*
G36*
X129967371Y-107009104D02*
G01*
X129699295Y-107009104D01*
X129833333Y-106606989D01*
X129967371Y-107009104D01*
G37*
G36*
X132455573Y-106479077D02*
G01*
X132485980Y-106509484D01*
X132520238Y-106578000D01*
X132520238Y-106685447D01*
X132485980Y-106753963D01*
X132455573Y-106784370D01*
X132387057Y-106818628D01*
X132098810Y-106818628D01*
X132098810Y-106444819D01*
X132387057Y-106444819D01*
X132455573Y-106479077D01*
G37*
G36*
X135684670Y-107651168D02*
G01*
X128456746Y-107651168D01*
X128456746Y-107450425D01*
X130950251Y-107450425D01*
X130950251Y-107479689D01*
X130961450Y-107506725D01*
X130982142Y-107527417D01*
X131009178Y-107538616D01*
X131023810Y-107540057D01*
X131785714Y-107540057D01*
X131800346Y-107538616D01*
X131827382Y-107527417D01*
X131848074Y-107506725D01*
X131859273Y-107479689D01*
X131859273Y-107450425D01*
X131848074Y-107423389D01*
X131827382Y-107402697D01*
X131800346Y-107391498D01*
X131785714Y-107390057D01*
X131023810Y-107390057D01*
X131009178Y-107391498D01*
X130982142Y-107402697D01*
X130961450Y-107423389D01*
X130950251Y-107450425D01*
X128456746Y-107450425D01*
X128456746Y-106369819D01*
X128567857Y-106369819D01*
X128567857Y-107369819D01*
X128569298Y-107384451D01*
X128580497Y-107411487D01*
X128601189Y-107432179D01*
X128628225Y-107443378D01*
X128642857Y-107444819D01*
X129023809Y-107444819D01*
X129038441Y-107443378D01*
X129040930Y-107442346D01*
X129043618Y-107442156D01*
X129057350Y-107436901D01*
X129152588Y-107389282D01*
X129158887Y-107385317D01*
X129160715Y-107384560D01*
X129162771Y-107382872D01*
X129165031Y-107381450D01*
X129166331Y-107379950D01*
X129172081Y-107375232D01*
X129186874Y-107360439D01*
X129425589Y-107360439D01*
X129427664Y-107389629D01*
X129440750Y-107415802D01*
X129462857Y-107434976D01*
X129490620Y-107444230D01*
X129519810Y-107442155D01*
X129545983Y-107429069D01*
X129565157Y-107406962D01*
X129571151Y-107393536D01*
X129649295Y-107159104D01*
X130017371Y-107159104D01*
X130095515Y-107393536D01*
X130101509Y-107406961D01*
X130120683Y-107429068D01*
X130146856Y-107442155D01*
X130176046Y-107444230D01*
X130203808Y-107434976D01*
X130225916Y-107415802D01*
X130239002Y-107389628D01*
X130241077Y-107360438D01*
X130237817Y-107346102D01*
X129907512Y-106355187D01*
X130283584Y-106355187D01*
X130283584Y-106384451D01*
X130294783Y-106411487D01*
X130315475Y-106432179D01*
X130342511Y-106443378D01*
X130357143Y-106444819D01*
X130567857Y-106444819D01*
X130567857Y-107369819D01*
X130569298Y-107384451D01*
X130580497Y-107411487D01*
X130601189Y-107432179D01*
X130628225Y-107443378D01*
X130657489Y-107443378D01*
X130684525Y-107432179D01*
X130705217Y-107411487D01*
X130716416Y-107384451D01*
X130717857Y-107369819D01*
X130717857Y-106444819D01*
X130928571Y-106444819D01*
X130943203Y-106443378D01*
X130970239Y-106432179D01*
X130990931Y-106411487D01*
X131002130Y-106384451D01*
X131002130Y-106369819D01*
X131948810Y-106369819D01*
X131948810Y-107369819D01*
X131950251Y-107384451D01*
X131961450Y-107411487D01*
X131982142Y-107432179D01*
X132009178Y-107443378D01*
X132038442Y-107443378D01*
X132065478Y-107432179D01*
X132086170Y-107411487D01*
X132097369Y-107384451D01*
X132098810Y-107369819D01*
X132098810Y-106968628D01*
X132404762Y-106968628D01*
X132419394Y-106967187D01*
X132421883Y-106966155D01*
X132424571Y-106965965D01*
X132438303Y-106960710D01*
X132533541Y-106913091D01*
X132539840Y-106909126D01*
X132541668Y-106908369D01*
X132543724Y-106906680D01*
X132545984Y-106905259D01*
X132547283Y-106903760D01*
X132553033Y-106899042D01*
X132600652Y-106851423D01*
X132605370Y-106845673D01*
X132606869Y-106844374D01*
X132608290Y-106842114D01*
X132609979Y-106840058D01*
X132610736Y-106838230D01*
X132614701Y-106831931D01*
X132662320Y-106736693D01*
X132667575Y-106722962D01*
X132667766Y-106720272D01*
X132668797Y-106717784D01*
X132670238Y-106703152D01*
X132670238Y-106560295D01*
X132668797Y-106545663D01*
X132667766Y-106543174D01*
X132667575Y-106540485D01*
X132662320Y-106526754D01*
X132614701Y-106431516D01*
X132610736Y-106425216D01*
X132609979Y-106423389D01*
X132608290Y-106421332D01*
X132606869Y-106419073D01*
X132605370Y-106417773D01*
X132600652Y-106412024D01*
X132558447Y-106369819D01*
X132948810Y-106369819D01*
X132948810Y-107369819D01*
X132950251Y-107384451D01*
X132961450Y-107411487D01*
X132982142Y-107432179D01*
X133009178Y-107443378D01*
X133038442Y-107443378D01*
X133065478Y-107432179D01*
X133086170Y-107411487D01*
X133097369Y-107384451D01*
X133098810Y-107369819D01*
X133098810Y-106968628D01*
X133222856Y-106968628D01*
X133533796Y-107412829D01*
X133543367Y-107423989D01*
X133568046Y-107439716D01*
X133596863Y-107444802D01*
X133625434Y-107438472D01*
X133649408Y-107421690D01*
X133665135Y-107397012D01*
X133670220Y-107368194D01*
X133663891Y-107339623D01*
X133656681Y-107326810D01*
X133405877Y-106968518D01*
X133419394Y-106967187D01*
X133421883Y-106966155D01*
X133424571Y-106965965D01*
X133438303Y-106960710D01*
X133533541Y-106913091D01*
X133539840Y-106909126D01*
X133541668Y-106908369D01*
X133543724Y-106906680D01*
X133545984Y-106905259D01*
X133547283Y-106903760D01*
X133553033Y-106899042D01*
X133600652Y-106851423D01*
X133605370Y-106845673D01*
X133606869Y-106844374D01*
X133608290Y-106842114D01*
X133609979Y-106840058D01*
X133610736Y-106838230D01*
X133614701Y-106831931D01*
X133662320Y-106736693D01*
X133667575Y-106722962D01*
X133667766Y-106720272D01*
X133668797Y-106717784D01*
X133670238Y-106703152D01*
X133901191Y-106703152D01*
X133901191Y-107036485D01*
X133901442Y-107039038D01*
X133901280Y-107040131D01*
X133902089Y-107045604D01*
X133902632Y-107051117D01*
X133903054Y-107052138D01*
X133903430Y-107054675D01*
X133951049Y-107245151D01*
X133955996Y-107258997D01*
X133959315Y-107263476D01*
X133961449Y-107268628D01*
X133970777Y-107279994D01*
X134066015Y-107375233D01*
X134071765Y-107379953D01*
X134073064Y-107381450D01*
X134075318Y-107382869D01*
X134077380Y-107384561D01*
X134079212Y-107385319D01*
X134085507Y-107389282D01*
X134180745Y-107436901D01*
X134194476Y-107442156D01*
X134197165Y-107442347D01*
X134199654Y-107443378D01*
X134214286Y-107444819D01*
X134404762Y-107444819D01*
X134419394Y-107443378D01*
X134421883Y-107442346D01*
X134424571Y-107442156D01*
X134438303Y-107436901D01*
X134533541Y-107389282D01*
X134539840Y-107385317D01*
X134541668Y-107384560D01*
X134543724Y-107382871D01*
X134545984Y-107381450D01*
X134547283Y-107379951D01*
X134553033Y-107375233D01*
X134648272Y-107279993D01*
X134657599Y-107268628D01*
X134659732Y-107263476D01*
X134663052Y-107258997D01*
X134667999Y-107245151D01*
X134715618Y-107054675D01*
X134715993Y-107052138D01*
X134716416Y-107051117D01*
X134716958Y-107045604D01*
X134717768Y-107040131D01*
X134717605Y-107039038D01*
X134717857Y-107036485D01*
X134717857Y-106703152D01*
X134717605Y-106700598D01*
X134717768Y-106699506D01*
X134716958Y-106694032D01*
X134716416Y-106688520D01*
X134715993Y-106687498D01*
X134715618Y-106684962D01*
X134667999Y-106494486D01*
X134663052Y-106480640D01*
X134659733Y-106476161D01*
X134657599Y-106471008D01*
X134648271Y-106459643D01*
X134553033Y-106364405D01*
X134547283Y-106359686D01*
X134545984Y-106358188D01*
X134543724Y-106356766D01*
X134541801Y-106355187D01*
X134855013Y-106355187D01*
X134855013Y-106384451D01*
X134866212Y-106411487D01*
X134886904Y-106432179D01*
X134913940Y-106443378D01*
X134928572Y-106444819D01*
X135139286Y-106444819D01*
X135139286Y-107369819D01*
X135140727Y-107384451D01*
X135151926Y-107411487D01*
X135172618Y-107432179D01*
X135199654Y-107443378D01*
X135228918Y-107443378D01*
X135255954Y-107432179D01*
X135276646Y-107411487D01*
X135287845Y-107384451D01*
X135289286Y-107369819D01*
X135289286Y-106444819D01*
X135500000Y-106444819D01*
X135514632Y-106443378D01*
X135541668Y-106432179D01*
X135562360Y-106411487D01*
X135573559Y-106384451D01*
X135573559Y-106355187D01*
X135562360Y-106328151D01*
X135541668Y-106307459D01*
X135514632Y-106296260D01*
X135500000Y-106294819D01*
X134928572Y-106294819D01*
X134913940Y-106296260D01*
X134886904Y-106307459D01*
X134866212Y-106328151D01*
X134855013Y-106355187D01*
X134541801Y-106355187D01*
X134541668Y-106355078D01*
X134539840Y-106354320D01*
X134533541Y-106350356D01*
X134438303Y-106302737D01*
X134424571Y-106297482D01*
X134421883Y-106297291D01*
X134419394Y-106296260D01*
X134404762Y-106294819D01*
X134214286Y-106294819D01*
X134199654Y-106296260D01*
X134197165Y-106297290D01*
X134194476Y-106297482D01*
X134180745Y-106302737D01*
X134085507Y-106350356D01*
X134079212Y-106354318D01*
X134077380Y-106355077D01*
X134075318Y-106356768D01*
X134073064Y-106358188D01*
X134071765Y-106359684D01*
X134066015Y-106364405D01*
X133970777Y-106459643D01*
X133961450Y-106471008D01*
X133959316Y-106476158D01*
X133955996Y-106480640D01*
X133951049Y-106494486D01*
X133903430Y-106684962D01*
X133903054Y-106687498D01*
X133902632Y-106688520D01*
X133902089Y-106694032D01*
X133901280Y-106699506D01*
X133901442Y-106700598D01*
X133901191Y-106703152D01*
X133670238Y-106703152D01*
X133670238Y-106560295D01*
X133668797Y-106545663D01*
X133667766Y-106543174D01*
X133667575Y-106540485D01*
X133662320Y-106526754D01*
X133614701Y-106431516D01*
X133610736Y-106425216D01*
X133609979Y-106423389D01*
X133608290Y-106421332D01*
X133606869Y-106419073D01*
X133605370Y-106417773D01*
X133600652Y-106412024D01*
X133553033Y-106364405D01*
X133547283Y-106359686D01*
X133545984Y-106358188D01*
X133543724Y-106356766D01*
X133541668Y-106355078D01*
X133539840Y-106354320D01*
X133533541Y-106350356D01*
X133438303Y-106302737D01*
X133424571Y-106297482D01*
X133421883Y-106297291D01*
X133419394Y-106296260D01*
X133404762Y-106294819D01*
X133023810Y-106294819D01*
X133009178Y-106296260D01*
X132982142Y-106307459D01*
X132961450Y-106328151D01*
X132950251Y-106355187D01*
X132948810Y-106369819D01*
X132558447Y-106369819D01*
X132553033Y-106364405D01*
X132547283Y-106359686D01*
X132545984Y-106358188D01*
X132543724Y-106356766D01*
X132541668Y-106355078D01*
X132539840Y-106354320D01*
X132533541Y-106350356D01*
X132438303Y-106302737D01*
X132424571Y-106297482D01*
X132421883Y-106297291D01*
X132419394Y-106296260D01*
X132404762Y-106294819D01*
X132023810Y-106294819D01*
X132009178Y-106296260D01*
X131982142Y-106307459D01*
X131961450Y-106328151D01*
X131950251Y-106355187D01*
X131948810Y-106369819D01*
X131002130Y-106369819D01*
X131002130Y-106355187D01*
X130990931Y-106328151D01*
X130970239Y-106307459D01*
X130943203Y-106296260D01*
X130928571Y-106294819D01*
X130357143Y-106294819D01*
X130342511Y-106296260D01*
X130315475Y-106307459D01*
X130294783Y-106328151D01*
X130283584Y-106355187D01*
X129907512Y-106355187D01*
X129904484Y-106346102D01*
X129898490Y-106332676D01*
X129894978Y-106328627D01*
X129892583Y-106323836D01*
X129885479Y-106317674D01*
X129879316Y-106310569D01*
X129874522Y-106308172D01*
X129870475Y-106304662D01*
X129861553Y-106301688D01*
X129853143Y-106297483D01*
X129847798Y-106297103D01*
X129842713Y-106295408D01*
X129833333Y-106296074D01*
X129823953Y-106295408D01*
X129818867Y-106297103D01*
X129813523Y-106297483D01*
X129805115Y-106301687D01*
X129796190Y-106304662D01*
X129792139Y-106308175D01*
X129787350Y-106310570D01*
X129781191Y-106317670D01*
X129774083Y-106323836D01*
X129771686Y-106328629D01*
X129768176Y-106332677D01*
X129762182Y-106346102D01*
X129428849Y-107346102D01*
X129425589Y-107360439D01*
X129186874Y-107360439D01*
X129219699Y-107327613D01*
X129224417Y-107321863D01*
X129225916Y-107320564D01*
X129227337Y-107318305D01*
X129229027Y-107316247D01*
X129229784Y-107314417D01*
X129233748Y-107308121D01*
X129281367Y-107212883D01*
X129286622Y-107199152D01*
X129286813Y-107196462D01*
X129287844Y-107193974D01*
X129289285Y-107179342D01*
X129289285Y-107036485D01*
X129287844Y-107021853D01*
X129286813Y-107019364D01*
X129286622Y-107016675D01*
X129281367Y-107002944D01*
X129233748Y-106907706D01*
X129229783Y-106901406D01*
X129229026Y-106899579D01*
X129227337Y-106897522D01*
X129225916Y-106895263D01*
X129224417Y-106893963D01*
X129219699Y-106888214D01*
X129172080Y-106840595D01*
X129160715Y-106831268D01*
X129158224Y-106830236D01*
X129156189Y-106828471D01*
X129150121Y-106825762D01*
X129172080Y-106803804D01*
X129176798Y-106798054D01*
X129178297Y-106796755D01*
X129179718Y-106794495D01*
X129181407Y-106792439D01*
X129182164Y-106790611D01*
X129186129Y-106784312D01*
X129233748Y-106689074D01*
X129239003Y-106675343D01*
X129239194Y-106672653D01*
X129240225Y-106670165D01*
X129241666Y-106655533D01*
X129241666Y-106560295D01*
X129240225Y-106545663D01*
X129239194Y-106543174D01*
X129239003Y-106540485D01*
X129233748Y-106526754D01*
X129186129Y-106431516D01*
X129182164Y-106425216D01*
X129181407Y-106423389D01*
X129179718Y-106421332D01*
X129178297Y-106419073D01*
X129176798Y-106417773D01*
X129172080Y-106412024D01*
X129124461Y-106364405D01*
X129118711Y-106359686D01*
X129117412Y-106358188D01*
X129115152Y-106356766D01*
X129113096Y-106355078D01*
X129111268Y-106354320D01*
X129104969Y-106350356D01*
X129009731Y-106302737D01*
X128995999Y-106297482D01*
X128993311Y-106297291D01*
X128990822Y-106296260D01*
X128976190Y-106294819D01*
X128642857Y-106294819D01*
X128628225Y-106296260D01*
X128601189Y-106307459D01*
X128580497Y-106328151D01*
X128569298Y-106355187D01*
X128567857Y-106369819D01*
X128456746Y-106369819D01*
X128456746Y-106183708D01*
X135684670Y-106183708D01*
X135684670Y-107651168D01*
G37*
G36*
X110693668Y-110249077D02*
G01*
X110724075Y-110279484D01*
X110758333Y-110348000D01*
X110758333Y-110455447D01*
X110724075Y-110523963D01*
X110693668Y-110554370D01*
X110625152Y-110588628D01*
X110336905Y-110588628D01*
X110336905Y-110214819D01*
X110625152Y-110214819D01*
X110693668Y-110249077D01*
G37*
G36*
X111019444Y-111325930D02*
G01*
X109028175Y-111325930D01*
X109028175Y-110139819D01*
X109139286Y-110139819D01*
X109139286Y-110949342D01*
X109140727Y-110963974D01*
X109141758Y-110966463D01*
X109141949Y-110969151D01*
X109147204Y-110982883D01*
X109194823Y-111078121D01*
X109198786Y-111084417D01*
X109199544Y-111086247D01*
X109201233Y-111088305D01*
X109202655Y-111090564D01*
X109204153Y-111091863D01*
X109208871Y-111097612D01*
X109256490Y-111145232D01*
X109262239Y-111149950D01*
X109263540Y-111151450D01*
X109265799Y-111152872D01*
X109267856Y-111154560D01*
X109269683Y-111155317D01*
X109275983Y-111159282D01*
X109371221Y-111206901D01*
X109384952Y-111212156D01*
X109387641Y-111212347D01*
X109390130Y-111213378D01*
X109404762Y-111214819D01*
X109595238Y-111214819D01*
X109609870Y-111213378D01*
X109612359Y-111212346D01*
X109615047Y-111212156D01*
X109628779Y-111206901D01*
X109724017Y-111159282D01*
X109730316Y-111155317D01*
X109732144Y-111154560D01*
X109734200Y-111152872D01*
X109736460Y-111151450D01*
X109737760Y-111149950D01*
X109743510Y-111145232D01*
X109791128Y-111097613D01*
X109795846Y-111091863D01*
X109797345Y-111090564D01*
X109798766Y-111088305D01*
X109800456Y-111086247D01*
X109801213Y-111084417D01*
X109805177Y-111078121D01*
X109852796Y-110982883D01*
X109858051Y-110969152D01*
X109858242Y-110966462D01*
X109859273Y-110963974D01*
X109860714Y-110949342D01*
X109860714Y-110139819D01*
X110186905Y-110139819D01*
X110186905Y-111139819D01*
X110188346Y-111154451D01*
X110199545Y-111181487D01*
X110220237Y-111202179D01*
X110247273Y-111213378D01*
X110276537Y-111213378D01*
X110303573Y-111202179D01*
X110324265Y-111181487D01*
X110335464Y-111154451D01*
X110336905Y-111139819D01*
X110336905Y-110738628D01*
X110642857Y-110738628D01*
X110657489Y-110737187D01*
X110659978Y-110736155D01*
X110662666Y-110735965D01*
X110676398Y-110730710D01*
X110771636Y-110683091D01*
X110777935Y-110679126D01*
X110779763Y-110678369D01*
X110781819Y-110676680D01*
X110784079Y-110675259D01*
X110785378Y-110673760D01*
X110791128Y-110669042D01*
X110838747Y-110621423D01*
X110843465Y-110615673D01*
X110844964Y-110614374D01*
X110846385Y-110612114D01*
X110848074Y-110610058D01*
X110848831Y-110608230D01*
X110852796Y-110601931D01*
X110900415Y-110506693D01*
X110905670Y-110492962D01*
X110905861Y-110490272D01*
X110906892Y-110487784D01*
X110908333Y-110473152D01*
X110908333Y-110330295D01*
X110906892Y-110315663D01*
X110905861Y-110313174D01*
X110905670Y-110310485D01*
X110900415Y-110296754D01*
X110852796Y-110201516D01*
X110848831Y-110195216D01*
X110848074Y-110193389D01*
X110846385Y-110191332D01*
X110844964Y-110189073D01*
X110843465Y-110187773D01*
X110838747Y-110182024D01*
X110791128Y-110134405D01*
X110785378Y-110129686D01*
X110784079Y-110128188D01*
X110781819Y-110126766D01*
X110779763Y-110125078D01*
X110777935Y-110124320D01*
X110771636Y-110120356D01*
X110676398Y-110072737D01*
X110662666Y-110067482D01*
X110659978Y-110067291D01*
X110657489Y-110066260D01*
X110642857Y-110064819D01*
X110261905Y-110064819D01*
X110247273Y-110066260D01*
X110220237Y-110077459D01*
X110199545Y-110098151D01*
X110188346Y-110125187D01*
X110186905Y-110139819D01*
X109860714Y-110139819D01*
X109859273Y-110125187D01*
X109848074Y-110098151D01*
X109827382Y-110077459D01*
X109800346Y-110066260D01*
X109771082Y-110066260D01*
X109744046Y-110077459D01*
X109723354Y-110098151D01*
X109712155Y-110125187D01*
X109710714Y-110139819D01*
X109710714Y-110931637D01*
X109676455Y-111000153D01*
X109646048Y-111030561D01*
X109577533Y-111064819D01*
X109422467Y-111064819D01*
X109353951Y-111030561D01*
X109323544Y-111000153D01*
X109289286Y-110931637D01*
X109289286Y-110139819D01*
X109287845Y-110125187D01*
X109276646Y-110098151D01*
X109255954Y-110077459D01*
X109228918Y-110066260D01*
X109199654Y-110066260D01*
X109172618Y-110077459D01*
X109151926Y-110098151D01*
X109140727Y-110125187D01*
X109139286Y-110139819D01*
X109028175Y-110139819D01*
X109028175Y-109953708D01*
X111019444Y-109953708D01*
X111019444Y-111325930D01*
G37*
X135954819Y-138306077D02*
X136954819Y-137972744D01*
X136954819Y-137972744D02*
X135954819Y-137639411D01*
X136954819Y-137306077D02*
X135954819Y-137306077D01*
X135954819Y-137306077D02*
X135954819Y-137067982D01*
X135954819Y-137067982D02*
X136002438Y-136925125D01*
X136002438Y-136925125D02*
X136097676Y-136829887D01*
X136097676Y-136829887D02*
X136192914Y-136782268D01*
X136192914Y-136782268D02*
X136383390Y-136734649D01*
X136383390Y-136734649D02*
X136526247Y-136734649D01*
X136526247Y-136734649D02*
X136716723Y-136782268D01*
X136716723Y-136782268D02*
X136811961Y-136829887D01*
X136811961Y-136829887D02*
X136907200Y-136925125D01*
X136907200Y-136925125D02*
X136954819Y-137067982D01*
X136954819Y-137067982D02*
X136954819Y-137306077D01*
X136859580Y-135734649D02*
X136907200Y-135782268D01*
X136907200Y-135782268D02*
X136954819Y-135925125D01*
X136954819Y-135925125D02*
X136954819Y-136020363D01*
X136954819Y-136020363D02*
X136907200Y-136163220D01*
X136907200Y-136163220D02*
X136811961Y-136258458D01*
X136811961Y-136258458D02*
X136716723Y-136306077D01*
X136716723Y-136306077D02*
X136526247Y-136353696D01*
X136526247Y-136353696D02*
X136383390Y-136353696D01*
X136383390Y-136353696D02*
X136192914Y-136306077D01*
X136192914Y-136306077D02*
X136097676Y-136258458D01*
X136097676Y-136258458D02*
X136002438Y-136163220D01*
X136002438Y-136163220D02*
X135954819Y-136020363D01*
X135954819Y-136020363D02*
X135954819Y-135925125D01*
X135954819Y-135925125D02*
X136002438Y-135782268D01*
X136002438Y-135782268D02*
X136050057Y-135734649D01*
G36*
X108359486Y-123282990D02*
G01*
X108433599Y-123357103D01*
X108472092Y-123434090D01*
X108515476Y-123607624D01*
X108515476Y-123732013D01*
X108472092Y-123905547D01*
X108433598Y-123982534D01*
X108359486Y-124056647D01*
X108244973Y-124094819D01*
X108094048Y-124094819D01*
X108094048Y-123244819D01*
X108244973Y-123244819D01*
X108359486Y-123282990D01*
G37*
G36*
X109450811Y-123279077D02*
G01*
X109522753Y-123351019D01*
X109563095Y-123512386D01*
X109563095Y-123827251D01*
X109522753Y-123988617D01*
X109450810Y-124060561D01*
X109382295Y-124094819D01*
X109227229Y-124094819D01*
X109158713Y-124060561D01*
X109086770Y-123988617D01*
X109046429Y-123827251D01*
X109046429Y-123512386D01*
X109086770Y-123351019D01*
X109158713Y-123279077D01*
X109227229Y-123244819D01*
X109382295Y-123244819D01*
X109450811Y-123279077D01*
G37*
G36*
X111967063Y-124355930D02*
G01*
X107832937Y-124355930D01*
X107832937Y-123169819D01*
X107944048Y-123169819D01*
X107944048Y-124169819D01*
X107945489Y-124184451D01*
X107956688Y-124211487D01*
X107977380Y-124232179D01*
X108004416Y-124243378D01*
X108019048Y-124244819D01*
X108257143Y-124244819D01*
X108264548Y-124244089D01*
X108266523Y-124244230D01*
X108269120Y-124243639D01*
X108271775Y-124243378D01*
X108273606Y-124242619D01*
X108280860Y-124240970D01*
X108423717Y-124193351D01*
X108437142Y-124187357D01*
X108439177Y-124185591D01*
X108441668Y-124184560D01*
X108453033Y-124175233D01*
X108548272Y-124079993D01*
X108552989Y-124074244D01*
X108554488Y-124072945D01*
X108555909Y-124070686D01*
X108557599Y-124068628D01*
X108558356Y-124066798D01*
X108562320Y-124060502D01*
X108609939Y-123965264D01*
X108610348Y-123964194D01*
X108610671Y-123963759D01*
X108612863Y-123957622D01*
X108615194Y-123951533D01*
X108615232Y-123950992D01*
X108615618Y-123949913D01*
X108663237Y-123759437D01*
X108663612Y-123756900D01*
X108664035Y-123755879D01*
X108664577Y-123750366D01*
X108665387Y-123744893D01*
X108665224Y-123743800D01*
X108665476Y-123741247D01*
X108665476Y-123598390D01*
X108665224Y-123595836D01*
X108665387Y-123594744D01*
X108664577Y-123589270D01*
X108664035Y-123583758D01*
X108663612Y-123582736D01*
X108663237Y-123580200D01*
X108643975Y-123503152D01*
X108896429Y-123503152D01*
X108896429Y-123836485D01*
X108896680Y-123839038D01*
X108896518Y-123840131D01*
X108897327Y-123845604D01*
X108897870Y-123851117D01*
X108898292Y-123852138D01*
X108898668Y-123854675D01*
X108946287Y-124045151D01*
X108951234Y-124058997D01*
X108954553Y-124063476D01*
X108956687Y-124068628D01*
X108966015Y-124079994D01*
X109061253Y-124175233D01*
X109067003Y-124179953D01*
X109068302Y-124181450D01*
X109070556Y-124182869D01*
X109072618Y-124184561D01*
X109074450Y-124185319D01*
X109080745Y-124189282D01*
X109175983Y-124236901D01*
X109189714Y-124242156D01*
X109192403Y-124242347D01*
X109194892Y-124243378D01*
X109209524Y-124244819D01*
X109400000Y-124244819D01*
X109414632Y-124243378D01*
X109417121Y-124242346D01*
X109419809Y-124242156D01*
X109433541Y-124236901D01*
X109528779Y-124189282D01*
X109535078Y-124185317D01*
X109536906Y-124184560D01*
X109538962Y-124182871D01*
X109541222Y-124181450D01*
X109542521Y-124179951D01*
X109548271Y-124175233D01*
X109643510Y-124079993D01*
X109652837Y-124068628D01*
X109654970Y-124063476D01*
X109658290Y-124058997D01*
X109663237Y-124045151D01*
X109710856Y-123854675D01*
X109711231Y-123852138D01*
X109711654Y-123851117D01*
X109712196Y-123845604D01*
X109713006Y-123840131D01*
X109712843Y-123839038D01*
X109713095Y-123836485D01*
X109713095Y-123503152D01*
X109712843Y-123500598D01*
X109713006Y-123499506D01*
X109712196Y-123494032D01*
X109711654Y-123488520D01*
X109711231Y-123487498D01*
X109710856Y-123484962D01*
X109663237Y-123294486D01*
X109658290Y-123280640D01*
X109654971Y-123276161D01*
X109652837Y-123271008D01*
X109643509Y-123259643D01*
X109556489Y-123172623D01*
X109896481Y-123172623D01*
X109898469Y-123187191D01*
X110136564Y-124187191D01*
X110138293Y-124192210D01*
X110138533Y-124194012D01*
X110139475Y-124195640D01*
X110141354Y-124201091D01*
X110147740Y-124209915D01*
X110153195Y-124219337D01*
X110156252Y-124221677D01*
X110158511Y-124224798D01*
X110167786Y-124230505D01*
X110176433Y-124237124D01*
X110180153Y-124238116D01*
X110183433Y-124240134D01*
X110194187Y-124241858D01*
X110204709Y-124244664D01*
X110208524Y-124244157D01*
X110212328Y-124244767D01*
X110222926Y-124242243D01*
X110233717Y-124240810D01*
X110237048Y-124238881D01*
X110240796Y-124237989D01*
X110249620Y-124231602D01*
X110259042Y-124226148D01*
X110261382Y-124223090D01*
X110264503Y-124220832D01*
X110270210Y-124211556D01*
X110276829Y-124202910D01*
X110278854Y-124197510D01*
X110279839Y-124195910D01*
X110280126Y-124194118D01*
X110281992Y-124189144D01*
X110399999Y-123746613D01*
X110518008Y-124189144D01*
X110519873Y-124194119D01*
X110520161Y-124195910D01*
X110521145Y-124197509D01*
X110523171Y-124202911D01*
X110529791Y-124211559D01*
X110535497Y-124220832D01*
X110538617Y-124223090D01*
X110540958Y-124226148D01*
X110550379Y-124231602D01*
X110559204Y-124237989D01*
X110562951Y-124238881D01*
X110566283Y-124240810D01*
X110577076Y-124242244D01*
X110587672Y-124244767D01*
X110591473Y-124244157D01*
X110595292Y-124244665D01*
X110605823Y-124241856D01*
X110616567Y-124240134D01*
X110619843Y-124238118D01*
X110623567Y-124237125D01*
X110632217Y-124230503D01*
X110641489Y-124224798D01*
X110643747Y-124221677D01*
X110646805Y-124219337D01*
X110652260Y-124209914D01*
X110658646Y-124201091D01*
X110660523Y-124195642D01*
X110661467Y-124194013D01*
X110661706Y-124192209D01*
X110663436Y-124187191D01*
X110901532Y-123187191D01*
X110903520Y-123172623D01*
X110903070Y-123169819D01*
X111134524Y-123169819D01*
X111134524Y-124169819D01*
X111135965Y-124184451D01*
X111147164Y-124211487D01*
X111167856Y-124232179D01*
X111194892Y-124243378D01*
X111224156Y-124243378D01*
X111251192Y-124232179D01*
X111271884Y-124211487D01*
X111283083Y-124184451D01*
X111284524Y-124169819D01*
X111284524Y-123452235D01*
X111715834Y-124207030D01*
X111718023Y-124210114D01*
X111718592Y-124211487D01*
X111719989Y-124212884D01*
X111724344Y-124219019D01*
X111732232Y-124225127D01*
X111739284Y-124232179D01*
X111743702Y-124234009D01*
X111747482Y-124236936D01*
X111757103Y-124239560D01*
X111766320Y-124243378D01*
X111771101Y-124243378D01*
X111775713Y-124244636D01*
X111785610Y-124243378D01*
X111795584Y-124243378D01*
X111799999Y-124241548D01*
X111804743Y-124240946D01*
X111813407Y-124235995D01*
X111822620Y-124232179D01*
X111825998Y-124228800D01*
X111830152Y-124226427D01*
X111836261Y-124218537D01*
X111843312Y-124211487D01*
X111845141Y-124207070D01*
X111848069Y-124203290D01*
X111850693Y-124193666D01*
X111854511Y-124184451D01*
X111855247Y-124176968D01*
X111855769Y-124175058D01*
X111855581Y-124173582D01*
X111855952Y-124169819D01*
X111855952Y-123169819D01*
X111854511Y-123155187D01*
X111843312Y-123128151D01*
X111822620Y-123107459D01*
X111795584Y-123096260D01*
X111766320Y-123096260D01*
X111739284Y-123107459D01*
X111718592Y-123128151D01*
X111707393Y-123155187D01*
X111705952Y-123169819D01*
X111705952Y-123887402D01*
X111274642Y-123132609D01*
X111272453Y-123129525D01*
X111271884Y-123128151D01*
X111270484Y-123126751D01*
X111266132Y-123120619D01*
X111258242Y-123114509D01*
X111251192Y-123107459D01*
X111246775Y-123105629D01*
X111242995Y-123102702D01*
X111233371Y-123100077D01*
X111224156Y-123096260D01*
X111219375Y-123096260D01*
X111214763Y-123095002D01*
X111204866Y-123096260D01*
X111194892Y-123096260D01*
X111190476Y-123098089D01*
X111185733Y-123098692D01*
X111177068Y-123103642D01*
X111167856Y-123107459D01*
X111164477Y-123110837D01*
X111160324Y-123113211D01*
X111154214Y-123121100D01*
X111147164Y-123128151D01*
X111145334Y-123132567D01*
X111142407Y-123136348D01*
X111139782Y-123145971D01*
X111135965Y-123155187D01*
X111135228Y-123162669D01*
X111134707Y-123164580D01*
X111134894Y-123166055D01*
X111134524Y-123169819D01*
X110903070Y-123169819D01*
X110898887Y-123143728D01*
X110883551Y-123118806D01*
X110859844Y-123101650D01*
X110831376Y-123094871D01*
X110802481Y-123099504D01*
X110777559Y-123114840D01*
X110760402Y-123138547D01*
X110755612Y-123152448D01*
X110586359Y-123863303D01*
X110472468Y-123436208D01*
X110471182Y-123432780D01*
X110470991Y-123431339D01*
X110469999Y-123429626D01*
X110467305Y-123422442D01*
X110461290Y-123414583D01*
X110456329Y-123406015D01*
X110452470Y-123403061D01*
X110449518Y-123399204D01*
X110440953Y-123394245D01*
X110433091Y-123388227D01*
X110428394Y-123386974D01*
X110424193Y-123384542D01*
X110414386Y-123383239D01*
X110404816Y-123380687D01*
X110399997Y-123381327D01*
X110395185Y-123380688D01*
X110385624Y-123383237D01*
X110375807Y-123384542D01*
X110371601Y-123386976D01*
X110366909Y-123388228D01*
X110359049Y-123394243D01*
X110350482Y-123399204D01*
X110347528Y-123403062D01*
X110343671Y-123406015D01*
X110338712Y-123414580D01*
X110332695Y-123422441D01*
X110329998Y-123429630D01*
X110329009Y-123431340D01*
X110328817Y-123432779D01*
X110327532Y-123436208D01*
X110213640Y-123863303D01*
X110044389Y-123152447D01*
X110039599Y-123138547D01*
X110022442Y-123114840D01*
X109997520Y-123099504D01*
X109968625Y-123094871D01*
X109940157Y-123101649D01*
X109916450Y-123118806D01*
X109901114Y-123143728D01*
X109896481Y-123172623D01*
X109556489Y-123172623D01*
X109548271Y-123164405D01*
X109542521Y-123159686D01*
X109541222Y-123158188D01*
X109538962Y-123156766D01*
X109536906Y-123155078D01*
X109535078Y-123154320D01*
X109528779Y-123150356D01*
X109433541Y-123102737D01*
X109419809Y-123097482D01*
X109417121Y-123097291D01*
X109414632Y-123096260D01*
X109400000Y-123094819D01*
X109209524Y-123094819D01*
X109194892Y-123096260D01*
X109192403Y-123097290D01*
X109189714Y-123097482D01*
X109175983Y-123102737D01*
X109080745Y-123150356D01*
X109074450Y-123154318D01*
X109072618Y-123155077D01*
X109070556Y-123156768D01*
X109068302Y-123158188D01*
X109067003Y-123159684D01*
X109061253Y-123164405D01*
X108966015Y-123259643D01*
X108956688Y-123271008D01*
X108954554Y-123276158D01*
X108951234Y-123280640D01*
X108946287Y-123294486D01*
X108898668Y-123484962D01*
X108898292Y-123487498D01*
X108897870Y-123488520D01*
X108897327Y-123494032D01*
X108896518Y-123499506D01*
X108896680Y-123500598D01*
X108896429Y-123503152D01*
X108643975Y-123503152D01*
X108615618Y-123389724D01*
X108615232Y-123388644D01*
X108615194Y-123388104D01*
X108612863Y-123382014D01*
X108610671Y-123375878D01*
X108610348Y-123375442D01*
X108609939Y-123374373D01*
X108562320Y-123279135D01*
X108558357Y-123272840D01*
X108557599Y-123271008D01*
X108555907Y-123268946D01*
X108554488Y-123266692D01*
X108552991Y-123265393D01*
X108548271Y-123259643D01*
X108453033Y-123164405D01*
X108441668Y-123155078D01*
X108439177Y-123154046D01*
X108437142Y-123152281D01*
X108423717Y-123146287D01*
X108280860Y-123098668D01*
X108273606Y-123097018D01*
X108271775Y-123096260D01*
X108269120Y-123095998D01*
X108266523Y-123095408D01*
X108264548Y-123095548D01*
X108257143Y-123094819D01*
X108019048Y-123094819D01*
X108004416Y-123096260D01*
X107977380Y-123107459D01*
X107956688Y-123128151D01*
X107945489Y-123155187D01*
X107944048Y-123169819D01*
X107832937Y-123169819D01*
X107832937Y-122983708D01*
X111967063Y-122983708D01*
X111967063Y-124355930D01*
G37*
D11*
X137619048Y-122571266D02*
X138380953Y-122571266D01*
X138000000Y-122952219D02*
X138000000Y-122190314D01*
D10*
G36*
X113685460Y-116564077D02*
G01*
X113715867Y-116594484D01*
X113750125Y-116663000D01*
X113750125Y-116770447D01*
X113715867Y-116838963D01*
X113685460Y-116869370D01*
X113616944Y-116903628D01*
X113328697Y-116903628D01*
X113328697Y-116529819D01*
X113616944Y-116529819D01*
X113685460Y-116564077D01*
G37*
G36*
X117390747Y-117640930D02*
G01*
X113067586Y-117640930D01*
X113067586Y-116454819D01*
X113178697Y-116454819D01*
X113178697Y-117454819D01*
X113180138Y-117469451D01*
X113191337Y-117496487D01*
X113212029Y-117517179D01*
X113239065Y-117528378D01*
X113268329Y-117528378D01*
X113295365Y-117517179D01*
X113316057Y-117496487D01*
X113327256Y-117469451D01*
X113328697Y-117454819D01*
X113328697Y-117053628D01*
X113452743Y-117053628D01*
X113763683Y-117497829D01*
X113773254Y-117508989D01*
X113797933Y-117524716D01*
X113826750Y-117529802D01*
X113855321Y-117523472D01*
X113879295Y-117506690D01*
X113895022Y-117482012D01*
X113900107Y-117453194D01*
X113893778Y-117424623D01*
X113886568Y-117411810D01*
X113635764Y-117053518D01*
X113649281Y-117052187D01*
X113651770Y-117051155D01*
X113654458Y-117050965D01*
X113668190Y-117045710D01*
X113763428Y-116998091D01*
X113769727Y-116994126D01*
X113771555Y-116993369D01*
X113773611Y-116991680D01*
X113775871Y-116990259D01*
X113777170Y-116988760D01*
X113782920Y-116984042D01*
X113830539Y-116936423D01*
X113835257Y-116930673D01*
X113836756Y-116929374D01*
X113838177Y-116927114D01*
X113839866Y-116925058D01*
X113840623Y-116923230D01*
X113844588Y-116916931D01*
X113892207Y-116821693D01*
X113897462Y-116807962D01*
X113897653Y-116805272D01*
X113898684Y-116802784D01*
X113900125Y-116788152D01*
X113900125Y-116645295D01*
X113898684Y-116630663D01*
X113897653Y-116628174D01*
X113897462Y-116625485D01*
X113892207Y-116611754D01*
X113844588Y-116516516D01*
X113840623Y-116510216D01*
X113839866Y-116508389D01*
X113838177Y-116506332D01*
X113836756Y-116504073D01*
X113835257Y-116502773D01*
X113830539Y-116497024D01*
X113788334Y-116454819D01*
X114178697Y-116454819D01*
X114178697Y-117454819D01*
X114180138Y-117469451D01*
X114191337Y-117496487D01*
X114212029Y-117517179D01*
X114239065Y-117528378D01*
X114268329Y-117528378D01*
X114295365Y-117517179D01*
X114316057Y-117496487D01*
X114327256Y-117469451D01*
X114328697Y-117454819D01*
X114328697Y-116883390D01*
X114607268Y-116883390D01*
X114607268Y-117026247D01*
X114607519Y-117028800D01*
X114607357Y-117029893D01*
X114608166Y-117035366D01*
X114608709Y-117040879D01*
X114609131Y-117041900D01*
X114609507Y-117044437D01*
X114657126Y-117234913D01*
X114657511Y-117235992D01*
X114657550Y-117236532D01*
X114659877Y-117242613D01*
X114662073Y-117248759D01*
X114662395Y-117249194D01*
X114662805Y-117250264D01*
X114710424Y-117345502D01*
X114714387Y-117351798D01*
X114715145Y-117353628D01*
X114716834Y-117355686D01*
X114718256Y-117357945D01*
X114719754Y-117359244D01*
X114724473Y-117364994D01*
X114819711Y-117460233D01*
X114831076Y-117469561D01*
X114833566Y-117470592D01*
X114835601Y-117472357D01*
X114849027Y-117478351D01*
X114991883Y-117525970D01*
X114999138Y-117527619D01*
X115000969Y-117528378D01*
X115003622Y-117528639D01*
X115006220Y-117529230D01*
X115008194Y-117529089D01*
X115015601Y-117529819D01*
X115110839Y-117529819D01*
X115118244Y-117529089D01*
X115120219Y-117529230D01*
X115122816Y-117528639D01*
X115125471Y-117528378D01*
X115127302Y-117527619D01*
X115134556Y-117525970D01*
X115277413Y-117478351D01*
X115290838Y-117472357D01*
X115292873Y-117470591D01*
X115295364Y-117469560D01*
X115306730Y-117460232D01*
X115354348Y-117412613D01*
X115363676Y-117401247D01*
X115370957Y-117383668D01*
X115374874Y-117374212D01*
X115376315Y-117359580D01*
X115376315Y-117026247D01*
X115374874Y-117011615D01*
X115363675Y-116984579D01*
X115342983Y-116963887D01*
X115315947Y-116952688D01*
X115301315Y-116951247D01*
X115110839Y-116951247D01*
X115096207Y-116952688D01*
X115069171Y-116963887D01*
X115048479Y-116984579D01*
X115037280Y-117011615D01*
X115037280Y-117040879D01*
X115048479Y-117067915D01*
X115069171Y-117088607D01*
X115096207Y-117099806D01*
X115110839Y-117101247D01*
X115226315Y-117101247D01*
X115226315Y-117328514D01*
X115213182Y-117341647D01*
X115098669Y-117379819D01*
X115027771Y-117379819D01*
X114913258Y-117341648D01*
X114839145Y-117267534D01*
X114800651Y-117190547D01*
X114757268Y-117017013D01*
X114757268Y-116892624D01*
X114800651Y-116719090D01*
X114839145Y-116642103D01*
X114913258Y-116567990D01*
X115027771Y-116529819D01*
X115140753Y-116529819D01*
X115220155Y-116569520D01*
X115233886Y-116574775D01*
X115263076Y-116576849D01*
X115290838Y-116567595D01*
X115312945Y-116548422D01*
X115326033Y-116522247D01*
X115328107Y-116493057D01*
X115318853Y-116465296D01*
X115309767Y-116454819D01*
X115654887Y-116454819D01*
X115654887Y-117454819D01*
X115656328Y-117469451D01*
X115667527Y-117496487D01*
X115688219Y-117517179D01*
X115715255Y-117528378D01*
X115744519Y-117528378D01*
X115771555Y-117517179D01*
X115792247Y-117496487D01*
X115803446Y-117469451D01*
X115804887Y-117454819D01*
X115804887Y-117006009D01*
X116226315Y-117006009D01*
X116226315Y-117454819D01*
X116227756Y-117469451D01*
X116238955Y-117496487D01*
X116259647Y-117517179D01*
X116286683Y-117528378D01*
X116315947Y-117528378D01*
X116342983Y-117517179D01*
X116363675Y-117496487D01*
X116374874Y-117469451D01*
X116376315Y-117454819D01*
X116376315Y-116454819D01*
X116374874Y-116440187D01*
X116561090Y-116440187D01*
X116561090Y-116469451D01*
X116572289Y-116496487D01*
X116592981Y-116517179D01*
X116620017Y-116528378D01*
X116634649Y-116529819D01*
X116845363Y-116529819D01*
X116845363Y-117454819D01*
X116846804Y-117469451D01*
X116858003Y-117496487D01*
X116878695Y-117517179D01*
X116905731Y-117528378D01*
X116934995Y-117528378D01*
X116962031Y-117517179D01*
X116982723Y-117496487D01*
X116993922Y-117469451D01*
X116995363Y-117454819D01*
X116995363Y-116529819D01*
X117206077Y-116529819D01*
X117220709Y-116528378D01*
X117247745Y-116517179D01*
X117268437Y-116496487D01*
X117279636Y-116469451D01*
X117279636Y-116440187D01*
X117268437Y-116413151D01*
X117247745Y-116392459D01*
X117220709Y-116381260D01*
X117206077Y-116379819D01*
X116634649Y-116379819D01*
X116620017Y-116381260D01*
X116592981Y-116392459D01*
X116572289Y-116413151D01*
X116561090Y-116440187D01*
X116374874Y-116440187D01*
X116363675Y-116413151D01*
X116342983Y-116392459D01*
X116315947Y-116381260D01*
X116286683Y-116381260D01*
X116259647Y-116392459D01*
X116238955Y-116413151D01*
X116227756Y-116440187D01*
X116226315Y-116454819D01*
X116226315Y-116856009D01*
X115804887Y-116856009D01*
X115804887Y-116454819D01*
X115803446Y-116440187D01*
X115792247Y-116413151D01*
X115771555Y-116392459D01*
X115744519Y-116381260D01*
X115715255Y-116381260D01*
X115688219Y-116392459D01*
X115667527Y-116413151D01*
X115656328Y-116440187D01*
X115654887Y-116454819D01*
X115309767Y-116454819D01*
X115299680Y-116443188D01*
X115287237Y-116435356D01*
X115191999Y-116387737D01*
X115178267Y-116382482D01*
X115175579Y-116382291D01*
X115173090Y-116381260D01*
X115158458Y-116379819D01*
X115015601Y-116379819D01*
X115008194Y-116380548D01*
X115006220Y-116380408D01*
X115003622Y-116380998D01*
X115000969Y-116381260D01*
X114999138Y-116382018D01*
X114991883Y-116383668D01*
X114849027Y-116431287D01*
X114835601Y-116437281D01*
X114833566Y-116439045D01*
X114831076Y-116440077D01*
X114819711Y-116449405D01*
X114724473Y-116544643D01*
X114719754Y-116550392D01*
X114718256Y-116551692D01*
X114716834Y-116553951D01*
X114715146Y-116556008D01*
X114714388Y-116557835D01*
X114710424Y-116564135D01*
X114662805Y-116659373D01*
X114662395Y-116660442D01*
X114662073Y-116660878D01*
X114659877Y-116667023D01*
X114657550Y-116673105D01*
X114657511Y-116673644D01*
X114657126Y-116674724D01*
X114609507Y-116865200D01*
X114609131Y-116867736D01*
X114608709Y-116868758D01*
X114608166Y-116874270D01*
X114607357Y-116879744D01*
X114607519Y-116880836D01*
X114607268Y-116883390D01*
X114328697Y-116883390D01*
X114328697Y-116454819D01*
X114327256Y-116440187D01*
X114316057Y-116413151D01*
X114295365Y-116392459D01*
X114268329Y-116381260D01*
X114239065Y-116381260D01*
X114212029Y-116392459D01*
X114191337Y-116413151D01*
X114180138Y-116440187D01*
X114178697Y-116454819D01*
X113788334Y-116454819D01*
X113782920Y-116449405D01*
X113777170Y-116444686D01*
X113775871Y-116443188D01*
X113773611Y-116441766D01*
X113771555Y-116440078D01*
X113769727Y-116439320D01*
X113763428Y-116435356D01*
X113668190Y-116387737D01*
X113654458Y-116382482D01*
X113651770Y-116382291D01*
X113649281Y-116381260D01*
X113634649Y-116379819D01*
X113253697Y-116379819D01*
X113239065Y-116381260D01*
X113212029Y-116392459D01*
X113191337Y-116413151D01*
X113180138Y-116440187D01*
X113178697Y-116454819D01*
X113067586Y-116454819D01*
X113067586Y-116268708D01*
X117390747Y-116268708D01*
X117390747Y-117640930D01*
G37*
X134833333Y-122359580D02*
X134785714Y-122407200D01*
X134785714Y-122407200D02*
X134642857Y-122454819D01*
X134642857Y-122454819D02*
X134547619Y-122454819D01*
X134547619Y-122454819D02*
X134404762Y-122407200D01*
X134404762Y-122407200D02*
X134309524Y-122311961D01*
X134309524Y-122311961D02*
X134261905Y-122216723D01*
X134261905Y-122216723D02*
X134214286Y-122026247D01*
X134214286Y-122026247D02*
X134214286Y-121883390D01*
X134214286Y-121883390D02*
X134261905Y-121692914D01*
X134261905Y-121692914D02*
X134309524Y-121597676D01*
X134309524Y-121597676D02*
X134404762Y-121502438D01*
X134404762Y-121502438D02*
X134547619Y-121454819D01*
X134547619Y-121454819D02*
X134642857Y-121454819D01*
X134642857Y-121454819D02*
X134785714Y-121502438D01*
X134785714Y-121502438D02*
X134833333Y-121550057D01*
X135738095Y-121454819D02*
X135261905Y-121454819D01*
X135261905Y-121454819D02*
X135214286Y-121931009D01*
X135214286Y-121931009D02*
X135261905Y-121883390D01*
X135261905Y-121883390D02*
X135357143Y-121835771D01*
X135357143Y-121835771D02*
X135595238Y-121835771D01*
X135595238Y-121835771D02*
X135690476Y-121883390D01*
X135690476Y-121883390D02*
X135738095Y-121931009D01*
X135738095Y-121931009D02*
X135785714Y-122026247D01*
X135785714Y-122026247D02*
X135785714Y-122264342D01*
X135785714Y-122264342D02*
X135738095Y-122359580D01*
X135738095Y-122359580D02*
X135690476Y-122407200D01*
X135690476Y-122407200D02*
X135595238Y-122454819D01*
X135595238Y-122454819D02*
X135357143Y-122454819D01*
X135357143Y-122454819D02*
X135261905Y-122407200D01*
X135261905Y-122407200D02*
X135214286Y-122359580D01*
X133333333Y-129954819D02*
X133000000Y-129478628D01*
X132761905Y-129954819D02*
X132761905Y-128954819D01*
X132761905Y-128954819D02*
X133142857Y-128954819D01*
X133142857Y-128954819D02*
X133238095Y-129002438D01*
X133238095Y-129002438D02*
X133285714Y-129050057D01*
X133285714Y-129050057D02*
X133333333Y-129145295D01*
X133333333Y-129145295D02*
X133333333Y-129288152D01*
X133333333Y-129288152D02*
X133285714Y-129383390D01*
X133285714Y-129383390D02*
X133238095Y-129431009D01*
X133238095Y-129431009D02*
X133142857Y-129478628D01*
X133142857Y-129478628D02*
X132761905Y-129478628D01*
X134190476Y-129288152D02*
X134190476Y-129954819D01*
X133952381Y-128907200D02*
X133714286Y-129621485D01*
X133714286Y-129621485D02*
X134333333Y-129621485D01*
X104407200Y-128333332D02*
X104454819Y-128190475D01*
X104454819Y-128190475D02*
X104454819Y-127952380D01*
X104454819Y-127952380D02*
X104407200Y-127857142D01*
X104407200Y-127857142D02*
X104359580Y-127809523D01*
X104359580Y-127809523D02*
X104264342Y-127761904D01*
X104264342Y-127761904D02*
X104169104Y-127761904D01*
X104169104Y-127761904D02*
X104073866Y-127809523D01*
X104073866Y-127809523D02*
X104026247Y-127857142D01*
X104026247Y-127857142D02*
X103978628Y-127952380D01*
X103978628Y-127952380D02*
X103931009Y-128142856D01*
X103931009Y-128142856D02*
X103883390Y-128238094D01*
X103883390Y-128238094D02*
X103835771Y-128285713D01*
X103835771Y-128285713D02*
X103740533Y-128333332D01*
X103740533Y-128333332D02*
X103645295Y-128333332D01*
X103645295Y-128333332D02*
X103550057Y-128285713D01*
X103550057Y-128285713D02*
X103502438Y-128238094D01*
X103502438Y-128238094D02*
X103454819Y-128142856D01*
X103454819Y-128142856D02*
X103454819Y-127904761D01*
X103454819Y-127904761D02*
X103502438Y-127761904D01*
X103454819Y-127428570D02*
X104454819Y-127190475D01*
X104454819Y-127190475D02*
X103740533Y-126999999D01*
X103740533Y-126999999D02*
X104454819Y-126809523D01*
X104454819Y-126809523D02*
X103454819Y-126571428D01*
X103454819Y-125714285D02*
X103454819Y-126190475D01*
X103454819Y-126190475D02*
X103931009Y-126238094D01*
X103931009Y-126238094D02*
X103883390Y-126190475D01*
X103883390Y-126190475D02*
X103835771Y-126095237D01*
X103835771Y-126095237D02*
X103835771Y-125857142D01*
X103835771Y-125857142D02*
X103883390Y-125761904D01*
X103883390Y-125761904D02*
X103931009Y-125714285D01*
X103931009Y-125714285D02*
X104026247Y-125666666D01*
X104026247Y-125666666D02*
X104264342Y-125666666D01*
X104264342Y-125666666D02*
X104359580Y-125714285D01*
X104359580Y-125714285D02*
X104407200Y-125761904D01*
X104407200Y-125761904D02*
X104454819Y-125857142D01*
X104454819Y-125857142D02*
X104454819Y-126095237D01*
X104454819Y-126095237D02*
X104407200Y-126190475D01*
X104407200Y-126190475D02*
X104359580Y-126238094D01*
X134833333Y-145454819D02*
X134500000Y-144978628D01*
X134261905Y-145454819D02*
X134261905Y-144454819D01*
X134261905Y-144454819D02*
X134642857Y-144454819D01*
X134642857Y-144454819D02*
X134738095Y-144502438D01*
X134738095Y-144502438D02*
X134785714Y-144550057D01*
X134785714Y-144550057D02*
X134833333Y-144645295D01*
X134833333Y-144645295D02*
X134833333Y-144788152D01*
X134833333Y-144788152D02*
X134785714Y-144883390D01*
X134785714Y-144883390D02*
X134738095Y-144931009D01*
X134738095Y-144931009D02*
X134642857Y-144978628D01*
X134642857Y-144978628D02*
X134261905Y-144978628D01*
X135738095Y-144454819D02*
X135261905Y-144454819D01*
X135261905Y-144454819D02*
X135214286Y-144931009D01*
X135214286Y-144931009D02*
X135261905Y-144883390D01*
X135261905Y-144883390D02*
X135357143Y-144835771D01*
X135357143Y-144835771D02*
X135595238Y-144835771D01*
X135595238Y-144835771D02*
X135690476Y-144883390D01*
X135690476Y-144883390D02*
X135738095Y-144931009D01*
X135738095Y-144931009D02*
X135785714Y-145026247D01*
X135785714Y-145026247D02*
X135785714Y-145264342D01*
X135785714Y-145264342D02*
X135738095Y-145359580D01*
X135738095Y-145359580D02*
X135690476Y-145407200D01*
X135690476Y-145407200D02*
X135595238Y-145454819D01*
X135595238Y-145454819D02*
X135357143Y-145454819D01*
X135357143Y-145454819D02*
X135261905Y-145407200D01*
X135261905Y-145407200D02*
X135214286Y-145359580D01*
X130454819Y-119261904D02*
X131264342Y-119261904D01*
X131264342Y-119261904D02*
X131359580Y-119214285D01*
X131359580Y-119214285D02*
X131407200Y-119166666D01*
X131407200Y-119166666D02*
X131454819Y-119071428D01*
X131454819Y-119071428D02*
X131454819Y-118880952D01*
X131454819Y-118880952D02*
X131407200Y-118785714D01*
X131407200Y-118785714D02*
X131359580Y-118738095D01*
X131359580Y-118738095D02*
X131264342Y-118690476D01*
X131264342Y-118690476D02*
X130454819Y-118690476D01*
X130454819Y-117738095D02*
X130454819Y-118214285D01*
X130454819Y-118214285D02*
X130931009Y-118261904D01*
X130931009Y-118261904D02*
X130883390Y-118214285D01*
X130883390Y-118214285D02*
X130835771Y-118119047D01*
X130835771Y-118119047D02*
X130835771Y-117880952D01*
X130835771Y-117880952D02*
X130883390Y-117785714D01*
X130883390Y-117785714D02*
X130931009Y-117738095D01*
X130931009Y-117738095D02*
X131026247Y-117690476D01*
X131026247Y-117690476D02*
X131264342Y-117690476D01*
X131264342Y-117690476D02*
X131359580Y-117738095D01*
X131359580Y-117738095D02*
X131407200Y-117785714D01*
X131407200Y-117785714D02*
X131454819Y-117880952D01*
X131454819Y-117880952D02*
X131454819Y-118119047D01*
X131454819Y-118119047D02*
X131407200Y-118214285D01*
X131407200Y-118214285D02*
X131359580Y-118261904D01*
X133404761Y-133050057D02*
X133309523Y-133002438D01*
X133309523Y-133002438D02*
X133214285Y-132907200D01*
X133214285Y-132907200D02*
X133071428Y-132764342D01*
X133071428Y-132764342D02*
X132976190Y-132716723D01*
X132976190Y-132716723D02*
X132880952Y-132716723D01*
X132928571Y-132954819D02*
X132833333Y-132907200D01*
X132833333Y-132907200D02*
X132738095Y-132811961D01*
X132738095Y-132811961D02*
X132690476Y-132621485D01*
X132690476Y-132621485D02*
X132690476Y-132288152D01*
X132690476Y-132288152D02*
X132738095Y-132097676D01*
X132738095Y-132097676D02*
X132833333Y-132002438D01*
X132833333Y-132002438D02*
X132928571Y-131954819D01*
X132928571Y-131954819D02*
X133119047Y-131954819D01*
X133119047Y-131954819D02*
X133214285Y-132002438D01*
X133214285Y-132002438D02*
X133309523Y-132097676D01*
X133309523Y-132097676D02*
X133357142Y-132288152D01*
X133357142Y-132288152D02*
X133357142Y-132621485D01*
X133357142Y-132621485D02*
X133309523Y-132811961D01*
X133309523Y-132811961D02*
X133214285Y-132907200D01*
X133214285Y-132907200D02*
X133119047Y-132954819D01*
X133119047Y-132954819D02*
X132928571Y-132954819D01*
X133738095Y-132050057D02*
X133785714Y-132002438D01*
X133785714Y-132002438D02*
X133880952Y-131954819D01*
X133880952Y-131954819D02*
X134119047Y-131954819D01*
X134119047Y-131954819D02*
X134214285Y-132002438D01*
X134214285Y-132002438D02*
X134261904Y-132050057D01*
X134261904Y-132050057D02*
X134309523Y-132145295D01*
X134309523Y-132145295D02*
X134309523Y-132240533D01*
X134309523Y-132240533D02*
X134261904Y-132383390D01*
X134261904Y-132383390D02*
X133690476Y-132954819D01*
X133690476Y-132954819D02*
X134309523Y-132954819D01*
X130738095Y-148954819D02*
X130738095Y-149764342D01*
X130738095Y-149764342D02*
X130785714Y-149859580D01*
X130785714Y-149859580D02*
X130833333Y-149907200D01*
X130833333Y-149907200D02*
X130928571Y-149954819D01*
X130928571Y-149954819D02*
X131119047Y-149954819D01*
X131119047Y-149954819D02*
X131214285Y-149907200D01*
X131214285Y-149907200D02*
X131261904Y-149859580D01*
X131261904Y-149859580D02*
X131309523Y-149764342D01*
X131309523Y-149764342D02*
X131309523Y-148954819D01*
X131690476Y-148954819D02*
X132309523Y-148954819D01*
X132309523Y-148954819D02*
X131976190Y-149335771D01*
X131976190Y-149335771D02*
X132119047Y-149335771D01*
X132119047Y-149335771D02*
X132214285Y-149383390D01*
X132214285Y-149383390D02*
X132261904Y-149431009D01*
X132261904Y-149431009D02*
X132309523Y-149526247D01*
X132309523Y-149526247D02*
X132309523Y-149764342D01*
X132309523Y-149764342D02*
X132261904Y-149859580D01*
X132261904Y-149859580D02*
X132214285Y-149907200D01*
X132214285Y-149907200D02*
X132119047Y-149954819D01*
X132119047Y-149954819D02*
X131833333Y-149954819D01*
X131833333Y-149954819D02*
X131738095Y-149907200D01*
X131738095Y-149907200D02*
X131690476Y-149859580D01*
X134261905Y-143454819D02*
X134261905Y-142454819D01*
X134261905Y-142454819D02*
X134500000Y-142454819D01*
X134500000Y-142454819D02*
X134642857Y-142502438D01*
X134642857Y-142502438D02*
X134738095Y-142597676D01*
X134738095Y-142597676D02*
X134785714Y-142692914D01*
X134785714Y-142692914D02*
X134833333Y-142883390D01*
X134833333Y-142883390D02*
X134833333Y-143026247D01*
X134833333Y-143026247D02*
X134785714Y-143216723D01*
X134785714Y-143216723D02*
X134738095Y-143311961D01*
X134738095Y-143311961D02*
X134642857Y-143407200D01*
X134642857Y-143407200D02*
X134500000Y-143454819D01*
X134500000Y-143454819D02*
X134261905Y-143454819D01*
X135166667Y-142454819D02*
X135785714Y-142454819D01*
X135785714Y-142454819D02*
X135452381Y-142835771D01*
X135452381Y-142835771D02*
X135595238Y-142835771D01*
X135595238Y-142835771D02*
X135690476Y-142883390D01*
X135690476Y-142883390D02*
X135738095Y-142931009D01*
X135738095Y-142931009D02*
X135785714Y-143026247D01*
X135785714Y-143026247D02*
X135785714Y-143264342D01*
X135785714Y-143264342D02*
X135738095Y-143359580D01*
X135738095Y-143359580D02*
X135690476Y-143407200D01*
X135690476Y-143407200D02*
X135595238Y-143454819D01*
X135595238Y-143454819D02*
X135309524Y-143454819D01*
X135309524Y-143454819D02*
X135214286Y-143407200D01*
X135214286Y-143407200D02*
X135166667Y-143359580D01*
X127454819Y-125216666D02*
X126978628Y-125549999D01*
X127454819Y-125788094D02*
X126454819Y-125788094D01*
X126454819Y-125788094D02*
X126454819Y-125407142D01*
X126454819Y-125407142D02*
X126502438Y-125311904D01*
X126502438Y-125311904D02*
X126550057Y-125264285D01*
X126550057Y-125264285D02*
X126645295Y-125216666D01*
X126645295Y-125216666D02*
X126788152Y-125216666D01*
X126788152Y-125216666D02*
X126883390Y-125264285D01*
X126883390Y-125264285D02*
X126931009Y-125311904D01*
X126931009Y-125311904D02*
X126978628Y-125407142D01*
X126978628Y-125407142D02*
X126978628Y-125788094D01*
X126883390Y-124645237D02*
X126835771Y-124740475D01*
X126835771Y-124740475D02*
X126788152Y-124788094D01*
X126788152Y-124788094D02*
X126692914Y-124835713D01*
X126692914Y-124835713D02*
X126645295Y-124835713D01*
X126645295Y-124835713D02*
X126550057Y-124788094D01*
X126550057Y-124788094D02*
X126502438Y-124740475D01*
X126502438Y-124740475D02*
X126454819Y-124645237D01*
X126454819Y-124645237D02*
X126454819Y-124454761D01*
X126454819Y-124454761D02*
X126502438Y-124359523D01*
X126502438Y-124359523D02*
X126550057Y-124311904D01*
X126550057Y-124311904D02*
X126645295Y-124264285D01*
X126645295Y-124264285D02*
X126692914Y-124264285D01*
X126692914Y-124264285D02*
X126788152Y-124311904D01*
X126788152Y-124311904D02*
X126835771Y-124359523D01*
X126835771Y-124359523D02*
X126883390Y-124454761D01*
X126883390Y-124454761D02*
X126883390Y-124645237D01*
X126883390Y-124645237D02*
X126931009Y-124740475D01*
X126931009Y-124740475D02*
X126978628Y-124788094D01*
X126978628Y-124788094D02*
X127073866Y-124835713D01*
X127073866Y-124835713D02*
X127264342Y-124835713D01*
X127264342Y-124835713D02*
X127359580Y-124788094D01*
X127359580Y-124788094D02*
X127407200Y-124740475D01*
X127407200Y-124740475D02*
X127454819Y-124645237D01*
X127454819Y-124645237D02*
X127454819Y-124454761D01*
X127454819Y-124454761D02*
X127407200Y-124359523D01*
X127407200Y-124359523D02*
X127359580Y-124311904D01*
X127359580Y-124311904D02*
X127264342Y-124264285D01*
X127264342Y-124264285D02*
X127073866Y-124264285D01*
X127073866Y-124264285D02*
X126978628Y-124311904D01*
X126978628Y-124311904D02*
X126931009Y-124359523D01*
X126931009Y-124359523D02*
X126883390Y-124454761D01*
X128454819Y-118666666D02*
X127978628Y-118999999D01*
X128454819Y-119238094D02*
X127454819Y-119238094D01*
X127454819Y-119238094D02*
X127454819Y-118857142D01*
X127454819Y-118857142D02*
X127502438Y-118761904D01*
X127502438Y-118761904D02*
X127550057Y-118714285D01*
X127550057Y-118714285D02*
X127645295Y-118666666D01*
X127645295Y-118666666D02*
X127788152Y-118666666D01*
X127788152Y-118666666D02*
X127883390Y-118714285D01*
X127883390Y-118714285D02*
X127931009Y-118761904D01*
X127931009Y-118761904D02*
X127978628Y-118857142D01*
X127978628Y-118857142D02*
X127978628Y-119238094D01*
X127454819Y-117809523D02*
X127454819Y-117999999D01*
X127454819Y-117999999D02*
X127502438Y-118095237D01*
X127502438Y-118095237D02*
X127550057Y-118142856D01*
X127550057Y-118142856D02*
X127692914Y-118238094D01*
X127692914Y-118238094D02*
X127883390Y-118285713D01*
X127883390Y-118285713D02*
X128264342Y-118285713D01*
X128264342Y-118285713D02*
X128359580Y-118238094D01*
X128359580Y-118238094D02*
X128407200Y-118190475D01*
X128407200Y-118190475D02*
X128454819Y-118095237D01*
X128454819Y-118095237D02*
X128454819Y-117904761D01*
X128454819Y-117904761D02*
X128407200Y-117809523D01*
X128407200Y-117809523D02*
X128359580Y-117761904D01*
X128359580Y-117761904D02*
X128264342Y-117714285D01*
X128264342Y-117714285D02*
X128026247Y-117714285D01*
X128026247Y-117714285D02*
X127931009Y-117761904D01*
X127931009Y-117761904D02*
X127883390Y-117809523D01*
X127883390Y-117809523D02*
X127835771Y-117904761D01*
X127835771Y-117904761D02*
X127835771Y-118095237D01*
X127835771Y-118095237D02*
X127883390Y-118190475D01*
X127883390Y-118190475D02*
X127931009Y-118238094D01*
X127931009Y-118238094D02*
X128026247Y-118285713D01*
X139904761Y-140231307D02*
X139809523Y-140183688D01*
X139809523Y-140183688D02*
X139714285Y-140088450D01*
X139714285Y-140088450D02*
X139571428Y-139945592D01*
X139571428Y-139945592D02*
X139476190Y-139897973D01*
X139476190Y-139897973D02*
X139380952Y-139897973D01*
X139428571Y-140136069D02*
X139333333Y-140088450D01*
X139333333Y-140088450D02*
X139238095Y-139993211D01*
X139238095Y-139993211D02*
X139190476Y-139802735D01*
X139190476Y-139802735D02*
X139190476Y-139469402D01*
X139190476Y-139469402D02*
X139238095Y-139278926D01*
X139238095Y-139278926D02*
X139333333Y-139183688D01*
X139333333Y-139183688D02*
X139428571Y-139136069D01*
X139428571Y-139136069D02*
X139619047Y-139136069D01*
X139619047Y-139136069D02*
X139714285Y-139183688D01*
X139714285Y-139183688D02*
X139809523Y-139278926D01*
X139809523Y-139278926D02*
X139857142Y-139469402D01*
X139857142Y-139469402D02*
X139857142Y-139802735D01*
X139857142Y-139802735D02*
X139809523Y-139993211D01*
X139809523Y-139993211D02*
X139714285Y-140088450D01*
X139714285Y-140088450D02*
X139619047Y-140136069D01*
X139619047Y-140136069D02*
X139428571Y-140136069D01*
X140190476Y-139136069D02*
X140809523Y-139136069D01*
X140809523Y-139136069D02*
X140476190Y-139517021D01*
X140476190Y-139517021D02*
X140619047Y-139517021D01*
X140619047Y-139517021D02*
X140714285Y-139564640D01*
X140714285Y-139564640D02*
X140761904Y-139612259D01*
X140761904Y-139612259D02*
X140809523Y-139707497D01*
X140809523Y-139707497D02*
X140809523Y-139945592D01*
X140809523Y-139945592D02*
X140761904Y-140040830D01*
X140761904Y-140040830D02*
X140714285Y-140088450D01*
X140714285Y-140088450D02*
X140619047Y-140136069D01*
X140619047Y-140136069D02*
X140333333Y-140136069D01*
X140333333Y-140136069D02*
X140238095Y-140088450D01*
X140238095Y-140088450D02*
X140190476Y-140040830D01*
X118666667Y-111407200D02*
X118809524Y-111454819D01*
X118809524Y-111454819D02*
X119047619Y-111454819D01*
X119047619Y-111454819D02*
X119142857Y-111407200D01*
X119142857Y-111407200D02*
X119190476Y-111359580D01*
X119190476Y-111359580D02*
X119238095Y-111264342D01*
X119238095Y-111264342D02*
X119238095Y-111169104D01*
X119238095Y-111169104D02*
X119190476Y-111073866D01*
X119190476Y-111073866D02*
X119142857Y-111026247D01*
X119142857Y-111026247D02*
X119047619Y-110978628D01*
X119047619Y-110978628D02*
X118857143Y-110931009D01*
X118857143Y-110931009D02*
X118761905Y-110883390D01*
X118761905Y-110883390D02*
X118714286Y-110835771D01*
X118714286Y-110835771D02*
X118666667Y-110740533D01*
X118666667Y-110740533D02*
X118666667Y-110645295D01*
X118666667Y-110645295D02*
X118714286Y-110550057D01*
X118714286Y-110550057D02*
X118761905Y-110502438D01*
X118761905Y-110502438D02*
X118857143Y-110454819D01*
X118857143Y-110454819D02*
X119095238Y-110454819D01*
X119095238Y-110454819D02*
X119238095Y-110502438D01*
X119571429Y-110454819D02*
X119809524Y-111454819D01*
X119809524Y-111454819D02*
X120000000Y-110740533D01*
X120000000Y-110740533D02*
X120190476Y-111454819D01*
X120190476Y-111454819D02*
X120428572Y-110454819D01*
X120714286Y-110454819D02*
X121333333Y-110454819D01*
X121333333Y-110454819D02*
X121000000Y-110835771D01*
X121000000Y-110835771D02*
X121142857Y-110835771D01*
X121142857Y-110835771D02*
X121238095Y-110883390D01*
X121238095Y-110883390D02*
X121285714Y-110931009D01*
X121285714Y-110931009D02*
X121333333Y-111026247D01*
X121333333Y-111026247D02*
X121333333Y-111264342D01*
X121333333Y-111264342D02*
X121285714Y-111359580D01*
X121285714Y-111359580D02*
X121238095Y-111407200D01*
X121238095Y-111407200D02*
X121142857Y-111454819D01*
X121142857Y-111454819D02*
X120857143Y-111454819D01*
X120857143Y-111454819D02*
X120761905Y-111407200D01*
X120761905Y-111407200D02*
X120714286Y-111359580D01*
X128904761Y-133050057D02*
X128809523Y-133002438D01*
X128809523Y-133002438D02*
X128714285Y-132907200D01*
X128714285Y-132907200D02*
X128571428Y-132764342D01*
X128571428Y-132764342D02*
X128476190Y-132716723D01*
X128476190Y-132716723D02*
X128380952Y-132716723D01*
X128428571Y-132954819D02*
X128333333Y-132907200D01*
X128333333Y-132907200D02*
X128238095Y-132811961D01*
X128238095Y-132811961D02*
X128190476Y-132621485D01*
X128190476Y-132621485D02*
X128190476Y-132288152D01*
X128190476Y-132288152D02*
X128238095Y-132097676D01*
X128238095Y-132097676D02*
X128333333Y-132002438D01*
X128333333Y-132002438D02*
X128428571Y-131954819D01*
X128428571Y-131954819D02*
X128619047Y-131954819D01*
X128619047Y-131954819D02*
X128714285Y-132002438D01*
X128714285Y-132002438D02*
X128809523Y-132097676D01*
X128809523Y-132097676D02*
X128857142Y-132288152D01*
X128857142Y-132288152D02*
X128857142Y-132621485D01*
X128857142Y-132621485D02*
X128809523Y-132811961D01*
X128809523Y-132811961D02*
X128714285Y-132907200D01*
X128714285Y-132907200D02*
X128619047Y-132954819D01*
X128619047Y-132954819D02*
X128428571Y-132954819D01*
X129809523Y-132954819D02*
X129238095Y-132954819D01*
X129523809Y-132954819D02*
X129523809Y-131954819D01*
X129523809Y-131954819D02*
X129428571Y-132097676D01*
X129428571Y-132097676D02*
X129333333Y-132192914D01*
X129333333Y-132192914D02*
X129238095Y-132240533D01*
X133238095Y-101854819D02*
X133238095Y-102664342D01*
X133238095Y-102664342D02*
X133285714Y-102759580D01*
X133285714Y-102759580D02*
X133333333Y-102807200D01*
X133333333Y-102807200D02*
X133428571Y-102854819D01*
X133428571Y-102854819D02*
X133619047Y-102854819D01*
X133619047Y-102854819D02*
X133714285Y-102807200D01*
X133714285Y-102807200D02*
X133761904Y-102759580D01*
X133761904Y-102759580D02*
X133809523Y-102664342D01*
X133809523Y-102664342D02*
X133809523Y-101854819D01*
X134809523Y-102854819D02*
X134238095Y-102854819D01*
X134523809Y-102854819D02*
X134523809Y-101854819D01*
X134523809Y-101854819D02*
X134428571Y-101997676D01*
X134428571Y-101997676D02*
X134333333Y-102092914D01*
X134333333Y-102092914D02*
X134238095Y-102140533D01*
D11*
X116402380Y-86517219D02*
X115830952Y-86517219D01*
X116116666Y-86517219D02*
X116116666Y-85517219D01*
X116116666Y-85517219D02*
X116021428Y-85660076D01*
X116021428Y-85660076D02*
X115926190Y-85755314D01*
X115926190Y-85755314D02*
X115830952Y-85802933D01*
X116830952Y-86421980D02*
X116878571Y-86469600D01*
X116878571Y-86469600D02*
X116830952Y-86517219D01*
X116830952Y-86517219D02*
X116783333Y-86469600D01*
X116783333Y-86469600D02*
X116830952Y-86421980D01*
X116830952Y-86421980D02*
X116830952Y-86517219D01*
X117211904Y-85517219D02*
X117830951Y-85517219D01*
X117830951Y-85517219D02*
X117497618Y-85898171D01*
X117497618Y-85898171D02*
X117640475Y-85898171D01*
X117640475Y-85898171D02*
X117735713Y-85945790D01*
X117735713Y-85945790D02*
X117783332Y-85993409D01*
X117783332Y-85993409D02*
X117830951Y-86088647D01*
X117830951Y-86088647D02*
X117830951Y-86326742D01*
X117830951Y-86326742D02*
X117783332Y-86421980D01*
X117783332Y-86421980D02*
X117735713Y-86469600D01*
X117735713Y-86469600D02*
X117640475Y-86517219D01*
X117640475Y-86517219D02*
X117354761Y-86517219D01*
X117354761Y-86517219D02*
X117259523Y-86469600D01*
X117259523Y-86469600D02*
X117211904Y-86421980D01*
X118449999Y-85517219D02*
X118545237Y-85517219D01*
X118545237Y-85517219D02*
X118640475Y-85564838D01*
X118640475Y-85564838D02*
X118688094Y-85612457D01*
X118688094Y-85612457D02*
X118735713Y-85707695D01*
X118735713Y-85707695D02*
X118783332Y-85898171D01*
X118783332Y-85898171D02*
X118783332Y-86136266D01*
X118783332Y-86136266D02*
X118735713Y-86326742D01*
X118735713Y-86326742D02*
X118688094Y-86421980D01*
X118688094Y-86421980D02*
X118640475Y-86469600D01*
X118640475Y-86469600D02*
X118545237Y-86517219D01*
X118545237Y-86517219D02*
X118449999Y-86517219D01*
X118449999Y-86517219D02*
X118354761Y-86469600D01*
X118354761Y-86469600D02*
X118307142Y-86421980D01*
X118307142Y-86421980D02*
X118259523Y-86326742D01*
X118259523Y-86326742D02*
X118211904Y-86136266D01*
X118211904Y-86136266D02*
X118211904Y-85898171D01*
X118211904Y-85898171D02*
X118259523Y-85707695D01*
X118259523Y-85707695D02*
X118307142Y-85612457D01*
X118307142Y-85612457D02*
X118354761Y-85564838D01*
X118354761Y-85564838D02*
X118449999Y-85517219D01*
X119164285Y-85517219D02*
X119164285Y-85707695D01*
X119545237Y-85517219D02*
X119545237Y-85707695D01*
X120926190Y-85517219D02*
X121116666Y-85517219D01*
X121116666Y-85517219D02*
X121211904Y-85564838D01*
X121211904Y-85564838D02*
X121307142Y-85660076D01*
X121307142Y-85660076D02*
X121354761Y-85850552D01*
X121354761Y-85850552D02*
X121354761Y-86183885D01*
X121354761Y-86183885D02*
X121307142Y-86374361D01*
X121307142Y-86374361D02*
X121211904Y-86469600D01*
X121211904Y-86469600D02*
X121116666Y-86517219D01*
X121116666Y-86517219D02*
X120926190Y-86517219D01*
X120926190Y-86517219D02*
X120830952Y-86469600D01*
X120830952Y-86469600D02*
X120735714Y-86374361D01*
X120735714Y-86374361D02*
X120688095Y-86183885D01*
X120688095Y-86183885D02*
X120688095Y-85850552D01*
X120688095Y-85850552D02*
X120735714Y-85660076D01*
X120735714Y-85660076D02*
X120830952Y-85564838D01*
X120830952Y-85564838D02*
X120926190Y-85517219D01*
X122259523Y-86517219D02*
X121783333Y-86517219D01*
X121783333Y-86517219D02*
X121783333Y-85517219D01*
X122592857Y-85993409D02*
X122926190Y-85993409D01*
X123069047Y-86517219D02*
X122592857Y-86517219D01*
X122592857Y-86517219D02*
X122592857Y-85517219D01*
X122592857Y-85517219D02*
X123069047Y-85517219D01*
X123497619Y-86517219D02*
X123497619Y-85517219D01*
X123497619Y-85517219D02*
X123735714Y-85517219D01*
X123735714Y-85517219D02*
X123878571Y-85564838D01*
X123878571Y-85564838D02*
X123973809Y-85660076D01*
X123973809Y-85660076D02*
X124021428Y-85755314D01*
X124021428Y-85755314D02*
X124069047Y-85945790D01*
X124069047Y-85945790D02*
X124069047Y-86088647D01*
X124069047Y-86088647D02*
X124021428Y-86279123D01*
X124021428Y-86279123D02*
X123973809Y-86374361D01*
X123973809Y-86374361D02*
X123878571Y-86469600D01*
X123878571Y-86469600D02*
X123735714Y-86517219D01*
X123735714Y-86517219D02*
X123497619Y-86517219D01*
D10*
X124833333Y-139954819D02*
X124500000Y-139478628D01*
X124261905Y-139954819D02*
X124261905Y-138954819D01*
X124261905Y-138954819D02*
X124642857Y-138954819D01*
X124642857Y-138954819D02*
X124738095Y-139002438D01*
X124738095Y-139002438D02*
X124785714Y-139050057D01*
X124785714Y-139050057D02*
X124833333Y-139145295D01*
X124833333Y-139145295D02*
X124833333Y-139288152D01*
X124833333Y-139288152D02*
X124785714Y-139383390D01*
X124785714Y-139383390D02*
X124738095Y-139431009D01*
X124738095Y-139431009D02*
X124642857Y-139478628D01*
X124642857Y-139478628D02*
X124261905Y-139478628D01*
X125785714Y-139954819D02*
X125214286Y-139954819D01*
X125500000Y-139954819D02*
X125500000Y-138954819D01*
X125500000Y-138954819D02*
X125404762Y-139097676D01*
X125404762Y-139097676D02*
X125309524Y-139192914D01*
X125309524Y-139192914D02*
X125214286Y-139240533D01*
X131833333Y-138454819D02*
X131500000Y-137978628D01*
X131261905Y-138454819D02*
X131261905Y-137454819D01*
X131261905Y-137454819D02*
X131642857Y-137454819D01*
X131642857Y-137454819D02*
X131738095Y-137502438D01*
X131738095Y-137502438D02*
X131785714Y-137550057D01*
X131785714Y-137550057D02*
X131833333Y-137645295D01*
X131833333Y-137645295D02*
X131833333Y-137788152D01*
X131833333Y-137788152D02*
X131785714Y-137883390D01*
X131785714Y-137883390D02*
X131738095Y-137931009D01*
X131738095Y-137931009D02*
X131642857Y-137978628D01*
X131642857Y-137978628D02*
X131261905Y-137978628D01*
X132214286Y-137550057D02*
X132261905Y-137502438D01*
X132261905Y-137502438D02*
X132357143Y-137454819D01*
X132357143Y-137454819D02*
X132595238Y-137454819D01*
X132595238Y-137454819D02*
X132690476Y-137502438D01*
X132690476Y-137502438D02*
X132738095Y-137550057D01*
X132738095Y-137550057D02*
X132785714Y-137645295D01*
X132785714Y-137645295D02*
X132785714Y-137740533D01*
X132785714Y-137740533D02*
X132738095Y-137883390D01*
X132738095Y-137883390D02*
X132166667Y-138454819D01*
X132166667Y-138454819D02*
X132785714Y-138454819D01*
X139407200Y-81333332D02*
X139454819Y-81190475D01*
X139454819Y-81190475D02*
X139454819Y-80952380D01*
X139454819Y-80952380D02*
X139407200Y-80857142D01*
X139407200Y-80857142D02*
X139359580Y-80809523D01*
X139359580Y-80809523D02*
X139264342Y-80761904D01*
X139264342Y-80761904D02*
X139169104Y-80761904D01*
X139169104Y-80761904D02*
X139073866Y-80809523D01*
X139073866Y-80809523D02*
X139026247Y-80857142D01*
X139026247Y-80857142D02*
X138978628Y-80952380D01*
X138978628Y-80952380D02*
X138931009Y-81142856D01*
X138931009Y-81142856D02*
X138883390Y-81238094D01*
X138883390Y-81238094D02*
X138835771Y-81285713D01*
X138835771Y-81285713D02*
X138740533Y-81333332D01*
X138740533Y-81333332D02*
X138645295Y-81333332D01*
X138645295Y-81333332D02*
X138550057Y-81285713D01*
X138550057Y-81285713D02*
X138502438Y-81238094D01*
X138502438Y-81238094D02*
X138454819Y-81142856D01*
X138454819Y-81142856D02*
X138454819Y-80904761D01*
X138454819Y-80904761D02*
X138502438Y-80761904D01*
X138454819Y-80428570D02*
X139454819Y-80190475D01*
X139454819Y-80190475D02*
X138740533Y-79999999D01*
X138740533Y-79999999D02*
X139454819Y-79809523D01*
X139454819Y-79809523D02*
X138454819Y-79571428D01*
X139454819Y-78666666D02*
X139454819Y-79238094D01*
X139454819Y-78952380D02*
X138454819Y-78952380D01*
X138454819Y-78952380D02*
X138597676Y-79047618D01*
X138597676Y-79047618D02*
X138692914Y-79142856D01*
X138692914Y-79142856D02*
X138740533Y-79238094D01*
X128761905Y-129954819D02*
X128761905Y-128954819D01*
X128761905Y-128954819D02*
X129000000Y-128954819D01*
X129000000Y-128954819D02*
X129142857Y-129002438D01*
X129142857Y-129002438D02*
X129238095Y-129097676D01*
X129238095Y-129097676D02*
X129285714Y-129192914D01*
X129285714Y-129192914D02*
X129333333Y-129383390D01*
X129333333Y-129383390D02*
X129333333Y-129526247D01*
X129333333Y-129526247D02*
X129285714Y-129716723D01*
X129285714Y-129716723D02*
X129238095Y-129811961D01*
X129238095Y-129811961D02*
X129142857Y-129907200D01*
X129142857Y-129907200D02*
X129000000Y-129954819D01*
X129000000Y-129954819D02*
X128761905Y-129954819D01*
X129714286Y-129050057D02*
X129761905Y-129002438D01*
X129761905Y-129002438D02*
X129857143Y-128954819D01*
X129857143Y-128954819D02*
X130095238Y-128954819D01*
X130095238Y-128954819D02*
X130190476Y-129002438D01*
X130190476Y-129002438D02*
X130238095Y-129050057D01*
X130238095Y-129050057D02*
X130285714Y-129145295D01*
X130285714Y-129145295D02*
X130285714Y-129240533D01*
X130285714Y-129240533D02*
X130238095Y-129383390D01*
X130238095Y-129383390D02*
X129666667Y-129954819D01*
X129666667Y-129954819D02*
X130285714Y-129954819D01*
X139833333Y-132823569D02*
X139500000Y-132347378D01*
X139261905Y-132823569D02*
X139261905Y-131823569D01*
X139261905Y-131823569D02*
X139642857Y-131823569D01*
X139642857Y-131823569D02*
X139738095Y-131871188D01*
X139738095Y-131871188D02*
X139785714Y-131918807D01*
X139785714Y-131918807D02*
X139833333Y-132014045D01*
X139833333Y-132014045D02*
X139833333Y-132156902D01*
X139833333Y-132156902D02*
X139785714Y-132252140D01*
X139785714Y-132252140D02*
X139738095Y-132299759D01*
X139738095Y-132299759D02*
X139642857Y-132347378D01*
X139642857Y-132347378D02*
X139261905Y-132347378D01*
X140166667Y-131823569D02*
X140785714Y-131823569D01*
X140785714Y-131823569D02*
X140452381Y-132204521D01*
X140452381Y-132204521D02*
X140595238Y-132204521D01*
X140595238Y-132204521D02*
X140690476Y-132252140D01*
X140690476Y-132252140D02*
X140738095Y-132299759D01*
X140738095Y-132299759D02*
X140785714Y-132394997D01*
X140785714Y-132394997D02*
X140785714Y-132633092D01*
X140785714Y-132633092D02*
X140738095Y-132728330D01*
X140738095Y-132728330D02*
X140690476Y-132775950D01*
X140690476Y-132775950D02*
X140595238Y-132823569D01*
X140595238Y-132823569D02*
X140309524Y-132823569D01*
X140309524Y-132823569D02*
X140214286Y-132775950D01*
X140214286Y-132775950D02*
X140166667Y-132728330D01*
X129904761Y-109550057D02*
X129809523Y-109502438D01*
X129809523Y-109502438D02*
X129714285Y-109407200D01*
X129714285Y-109407200D02*
X129571428Y-109264342D01*
X129571428Y-109264342D02*
X129476190Y-109216723D01*
X129476190Y-109216723D02*
X129380952Y-109216723D01*
X129428571Y-109454819D02*
X129333333Y-109407200D01*
X129333333Y-109407200D02*
X129238095Y-109311961D01*
X129238095Y-109311961D02*
X129190476Y-109121485D01*
X129190476Y-109121485D02*
X129190476Y-108788152D01*
X129190476Y-108788152D02*
X129238095Y-108597676D01*
X129238095Y-108597676D02*
X129333333Y-108502438D01*
X129333333Y-108502438D02*
X129428571Y-108454819D01*
X129428571Y-108454819D02*
X129619047Y-108454819D01*
X129619047Y-108454819D02*
X129714285Y-108502438D01*
X129714285Y-108502438D02*
X129809523Y-108597676D01*
X129809523Y-108597676D02*
X129857142Y-108788152D01*
X129857142Y-108788152D02*
X129857142Y-109121485D01*
X129857142Y-109121485D02*
X129809523Y-109311961D01*
X129809523Y-109311961D02*
X129714285Y-109407200D01*
X129714285Y-109407200D02*
X129619047Y-109454819D01*
X129619047Y-109454819D02*
X129428571Y-109454819D01*
X130761904Y-108454819D02*
X130285714Y-108454819D01*
X130285714Y-108454819D02*
X130238095Y-108931009D01*
X130238095Y-108931009D02*
X130285714Y-108883390D01*
X130285714Y-108883390D02*
X130380952Y-108835771D01*
X130380952Y-108835771D02*
X130619047Y-108835771D01*
X130619047Y-108835771D02*
X130714285Y-108883390D01*
X130714285Y-108883390D02*
X130761904Y-108931009D01*
X130761904Y-108931009D02*
X130809523Y-109026247D01*
X130809523Y-109026247D02*
X130809523Y-109264342D01*
X130809523Y-109264342D02*
X130761904Y-109359580D01*
X130761904Y-109359580D02*
X130714285Y-109407200D01*
X130714285Y-109407200D02*
X130619047Y-109454819D01*
X130619047Y-109454819D02*
X130380952Y-109454819D01*
X130380952Y-109454819D02*
X130285714Y-109407200D01*
X130285714Y-109407200D02*
X130238095Y-109359580D01*
X139666666Y-126931009D02*
X139333333Y-126931009D01*
X139333333Y-127454819D02*
X139333333Y-126454819D01*
X139333333Y-126454819D02*
X139809523Y-126454819D01*
X140714285Y-127454819D02*
X140142857Y-127454819D01*
X140428571Y-127454819D02*
X140428571Y-126454819D01*
X140428571Y-126454819D02*
X140333333Y-126597676D01*
X140333333Y-126597676D02*
X140238095Y-126692914D01*
X140238095Y-126692914D02*
X140142857Y-126740533D01*
X133904761Y-109550057D02*
X133809523Y-109502438D01*
X133809523Y-109502438D02*
X133714285Y-109407200D01*
X133714285Y-109407200D02*
X133571428Y-109264342D01*
X133571428Y-109264342D02*
X133476190Y-109216723D01*
X133476190Y-109216723D02*
X133380952Y-109216723D01*
X133428571Y-109454819D02*
X133333333Y-109407200D01*
X133333333Y-109407200D02*
X133238095Y-109311961D01*
X133238095Y-109311961D02*
X133190476Y-109121485D01*
X133190476Y-109121485D02*
X133190476Y-108788152D01*
X133190476Y-108788152D02*
X133238095Y-108597676D01*
X133238095Y-108597676D02*
X133333333Y-108502438D01*
X133333333Y-108502438D02*
X133428571Y-108454819D01*
X133428571Y-108454819D02*
X133619047Y-108454819D01*
X133619047Y-108454819D02*
X133714285Y-108502438D01*
X133714285Y-108502438D02*
X133809523Y-108597676D01*
X133809523Y-108597676D02*
X133857142Y-108788152D01*
X133857142Y-108788152D02*
X133857142Y-109121485D01*
X133857142Y-109121485D02*
X133809523Y-109311961D01*
X133809523Y-109311961D02*
X133714285Y-109407200D01*
X133714285Y-109407200D02*
X133619047Y-109454819D01*
X133619047Y-109454819D02*
X133428571Y-109454819D01*
X134714285Y-108788152D02*
X134714285Y-109454819D01*
X134476190Y-108407200D02*
X134238095Y-109121485D01*
X134238095Y-109121485D02*
X134857142Y-109121485D01*
X134359580Y-118666666D02*
X134407200Y-118714285D01*
X134407200Y-118714285D02*
X134454819Y-118857142D01*
X134454819Y-118857142D02*
X134454819Y-118952380D01*
X134454819Y-118952380D02*
X134407200Y-119095237D01*
X134407200Y-119095237D02*
X134311961Y-119190475D01*
X134311961Y-119190475D02*
X134216723Y-119238094D01*
X134216723Y-119238094D02*
X134026247Y-119285713D01*
X134026247Y-119285713D02*
X133883390Y-119285713D01*
X133883390Y-119285713D02*
X133692914Y-119238094D01*
X133692914Y-119238094D02*
X133597676Y-119190475D01*
X133597676Y-119190475D02*
X133502438Y-119095237D01*
X133502438Y-119095237D02*
X133454819Y-118952380D01*
X133454819Y-118952380D02*
X133454819Y-118857142D01*
X133454819Y-118857142D02*
X133502438Y-118714285D01*
X133502438Y-118714285D02*
X133550057Y-118666666D01*
X133454819Y-118333332D02*
X133454819Y-117714285D01*
X133454819Y-117714285D02*
X133835771Y-118047618D01*
X133835771Y-118047618D02*
X133835771Y-117904761D01*
X133835771Y-117904761D02*
X133883390Y-117809523D01*
X133883390Y-117809523D02*
X133931009Y-117761904D01*
X133931009Y-117761904D02*
X134026247Y-117714285D01*
X134026247Y-117714285D02*
X134264342Y-117714285D01*
X134264342Y-117714285D02*
X134359580Y-117761904D01*
X134359580Y-117761904D02*
X134407200Y-117809523D01*
X134407200Y-117809523D02*
X134454819Y-117904761D01*
X134454819Y-117904761D02*
X134454819Y-118190475D01*
X134454819Y-118190475D02*
X134407200Y-118285713D01*
X134407200Y-118285713D02*
X134359580Y-118333332D01*
X128333333Y-143359580D02*
X128285714Y-143407200D01*
X128285714Y-143407200D02*
X128142857Y-143454819D01*
X128142857Y-143454819D02*
X128047619Y-143454819D01*
X128047619Y-143454819D02*
X127904762Y-143407200D01*
X127904762Y-143407200D02*
X127809524Y-143311961D01*
X127809524Y-143311961D02*
X127761905Y-143216723D01*
X127761905Y-143216723D02*
X127714286Y-143026247D01*
X127714286Y-143026247D02*
X127714286Y-142883390D01*
X127714286Y-142883390D02*
X127761905Y-142692914D01*
X127761905Y-142692914D02*
X127809524Y-142597676D01*
X127809524Y-142597676D02*
X127904762Y-142502438D01*
X127904762Y-142502438D02*
X128047619Y-142454819D01*
X128047619Y-142454819D02*
X128142857Y-142454819D01*
X128142857Y-142454819D02*
X128285714Y-142502438D01*
X128285714Y-142502438D02*
X128333333Y-142550057D01*
X129285714Y-143454819D02*
X128714286Y-143454819D01*
X129000000Y-143454819D02*
X129000000Y-142454819D01*
X129000000Y-142454819D02*
X128904762Y-142597676D01*
X128904762Y-142597676D02*
X128809524Y-142692914D01*
X128809524Y-142692914D02*
X128714286Y-142740533D01*
X127459580Y-122716666D02*
X127507200Y-122764285D01*
X127507200Y-122764285D02*
X127554819Y-122907142D01*
X127554819Y-122907142D02*
X127554819Y-123002380D01*
X127554819Y-123002380D02*
X127507200Y-123145237D01*
X127507200Y-123145237D02*
X127411961Y-123240475D01*
X127411961Y-123240475D02*
X127316723Y-123288094D01*
X127316723Y-123288094D02*
X127126247Y-123335713D01*
X127126247Y-123335713D02*
X126983390Y-123335713D01*
X126983390Y-123335713D02*
X126792914Y-123288094D01*
X126792914Y-123288094D02*
X126697676Y-123240475D01*
X126697676Y-123240475D02*
X126602438Y-123145237D01*
X126602438Y-123145237D02*
X126554819Y-123002380D01*
X126554819Y-123002380D02*
X126554819Y-122907142D01*
X126554819Y-122907142D02*
X126602438Y-122764285D01*
X126602438Y-122764285D02*
X126650057Y-122716666D01*
X126888152Y-121859523D02*
X127554819Y-121859523D01*
X126507200Y-122097618D02*
X127221485Y-122335713D01*
X127221485Y-122335713D02*
X127221485Y-121716666D01*
X141954819Y-121833333D02*
X142669104Y-121833333D01*
X142669104Y-121833333D02*
X142811961Y-121880952D01*
X142811961Y-121880952D02*
X142907200Y-121976190D01*
X142907200Y-121976190D02*
X142954819Y-122119047D01*
X142954819Y-122119047D02*
X142954819Y-122214285D01*
X142050057Y-121404761D02*
X142002438Y-121357142D01*
X142002438Y-121357142D02*
X141954819Y-121261904D01*
X141954819Y-121261904D02*
X141954819Y-121023809D01*
X141954819Y-121023809D02*
X142002438Y-120928571D01*
X142002438Y-120928571D02*
X142050057Y-120880952D01*
X142050057Y-120880952D02*
X142145295Y-120833333D01*
X142145295Y-120833333D02*
X142240533Y-120833333D01*
X142240533Y-120833333D02*
X142383390Y-120880952D01*
X142383390Y-120880952D02*
X142954819Y-121452380D01*
X142954819Y-121452380D02*
X142954819Y-120833333D01*
X139454819Y-111833333D02*
X140169104Y-111833333D01*
X140169104Y-111833333D02*
X140311961Y-111880952D01*
X140311961Y-111880952D02*
X140407200Y-111976190D01*
X140407200Y-111976190D02*
X140454819Y-112119047D01*
X140454819Y-112119047D02*
X140454819Y-112214285D01*
X140454819Y-111357142D02*
X139454819Y-111357142D01*
X139454819Y-111357142D02*
X139454819Y-110976190D01*
X139454819Y-110976190D02*
X139502438Y-110880952D01*
X139502438Y-110880952D02*
X139550057Y-110833333D01*
X139550057Y-110833333D02*
X139645295Y-110785714D01*
X139645295Y-110785714D02*
X139788152Y-110785714D01*
X139788152Y-110785714D02*
X139883390Y-110833333D01*
X139883390Y-110833333D02*
X139931009Y-110880952D01*
X139931009Y-110880952D02*
X139978628Y-110976190D01*
X139978628Y-110976190D02*
X139978628Y-111357142D01*
X140454819Y-109833333D02*
X140454819Y-110404761D01*
X140454819Y-110119047D02*
X139454819Y-110119047D01*
X139454819Y-110119047D02*
X139597676Y-110214285D01*
X139597676Y-110214285D02*
X139692914Y-110309523D01*
X139692914Y-110309523D02*
X139740533Y-110404761D01*
X98666667Y-111407200D02*
X98809524Y-111454819D01*
X98809524Y-111454819D02*
X99047619Y-111454819D01*
X99047619Y-111454819D02*
X99142857Y-111407200D01*
X99142857Y-111407200D02*
X99190476Y-111359580D01*
X99190476Y-111359580D02*
X99238095Y-111264342D01*
X99238095Y-111264342D02*
X99238095Y-111169104D01*
X99238095Y-111169104D02*
X99190476Y-111073866D01*
X99190476Y-111073866D02*
X99142857Y-111026247D01*
X99142857Y-111026247D02*
X99047619Y-110978628D01*
X99047619Y-110978628D02*
X98857143Y-110931009D01*
X98857143Y-110931009D02*
X98761905Y-110883390D01*
X98761905Y-110883390D02*
X98714286Y-110835771D01*
X98714286Y-110835771D02*
X98666667Y-110740533D01*
X98666667Y-110740533D02*
X98666667Y-110645295D01*
X98666667Y-110645295D02*
X98714286Y-110550057D01*
X98714286Y-110550057D02*
X98761905Y-110502438D01*
X98761905Y-110502438D02*
X98857143Y-110454819D01*
X98857143Y-110454819D02*
X99095238Y-110454819D01*
X99095238Y-110454819D02*
X99238095Y-110502438D01*
X99571429Y-110454819D02*
X99809524Y-111454819D01*
X99809524Y-111454819D02*
X100000000Y-110740533D01*
X100000000Y-110740533D02*
X100190476Y-111454819D01*
X100190476Y-111454819D02*
X100428572Y-110454819D01*
X101238095Y-110788152D02*
X101238095Y-111454819D01*
X101000000Y-110407200D02*
X100761905Y-111121485D01*
X100761905Y-111121485D02*
X101380952Y-111121485D01*
X128333333Y-149359580D02*
X128285714Y-149407200D01*
X128285714Y-149407200D02*
X128142857Y-149454819D01*
X128142857Y-149454819D02*
X128047619Y-149454819D01*
X128047619Y-149454819D02*
X127904762Y-149407200D01*
X127904762Y-149407200D02*
X127809524Y-149311961D01*
X127809524Y-149311961D02*
X127761905Y-149216723D01*
X127761905Y-149216723D02*
X127714286Y-149026247D01*
X127714286Y-149026247D02*
X127714286Y-148883390D01*
X127714286Y-148883390D02*
X127761905Y-148692914D01*
X127761905Y-148692914D02*
X127809524Y-148597676D01*
X127809524Y-148597676D02*
X127904762Y-148502438D01*
X127904762Y-148502438D02*
X128047619Y-148454819D01*
X128047619Y-148454819D02*
X128142857Y-148454819D01*
X128142857Y-148454819D02*
X128285714Y-148502438D01*
X128285714Y-148502438D02*
X128333333Y-148550057D01*
X128714286Y-148550057D02*
X128761905Y-148502438D01*
X128761905Y-148502438D02*
X128857143Y-148454819D01*
X128857143Y-148454819D02*
X129095238Y-148454819D01*
X129095238Y-148454819D02*
X129190476Y-148502438D01*
X129190476Y-148502438D02*
X129238095Y-148550057D01*
X129238095Y-148550057D02*
X129285714Y-148645295D01*
X129285714Y-148645295D02*
X129285714Y-148740533D01*
X129285714Y-148740533D02*
X129238095Y-148883390D01*
X129238095Y-148883390D02*
X128666667Y-149454819D01*
X128666667Y-149454819D02*
X129285714Y-149454819D01*
X116238095Y-128954819D02*
X116238095Y-129764342D01*
X116238095Y-129764342D02*
X116285714Y-129859580D01*
X116285714Y-129859580D02*
X116333333Y-129907200D01*
X116333333Y-129907200D02*
X116428571Y-129954819D01*
X116428571Y-129954819D02*
X116619047Y-129954819D01*
X116619047Y-129954819D02*
X116714285Y-129907200D01*
X116714285Y-129907200D02*
X116761904Y-129859580D01*
X116761904Y-129859580D02*
X116809523Y-129764342D01*
X116809523Y-129764342D02*
X116809523Y-128954819D01*
X117238095Y-129050057D02*
X117285714Y-129002438D01*
X117285714Y-129002438D02*
X117380952Y-128954819D01*
X117380952Y-128954819D02*
X117619047Y-128954819D01*
X117619047Y-128954819D02*
X117714285Y-129002438D01*
X117714285Y-129002438D02*
X117761904Y-129050057D01*
X117761904Y-129050057D02*
X117809523Y-129145295D01*
X117809523Y-129145295D02*
X117809523Y-129240533D01*
X117809523Y-129240533D02*
X117761904Y-129383390D01*
X117761904Y-129383390D02*
X117190476Y-129954819D01*
X117190476Y-129954819D02*
X117809523Y-129954819D01*
X124261905Y-143454819D02*
X124261905Y-142454819D01*
X124261905Y-142454819D02*
X124500000Y-142454819D01*
X124500000Y-142454819D02*
X124642857Y-142502438D01*
X124642857Y-142502438D02*
X124738095Y-142597676D01*
X124738095Y-142597676D02*
X124785714Y-142692914D01*
X124785714Y-142692914D02*
X124833333Y-142883390D01*
X124833333Y-142883390D02*
X124833333Y-143026247D01*
X124833333Y-143026247D02*
X124785714Y-143216723D01*
X124785714Y-143216723D02*
X124738095Y-143311961D01*
X124738095Y-143311961D02*
X124642857Y-143407200D01*
X124642857Y-143407200D02*
X124500000Y-143454819D01*
X124500000Y-143454819D02*
X124261905Y-143454819D01*
X125785714Y-143454819D02*
X125214286Y-143454819D01*
X125500000Y-143454819D02*
X125500000Y-142454819D01*
X125500000Y-142454819D02*
X125404762Y-142597676D01*
X125404762Y-142597676D02*
X125309524Y-142692914D01*
X125309524Y-142692914D02*
X125214286Y-142740533D01*
X132100595Y-121954819D02*
X132100595Y-122764342D01*
X132100595Y-122764342D02*
X132148214Y-122859580D01*
X132148214Y-122859580D02*
X132195833Y-122907200D01*
X132195833Y-122907200D02*
X132291071Y-122954819D01*
X132291071Y-122954819D02*
X132481547Y-122954819D01*
X132481547Y-122954819D02*
X132576785Y-122907200D01*
X132576785Y-122907200D02*
X132624404Y-122859580D01*
X132624404Y-122859580D02*
X132672023Y-122764342D01*
X132672023Y-122764342D02*
X132672023Y-121954819D01*
X133576785Y-121954819D02*
X133386309Y-121954819D01*
X133386309Y-121954819D02*
X133291071Y-122002438D01*
X133291071Y-122002438D02*
X133243452Y-122050057D01*
X133243452Y-122050057D02*
X133148214Y-122192914D01*
X133148214Y-122192914D02*
X133100595Y-122383390D01*
X133100595Y-122383390D02*
X133100595Y-122764342D01*
X133100595Y-122764342D02*
X133148214Y-122859580D01*
X133148214Y-122859580D02*
X133195833Y-122907200D01*
X133195833Y-122907200D02*
X133291071Y-122954819D01*
X133291071Y-122954819D02*
X133481547Y-122954819D01*
X133481547Y-122954819D02*
X133576785Y-122907200D01*
X133576785Y-122907200D02*
X133624404Y-122859580D01*
X133624404Y-122859580D02*
X133672023Y-122764342D01*
X133672023Y-122764342D02*
X133672023Y-122526247D01*
X133672023Y-122526247D02*
X133624404Y-122431009D01*
X133624404Y-122431009D02*
X133576785Y-122383390D01*
X133576785Y-122383390D02*
X133481547Y-122335771D01*
X133481547Y-122335771D02*
X133291071Y-122335771D01*
X133291071Y-122335771D02*
X133195833Y-122383390D01*
X133195833Y-122383390D02*
X133148214Y-122431009D01*
X133148214Y-122431009D02*
X133100595Y-122526247D01*
X136454819Y-118422916D02*
X135978628Y-118756249D01*
X136454819Y-118994344D02*
X135454819Y-118994344D01*
X135454819Y-118994344D02*
X135454819Y-118613392D01*
X135454819Y-118613392D02*
X135502438Y-118518154D01*
X135502438Y-118518154D02*
X135550057Y-118470535D01*
X135550057Y-118470535D02*
X135645295Y-118422916D01*
X135645295Y-118422916D02*
X135788152Y-118422916D01*
X135788152Y-118422916D02*
X135883390Y-118470535D01*
X135883390Y-118470535D02*
X135931009Y-118518154D01*
X135931009Y-118518154D02*
X135978628Y-118613392D01*
X135978628Y-118613392D02*
X135978628Y-118994344D01*
X135454819Y-118089582D02*
X135454819Y-117422916D01*
X135454819Y-117422916D02*
X136454819Y-117851487D01*
X104407200Y-108333332D02*
X104454819Y-108190475D01*
X104454819Y-108190475D02*
X104454819Y-107952380D01*
X104454819Y-107952380D02*
X104407200Y-107857142D01*
X104407200Y-107857142D02*
X104359580Y-107809523D01*
X104359580Y-107809523D02*
X104264342Y-107761904D01*
X104264342Y-107761904D02*
X104169104Y-107761904D01*
X104169104Y-107761904D02*
X104073866Y-107809523D01*
X104073866Y-107809523D02*
X104026247Y-107857142D01*
X104026247Y-107857142D02*
X103978628Y-107952380D01*
X103978628Y-107952380D02*
X103931009Y-108142856D01*
X103931009Y-108142856D02*
X103883390Y-108238094D01*
X103883390Y-108238094D02*
X103835771Y-108285713D01*
X103835771Y-108285713D02*
X103740533Y-108333332D01*
X103740533Y-108333332D02*
X103645295Y-108333332D01*
X103645295Y-108333332D02*
X103550057Y-108285713D01*
X103550057Y-108285713D02*
X103502438Y-108238094D01*
X103502438Y-108238094D02*
X103454819Y-108142856D01*
X103454819Y-108142856D02*
X103454819Y-107904761D01*
X103454819Y-107904761D02*
X103502438Y-107761904D01*
X103454819Y-107428570D02*
X104454819Y-107190475D01*
X104454819Y-107190475D02*
X103740533Y-106999999D01*
X103740533Y-106999999D02*
X104454819Y-106809523D01*
X104454819Y-106809523D02*
X103454819Y-106571428D01*
X103550057Y-106238094D02*
X103502438Y-106190475D01*
X103502438Y-106190475D02*
X103454819Y-106095237D01*
X103454819Y-106095237D02*
X103454819Y-105857142D01*
X103454819Y-105857142D02*
X103502438Y-105761904D01*
X103502438Y-105761904D02*
X103550057Y-105714285D01*
X103550057Y-105714285D02*
X103645295Y-105666666D01*
X103645295Y-105666666D02*
X103740533Y-105666666D01*
X103740533Y-105666666D02*
X103883390Y-105714285D01*
X103883390Y-105714285D02*
X104454819Y-106285713D01*
X104454819Y-106285713D02*
X104454819Y-105666666D01*
D12*
%TO.C,C5*%
X134527500Y-124303733D02*
X134527500Y-124596267D01*
X135547500Y-124303733D02*
X135547500Y-124596267D01*
%TO.C,R4*%
X133754724Y-127477500D02*
X133245276Y-127477500D01*
X133754724Y-128522500D02*
X133245276Y-128522500D01*
D13*
%TO.C,SW5*%
X106750000Y-125000000D02*
X106750000Y-126000000D01*
X106750000Y-128000000D02*
X106750000Y-129000000D01*
X106750000Y-129000000D02*
X113250000Y-129000000D01*
X113250000Y-125000000D02*
X106750000Y-125000000D01*
X113250000Y-126000000D02*
X113250000Y-125000000D01*
X113250000Y-129000000D02*
X113250000Y-128000000D01*
X111450000Y-127750000D02*
X108550000Y-127750000D01*
X108550000Y-126250000D01*
X111450000Y-126250000D01*
X111450000Y-127750000D01*
D12*
%TO.C,R5*%
X137745276Y-144277500D02*
X138254724Y-144277500D01*
X137745276Y-145322500D02*
X138254724Y-145322500D01*
%TO.C,U5*%
X129440000Y-115500000D02*
X129440000Y-114700000D01*
X129440000Y-115500000D02*
X129440000Y-116300000D01*
X132560000Y-115500000D02*
X132560000Y-114700000D01*
X132560000Y-115500000D02*
X132560000Y-116300000D01*
X132840000Y-114440000D02*
X132510000Y-114200000D01*
X132840000Y-113960000D01*
X132840000Y-114440000D01*
G36*
X132840000Y-114440000D02*
G01*
X132510000Y-114200000D01*
X132840000Y-113960000D01*
X132840000Y-114440000D01*
G37*
%TO.C,Q2*%
X131940000Y-135000000D02*
X131940000Y-134350000D01*
X131940000Y-135000000D02*
X131940000Y-135650000D01*
X135060000Y-135000000D02*
X135060000Y-134350000D01*
X135060000Y-135000000D02*
X135060000Y-135650000D01*
X135340000Y-134077500D02*
X135010000Y-133837500D01*
X135340000Y-133597500D01*
X135340000Y-134077500D01*
G36*
X135340000Y-134077500D02*
G01*
X135010000Y-133837500D01*
X135340000Y-133597500D01*
X135340000Y-134077500D01*
G37*
%TO.C,U3*%
X131500000Y-144940000D02*
X130850000Y-144940000D01*
X131500000Y-144940000D02*
X132150000Y-144940000D01*
X131500000Y-148060000D02*
X130850000Y-148060000D01*
X131500000Y-148060000D02*
X132150000Y-148060000D01*
X130337500Y-144990000D02*
X130097500Y-144660000D01*
X130577500Y-144660000D01*
X130337500Y-144990000D01*
G36*
X130337500Y-144990000D02*
G01*
X130097500Y-144660000D01*
X130577500Y-144660000D01*
X130337500Y-144990000D01*
G37*
%TO.C,TP4*%
X138700000Y-131000000D02*
G75*
G02*
X136300000Y-131000000I-1200000J0D01*
G01*
X136300000Y-131000000D02*
G75*
G02*
X138700000Y-131000000I1200000J0D01*
G01*
%TO.C,TP5*%
X143700000Y-144000000D02*
G75*
G02*
X141300000Y-144000000I-1200000J0D01*
G01*
X141300000Y-144000000D02*
G75*
G02*
X143700000Y-144000000I1200000J0D01*
G01*
%TO.C,D3*%
X137200000Y-143735000D02*
X139660000Y-143735000D01*
X139660000Y-142265000D02*
X137200000Y-142265000D01*
X139660000Y-143735000D02*
X139660000Y-142265000D01*
%TO.C,R8*%
X128477500Y-124745276D02*
X128477500Y-125254724D01*
X129522500Y-124745276D02*
X129522500Y-125254724D01*
%TO.C,R6*%
X127477500Y-115245276D02*
X127477500Y-115754724D01*
X128522500Y-115245276D02*
X128522500Y-115754724D01*
%TO.C,Q3*%
X138440000Y-136931250D02*
X138440000Y-136281250D01*
X138440000Y-136931250D02*
X138440000Y-137581250D01*
X141560000Y-136931250D02*
X141560000Y-136281250D01*
X141560000Y-136931250D02*
X141560000Y-137581250D01*
X141840000Y-136008750D02*
X141510000Y-135768750D01*
X141840000Y-135528750D01*
X141840000Y-136008750D01*
G36*
X141840000Y-136008750D02*
G01*
X141510000Y-135768750D01*
X141840000Y-135528750D01*
X141840000Y-136008750D01*
G37*
D13*
%TO.C,SW3*%
X118000000Y-113750000D02*
X118000000Y-120250000D01*
X118000000Y-120250000D02*
X119000000Y-120250000D01*
X119000000Y-113750000D02*
X118000000Y-113750000D01*
X121000000Y-120250000D02*
X122000000Y-120250000D01*
X122000000Y-113750000D02*
X121000000Y-113750000D01*
X122000000Y-120250000D02*
X122000000Y-113750000D01*
X119250000Y-118450000D02*
X120750000Y-118450000D01*
X120750000Y-115550000D01*
X119250000Y-115550000D01*
X119250000Y-118450000D01*
D12*
%TO.C,Q1*%
X127440000Y-135000000D02*
X127440000Y-134350000D01*
X127440000Y-135000000D02*
X127440000Y-135650000D01*
X130560000Y-135000000D02*
X130560000Y-134350000D01*
X130560000Y-135000000D02*
X130560000Y-135650000D01*
X127490000Y-136162500D02*
X127160000Y-136402500D01*
X127160000Y-135922500D01*
X127490000Y-136162500D01*
G36*
X127490000Y-136162500D02*
G01*
X127160000Y-136402500D01*
X127160000Y-135922500D01*
X127490000Y-136162500D01*
G37*
%TO.C,U1*%
D13*
X137850000Y-101400000D02*
X102050000Y-101400000D01*
X102050000Y-67600000D01*
X137850000Y-67600000D01*
X137850000Y-101400000D01*
X134950000Y-93300000D02*
X104950000Y-93300000D01*
X104950000Y-78300000D01*
X134950000Y-78300000D01*
X134950000Y-93300000D01*
D12*
%TO.C,R1*%
X124745276Y-137477500D02*
X125254724Y-137477500D01*
X124745276Y-138522500D02*
X125254724Y-138522500D01*
%TO.C,R2*%
X128745276Y-137477500D02*
X129254724Y-137477500D01*
X128745276Y-138522500D02*
X129254724Y-138522500D01*
%TO.C,TP3*%
X135700000Y-151500000D02*
G75*
G02*
X133300000Y-151500000I-1200000J0D01*
G01*
X133300000Y-151500000D02*
G75*
G02*
X135700000Y-151500000I1200000J0D01*
G01*
D13*
%TO.C,SW1*%
X144328000Y-75600000D02*
X143550000Y-75600000D01*
X143550000Y-84400000D02*
X144328000Y-84400000D01*
X141550000Y-75600000D02*
X140250000Y-75600000D01*
X140250000Y-84400000D02*
X141550000Y-84400000D01*
X140250000Y-75600000D02*
X140250000Y-84400000D01*
D12*
%TO.C,TP1*%
X125200000Y-135500000D02*
G75*
G02*
X122800000Y-135500000I-1200000J0D01*
G01*
X122800000Y-135500000D02*
G75*
G02*
X125200000Y-135500000I1200000J0D01*
G01*
%TO.C,D2*%
X128700000Y-128735000D02*
X131160000Y-128735000D01*
X131160000Y-127265000D02*
X128700000Y-127265000D01*
X131160000Y-128735000D02*
X131160000Y-127265000D01*
%TO.C,R3*%
X139745276Y-133408750D02*
X140254724Y-133408750D01*
X139745276Y-134453750D02*
X140254724Y-134453750D01*
%TO.C,Q5*%
X130000000Y-109940000D02*
X129350000Y-109940000D01*
X130000000Y-109940000D02*
X130650000Y-109940000D01*
X130000000Y-113060000D02*
X129350000Y-113060000D01*
X130000000Y-113060000D02*
X130650000Y-113060000D01*
X128837500Y-109990000D02*
X128597500Y-109660000D01*
X129077500Y-109660000D01*
X128837500Y-109990000D01*
G36*
X128837500Y-109990000D02*
G01*
X128597500Y-109660000D01*
X129077500Y-109660000D01*
X128837500Y-109990000D01*
G37*
%TO.C,F1*%
X139828733Y-124990000D02*
X140171267Y-124990000D01*
X139828733Y-126010000D02*
X140171267Y-126010000D01*
%TO.C,Q4*%
X134000000Y-109940000D02*
X133350000Y-109940000D01*
X134000000Y-109940000D02*
X134650000Y-109940000D01*
X134000000Y-113060000D02*
X133350000Y-113060000D01*
X134000000Y-113060000D02*
X134650000Y-113060000D01*
X135402500Y-113340000D02*
X134922500Y-113340000D01*
X135162500Y-113010000D01*
X135402500Y-113340000D01*
G36*
X135402500Y-113340000D02*
G01*
X134922500Y-113340000D01*
X135162500Y-113010000D01*
X135402500Y-113340000D01*
G37*
%TO.C,TP2*%
X137700000Y-140000000D02*
G75*
G02*
X135300000Y-140000000I-1200000J0D01*
G01*
X135300000Y-140000000D02*
G75*
G02*
X137700000Y-140000000I1200000J0D01*
G01*
%TO.C,C3*%
X133490000Y-115353733D02*
X133490000Y-115646267D01*
X134510000Y-115353733D02*
X134510000Y-115646267D01*
%TO.C,C1*%
X131646267Y-142990000D02*
X131353733Y-142990000D01*
X131646267Y-144010000D02*
X131353733Y-144010000D01*
%TO.C,C4*%
X130146267Y-121940000D02*
X129853733Y-121940000D01*
X130146267Y-122960000D02*
X129853733Y-122960000D01*
%TO.C,J2*%
X138670000Y-121505000D02*
X138670000Y-118905000D01*
X141330000Y-118905000D02*
X138670000Y-118905000D01*
X141330000Y-121505000D02*
X138670000Y-121505000D01*
X141330000Y-121505000D02*
X141330000Y-118905000D01*
X141330000Y-122775000D02*
X141330000Y-124105000D01*
X141330000Y-124105000D02*
X140000000Y-124105000D01*
%TO.C,JP1*%
X139000000Y-116400000D02*
X139000000Y-113600000D01*
X139700000Y-112950000D02*
X140300000Y-112950000D01*
X140300000Y-117050000D02*
X139700000Y-117050000D01*
X141000000Y-113600000D02*
X141000000Y-116400000D01*
X139000000Y-113650000D02*
G75*
G02*
X139700000Y-112950000I699999J1D01*
G01*
X139700000Y-117050000D02*
G75*
G02*
X139000000Y-116350000I0J700000D01*
G01*
X140300000Y-112950000D02*
G75*
G02*
X141000000Y-113650000I1J-699999D01*
G01*
X141000000Y-116350000D02*
G75*
G02*
X140300000Y-117050000I-700000J0D01*
G01*
D13*
%TO.C,SW4*%
X98000000Y-113750000D02*
X98000000Y-120250000D01*
X98000000Y-120250000D02*
X99000000Y-120250000D01*
X99000000Y-113750000D02*
X98000000Y-113750000D01*
X101000000Y-120250000D02*
X102000000Y-120250000D01*
X102000000Y-113750000D02*
X101000000Y-113750000D01*
X102000000Y-120250000D02*
X102000000Y-113750000D01*
X99250000Y-118450000D02*
X100750000Y-118450000D01*
X100750000Y-115550000D01*
X99250000Y-115550000D01*
X99250000Y-118450000D01*
D12*
%TO.C,C2*%
X127990000Y-146646267D02*
X127990000Y-146353733D01*
X129010000Y-146646267D02*
X129010000Y-146353733D01*
%TO.C,U2*%
X101000000Y-130476000D02*
X118780000Y-130476000D01*
X105064000Y-153844000D02*
X101000000Y-153844000D01*
X120812000Y-153844000D02*
X114716000Y-153844000D01*
%TO.C,D1*%
X123350000Y-143990000D02*
X123350000Y-148500000D01*
X126650000Y-143990000D02*
X123350000Y-143990000D01*
X126650000Y-143990000D02*
X126650000Y-148500000D01*
%TO.C,U6*%
X132000000Y-123440000D02*
X131200000Y-123440000D01*
X132000000Y-123440000D02*
X132800000Y-123440000D01*
X132000000Y-126560000D02*
X131200000Y-126560000D01*
X132000000Y-126560000D02*
X132800000Y-126560000D01*
X133540000Y-126840000D02*
X133060000Y-126840000D01*
X133300000Y-126510000D01*
X133540000Y-126840000D01*
G36*
X133540000Y-126840000D02*
G01*
X133060000Y-126840000D01*
X133300000Y-126510000D01*
X133540000Y-126840000D01*
G37*
%TO.C,R7*%
X135477500Y-115754724D02*
X135477500Y-115245276D01*
X136522500Y-115754724D02*
X136522500Y-115245276D01*
D13*
%TO.C,SW2*%
X106750000Y-105000000D02*
X106750000Y-106000000D01*
X106750000Y-108000000D02*
X106750000Y-109000000D01*
X106750000Y-109000000D02*
X113250000Y-109000000D01*
X113250000Y-105000000D02*
X106750000Y-105000000D01*
X113250000Y-106000000D02*
X113250000Y-105000000D01*
X113250000Y-109000000D02*
X113250000Y-108000000D01*
X108550000Y-106250000D02*
X111450000Y-106250000D01*
X111450000Y-107750000D01*
X108550000Y-107750000D01*
X108550000Y-106250000D01*
%TD*%
M02*
