M48
; DRILL file {KiCad 8.0.5} date 2024-11-21T22:32:36+0000
; FORMAT={-:-/ absolute / inch / decimal}
; #@! TF.CreationDate,2024-11-21T22:32:36+00:00
; #@! TF.GenerationSoftware,Kicad,Pcbnew,8.0.5
; #@! TF.FileFunction,Plated,1,2,PTH
FMAT,2
INCH
; #@! TA.AperFunction,Plated,PTH,ViaDrill
T1C0.0118
; #@! TA.AperFunction,Plated,PTH,ViaDrill
T2C0.0157
; #@! TA.AperFunction,Plated,PTH,ComponentDrill
T3C0.0315
; #@! TA.AperFunction,Plated,PTH,ComponentDrill
T4C0.0394
%
G90
G05
T1
X4.5866Y-3.8386
X4.7835Y-4.0197
X4.8622Y-4.0197
X4.8819Y-3.8386
X5.0315Y-3.5787
X5.0394Y-4.8012
X5.0394Y-4.8406
X5.0787Y-4.6024
X5.1299Y-3.8386
X5.2205Y-4.6102
X5.3543Y-4.9213
X5.3543Y-4.9606
X5.3558Y-4.9961
X5.3622Y-5.6673
T2
X4.5669Y-5.8465
X4.5669Y-5.8858
X4.5669Y-5.9252
X4.7579Y-3.6555
X4.8187Y-5.7439
X4.8228Y-5.8465
X4.8425Y-5.4724
X5.0197Y-4.3898
X5.0591Y-4.3898
X5.0591Y-5.689
X5.0984Y-4.3898
X5.0984Y-5.689
X5.4724Y-4.626
X5.5118Y-4.626
X5.5512Y-4.626
T3
X5.6122Y-3.0709
X5.6122Y-3.1496
X5.6122Y-3.2283
T4
X3.937Y-4.4563
X3.937Y-4.7563
X4.1807Y-4.2126
X4.1807Y-5.0
X4.4295Y-3.9252
X4.4807Y-4.2126
X4.4807Y-5.0
X4.5295Y-3.9252
X4.6295Y-3.9252
X4.7244Y-4.4563
X4.7244Y-4.7563
X4.7295Y-3.9252
X4.8295Y-3.9252
X4.9295Y-3.9252
X5.0295Y-3.9252
X5.5118Y-4.7337
X5.5118Y-4.8337
X5.6102Y-5.6693
X5.6122Y-2.9921
X5.6122Y-3.3071
M30
