%TF.GenerationSoftware,KiCad,Pcbnew,8.0.5*%
%TF.CreationDate,2024-11-21T22:32:41+00:00*%
%TF.ProjectId,spectrum-analyser,73706563-7472-4756-9d2d-616e616c7973,rev?*%
%TF.SameCoordinates,Original*%
%TF.FileFunction,Soldermask,Bot*%
%TF.FilePolarity,Negative*%
%FSLAX46Y46*%
G04 Gerber Fmt 4.6, Leading zero omitted, Abs format (unit mm)*
G04 Created by KiCad (PCBNEW 8.0.5) date 2024-11-21 22:32:41*
%MOMM*%
%LPD*%
G01*
G04 APERTURE LIST*
G04 Aperture macros list*
%AMRoundRect*
0 Rectangle with rounded corners*
0 $1 Rounding radius*
0 $2 $3 $4 $5 $6 $7 $8 $9 X,Y pos of 4 corners*
0 Add a 4 corners polygon primitive as box body*
4,1,4,$2,$3,$4,$5,$6,$7,$8,$9,$2,$3,0*
0 Add four circle primitives for the rounded corners*
1,1,$1+$1,$2,$3*
1,1,$1+$1,$4,$5*
1,1,$1+$1,$6,$7*
1,1,$1+$1,$8,$9*
0 Add four rect primitives between the rounded corners*
20,1,$1+$1,$2,$3,$4,$5,0*
20,1,$1+$1,$4,$5,$6,$7,0*
20,1,$1+$1,$6,$7,$8,$9,0*
20,1,$1+$1,$8,$9,$2,$3,0*%
G04 Aperture macros list end*
%ADD10C,1.700000*%
%ADD11C,2.000000*%
%ADD12R,1.700000X1.700000*%
%ADD13C,3.200000*%
%ADD14C,1.400000*%
%ADD15R,1.400000X1.400000*%
%ADD16C,1.600000*%
%ADD17O,1.700000X1.700000*%
%ADD18RoundRect,0.283333X0.566667X1.216667X-0.566667X1.216667X-0.566667X-1.216667X0.566667X-1.216667X0*%
%ADD19RoundRect,0.250000X-0.385000X-1.350000X0.385000X-1.350000X0.385000X1.350000X-0.385000X1.350000X0*%
%ADD20RoundRect,0.250000X-0.425000X-1.600000X0.425000X-1.600000X0.425000X1.600000X-0.425000X1.600000X0*%
G04 APERTURE END LIST*
D10*
%TO.C,SW5*%
X113810000Y-127000000D03*
X106190000Y-127000000D03*
%TD*%
D11*
%TO.C,TP5*%
X142500000Y-144000000D03*
%TD*%
D10*
%TO.C,SW3*%
X120000000Y-120810000D03*
X120000000Y-113190000D03*
%TD*%
%TO.C,U1*%
X112510000Y-99700000D03*
X115050000Y-99700000D03*
X117590000Y-99700000D03*
X120130000Y-99700000D03*
X122670000Y-99700000D03*
X125210000Y-99700000D03*
D12*
X127750000Y-99700000D03*
D13*
X104750000Y-69500000D03*
X104750000Y-98000000D03*
X135150000Y-69500000D03*
X135150000Y-98000000D03*
%TD*%
D14*
%TO.C,SW1*%
X142550000Y-78000000D03*
X142550000Y-80000000D03*
D15*
X142550000Y-82000000D03*
D16*
X142550000Y-76000000D03*
X142550000Y-84000000D03*
%TD*%
D13*
%TO.C,H1*%
X140000000Y-150000000D03*
%TD*%
D12*
%TO.C,J2*%
X140000000Y-122775000D03*
D17*
X140000000Y-120235000D03*
%TD*%
D10*
%TO.C,SW4*%
X100000000Y-120810000D03*
X100000000Y-113190000D03*
%TD*%
D13*
%TO.C,H2*%
X140000000Y-65000000D03*
%TD*%
D10*
%TO.C,SW2*%
X106190000Y-107000000D03*
X113810000Y-107000000D03*
%TD*%
D13*
%TO.C,H3*%
X100000000Y-65000000D03*
%TD*%
D18*
%TO.C,U4*%
X130330000Y-95300000D03*
X127780000Y-95300000D03*
X125240000Y-95300000D03*
X122700000Y-95300000D03*
X120160000Y-95300000D03*
X117620000Y-95300000D03*
X115080000Y-95300000D03*
X112540000Y-95300000D03*
X110000000Y-95300000D03*
X109830000Y-67300000D03*
X112370000Y-67300000D03*
X114910000Y-67300000D03*
X125250000Y-67300000D03*
X127790000Y-67300000D03*
X130330000Y-67300000D03*
%TD*%
D19*
%TO.C,J1*%
X128000000Y-62162500D03*
D20*
X125175000Y-62412500D03*
X130825000Y-62412500D03*
%TD*%
M02*
