%TF.GenerationSoftware,KiCad,Pcbnew,8.0.5*%
%TF.CreationDate,2024-11-21T22:32:41+00:00*%
%TF.ProjectId,spectrum-analyser,73706563-7472-4756-9d2d-616e616c7973,rev?*%
%TF.SameCoordinates,Original*%
%TF.FileFunction,Paste,Top*%
%TF.FilePolarity,Positive*%
%FSLAX46Y46*%
G04 Gerber Fmt 4.6, Leading zero omitted, Abs format (unit mm)*
G04 Created by KiCad (PCBNEW 8.0.5) date 2024-11-21 22:32:41*
%MOMM*%
%LPD*%
G01*
G04 APERTURE LIST*
G04 Aperture macros list*
%AMRoundRect*
0 Rectangle with rounded corners*
0 $1 Rounding radius*
0 $2 $3 $4 $5 $6 $7 $8 $9 X,Y pos of 4 corners*
0 Add a 4 corners polygon primitive as box body*
4,1,4,$2,$3,$4,$5,$6,$7,$8,$9,$2,$3,0*
0 Add four circle primitives for the rounded corners*
1,1,$1+$1,$2,$3*
1,1,$1+$1,$4,$5*
1,1,$1+$1,$6,$7*
1,1,$1+$1,$8,$9*
0 Add four rect primitives between the rounded corners*
20,1,$1+$1,$2,$3,$4,$5,0*
20,1,$1+$1,$4,$5,$6,$7,0*
20,1,$1+$1,$6,$7,$8,$9,0*
20,1,$1+$1,$8,$9,$2,$3,0*%
G04 Aperture macros list end*
%ADD10RoundRect,0.237500X-0.237500X0.300000X-0.237500X-0.300000X0.237500X-0.300000X0.237500X0.300000X0*%
%ADD11RoundRect,0.237500X0.250000X0.237500X-0.250000X0.237500X-0.250000X-0.237500X0.250000X-0.237500X0*%
%ADD12RoundRect,0.237500X-0.250000X-0.237500X0.250000X-0.237500X0.250000X0.237500X-0.250000X0.237500X0*%
%ADD13RoundRect,0.150000X-0.150000X0.512500X-0.150000X-0.512500X0.150000X-0.512500X0.150000X0.512500X0*%
%ADD14RoundRect,0.150000X-0.150000X0.587500X-0.150000X-0.587500X0.150000X-0.587500X0.150000X0.587500X0*%
%ADD15RoundRect,0.150000X-0.587500X-0.150000X0.587500X-0.150000X0.587500X0.150000X-0.587500X0.150000X0*%
%ADD16RoundRect,0.237500X0.287500X0.237500X-0.287500X0.237500X-0.287500X-0.237500X0.287500X-0.237500X0*%
%ADD17RoundRect,0.237500X-0.237500X0.250000X-0.237500X-0.250000X0.237500X-0.250000X0.237500X0.250000X0*%
%ADD18RoundRect,0.150000X0.150000X-0.587500X0.150000X0.587500X-0.150000X0.587500X-0.150000X-0.587500X0*%
%ADD19RoundRect,0.237500X-0.287500X-0.237500X0.287500X-0.237500X0.287500X0.237500X-0.287500X0.237500X0*%
%ADD20RoundRect,0.150000X0.587500X0.150000X-0.587500X0.150000X-0.587500X-0.150000X0.587500X-0.150000X0*%
%ADD21RoundRect,0.237500X0.300000X0.237500X-0.300000X0.237500X-0.300000X-0.237500X0.300000X-0.237500X0*%
%ADD22RoundRect,0.237500X0.237500X-0.300000X0.237500X0.300000X-0.237500X0.300000X-0.237500X-0.300000X0*%
%ADD23RoundRect,0.425000X1.575000X0.425000X-1.575000X0.425000X-1.575000X-0.425000X1.575000X-0.425000X0*%
%ADD24RoundRect,0.250000X-0.650000X1.500000X-0.650000X-1.500000X0.650000X-1.500000X0.650000X1.500000X0*%
%ADD25RoundRect,0.150000X0.512500X0.150000X-0.512500X0.150000X-0.512500X-0.150000X0.512500X-0.150000X0*%
%ADD26RoundRect,0.237500X0.237500X-0.250000X0.237500X0.250000X-0.237500X0.250000X-0.237500X-0.250000X0*%
G04 APERTURE END LIST*
D10*
%TO.C,C5*%
X135037500Y-123587500D03*
X135037500Y-125312500D03*
%TD*%
D11*
%TO.C,R4*%
X134412500Y-128000000D03*
X132587500Y-128000000D03*
%TD*%
D12*
%TO.C,R5*%
X137087500Y-144800000D03*
X138912500Y-144800000D03*
%TD*%
D13*
%TO.C,U5*%
X131950000Y-114362500D03*
X131000000Y-114362500D03*
X130050000Y-114362500D03*
X130050000Y-116637500D03*
X131000000Y-116637500D03*
X131950000Y-116637500D03*
%TD*%
D14*
%TO.C,Q2*%
X134450000Y-134062500D03*
X132550000Y-134062500D03*
X133500000Y-135937500D03*
%TD*%
D15*
%TO.C,U3*%
X130562500Y-145550000D03*
X130562500Y-147450000D03*
X132437500Y-146500000D03*
%TD*%
D16*
%TO.C,D3*%
X138875000Y-143000000D03*
X137125000Y-143000000D03*
%TD*%
D17*
%TO.C,R8*%
X129000000Y-124087500D03*
X129000000Y-125912500D03*
%TD*%
%TO.C,R6*%
X128000000Y-114587500D03*
X128000000Y-116412500D03*
%TD*%
D14*
%TO.C,Q3*%
X140950000Y-135993750D03*
X139050000Y-135993750D03*
X140000000Y-137868750D03*
%TD*%
D18*
%TO.C,Q1*%
X128050000Y-135937500D03*
X129950000Y-135937500D03*
X129000000Y-134062500D03*
%TD*%
D12*
%TO.C,R1*%
X124087500Y-138000000D03*
X125912500Y-138000000D03*
%TD*%
%TO.C,R2*%
X128087500Y-138000000D03*
X129912500Y-138000000D03*
%TD*%
D16*
%TO.C,D2*%
X130375000Y-128000000D03*
X128625000Y-128000000D03*
%TD*%
D12*
%TO.C,R3*%
X139087500Y-133931250D03*
X140912500Y-133931250D03*
%TD*%
D15*
%TO.C,Q5*%
X129062500Y-110550000D03*
X129062500Y-112450000D03*
X130937500Y-111500000D03*
%TD*%
D19*
%TO.C,F1*%
X139125000Y-125500000D03*
X140875000Y-125500000D03*
%TD*%
D20*
%TO.C,Q4*%
X134937500Y-112450000D03*
X134937500Y-110550000D03*
X133062500Y-111500000D03*
%TD*%
D10*
%TO.C,C3*%
X134000000Y-114637500D03*
X134000000Y-116362500D03*
%TD*%
D21*
%TO.C,C1*%
X132362500Y-143500000D03*
X130637500Y-143500000D03*
%TD*%
%TO.C,C4*%
X130862500Y-122450000D03*
X129137500Y-122450000D03*
%TD*%
D22*
%TO.C,C2*%
X128500000Y-147362500D03*
X128500000Y-145637500D03*
%TD*%
D23*
%TO.C,U2*%
X118780000Y-152320000D03*
X118780000Y-149780000D03*
X118780000Y-147240000D03*
X118780000Y-144700000D03*
X118780000Y-142160000D03*
X118780000Y-139620000D03*
X118780000Y-137080000D03*
X118780000Y-134540000D03*
X118780000Y-132000000D03*
X101000000Y-132000000D03*
X101000000Y-134540000D03*
X101000000Y-137080000D03*
X101000000Y-139620000D03*
X101000000Y-142160000D03*
X101000000Y-144700000D03*
X101000000Y-147240000D03*
X101000000Y-149780000D03*
X101000000Y-152320000D03*
%TD*%
D24*
%TO.C,D1*%
X125000000Y-146000000D03*
X125000000Y-151000000D03*
%TD*%
D25*
%TO.C,U6*%
X133137500Y-125950000D03*
X133137500Y-125000000D03*
X133137500Y-124050000D03*
X130862500Y-124050000D03*
X130862500Y-125950000D03*
%TD*%
D26*
%TO.C,R7*%
X136000000Y-116412500D03*
X136000000Y-114587500D03*
%TD*%
M02*
