%TF.GenerationSoftware,KiCad,Pcbnew,8.0.5*%
%TF.CreationDate,2024-11-21T22:32:41+00:00*%
%TF.ProjectId,spectrum-analyser,73706563-7472-4756-9d2d-616e616c7973,rev?*%
%TF.SameCoordinates,Original*%
%TF.FileFunction,Legend,Bot*%
%TF.FilePolarity,Positive*%
%FSLAX46Y46*%
G04 Gerber Fmt 4.6, Leading zero omitted, Abs format (unit mm)*
G04 Created by KiCad (PCBNEW 8.0.5) date 2024-11-21 22:32:41*
%MOMM*%
%LPD*%
G01*
G04 APERTURE LIST*
%ADD10C,0.150000*%
%ADD11C,0.400000*%
%ADD12C,0.300000*%
%ADD13C,0.100000*%
%ADD14C,0.200000*%
%ADD15C,0.120000*%
G04 APERTURE END LIST*
D10*
X131500000Y-103000000D02*
X131500000Y-98000000D01*
X121400000Y-131000000D02*
X121400000Y-153000000D01*
X98600000Y-131000000D02*
X98600000Y-153100000D01*
X109000000Y-98000000D02*
X131500000Y-98000000D01*
X111500000Y-101000000D02*
X129000000Y-101000000D01*
X126000000Y-103000000D02*
X137500000Y-103000000D01*
G36*
X121509104Y-64756531D02*
G01*
X121106989Y-64622493D01*
X121509104Y-64488454D01*
X121509104Y-64756531D01*
G37*
G36*
X122055930Y-65141348D02*
G01*
X120683708Y-65141348D01*
X120683708Y-64613113D01*
X120795408Y-64613113D01*
X120796074Y-64622493D01*
X120795408Y-64631873D01*
X120797103Y-64636958D01*
X120797483Y-64642303D01*
X120801687Y-64650712D01*
X120804662Y-64659636D01*
X120808173Y-64663684D01*
X120810569Y-64668476D01*
X120817673Y-64674638D01*
X120823836Y-64681743D01*
X120828627Y-64684138D01*
X120832676Y-64687650D01*
X120846102Y-64693644D01*
X121846102Y-65026977D01*
X121860438Y-65030237D01*
X121889628Y-65028162D01*
X121915802Y-65015076D01*
X121934976Y-64992968D01*
X121944230Y-64965206D01*
X121942155Y-64936016D01*
X121929068Y-64909843D01*
X121906961Y-64890669D01*
X121893536Y-64884675D01*
X121659104Y-64806531D01*
X121659104Y-64438454D01*
X121893536Y-64360311D01*
X121906961Y-64354317D01*
X121929068Y-64335143D01*
X121942155Y-64308970D01*
X121944230Y-64279780D01*
X121934976Y-64252018D01*
X121915802Y-64229910D01*
X121889628Y-64216824D01*
X121860438Y-64214749D01*
X121846102Y-64218009D01*
X120846102Y-64551342D01*
X120832676Y-64557336D01*
X120828627Y-64560847D01*
X120823836Y-64563243D01*
X120817673Y-64570347D01*
X120810569Y-64576510D01*
X120808173Y-64581301D01*
X120804662Y-64585350D01*
X120801687Y-64594273D01*
X120797483Y-64602683D01*
X120797103Y-64608027D01*
X120795408Y-64613113D01*
X120683708Y-64613113D01*
X120683708Y-63300548D01*
X120795689Y-63300548D01*
X120796260Y-63302118D01*
X120796260Y-63303792D01*
X120801241Y-63315818D01*
X120805689Y-63328049D01*
X120806818Y-63329282D01*
X120807459Y-63330828D01*
X120816664Y-63340033D01*
X120825453Y-63349630D01*
X120827435Y-63350804D01*
X120828151Y-63351520D01*
X120829787Y-63352198D01*
X120838103Y-63357124D01*
X121406750Y-63622493D01*
X120838103Y-63887862D01*
X120829787Y-63892787D01*
X120828151Y-63893466D01*
X120827435Y-63894181D01*
X120825453Y-63895356D01*
X120816664Y-63904952D01*
X120807459Y-63914158D01*
X120806818Y-63915703D01*
X120805689Y-63916937D01*
X120801241Y-63929167D01*
X120796260Y-63941194D01*
X120796260Y-63942867D01*
X120795689Y-63944438D01*
X120796260Y-63957439D01*
X120796260Y-63970458D01*
X120796899Y-63972002D01*
X120796973Y-63973674D01*
X120802479Y-63985472D01*
X120807459Y-63997494D01*
X120808641Y-63998676D01*
X120809349Y-64000192D01*
X120818945Y-64008980D01*
X120828151Y-64018186D01*
X120829696Y-64018826D01*
X120830930Y-64019956D01*
X120843160Y-64024403D01*
X120855187Y-64029385D01*
X120857482Y-64029611D01*
X120858431Y-64029956D01*
X120860197Y-64029878D01*
X120869819Y-64030826D01*
X121869819Y-64030826D01*
X121884451Y-64029385D01*
X121911487Y-64018186D01*
X121932179Y-63997494D01*
X121943378Y-63970458D01*
X121943378Y-63941194D01*
X121932179Y-63914158D01*
X121911487Y-63893466D01*
X121884451Y-63882267D01*
X121869819Y-63880826D01*
X121207887Y-63880826D01*
X121615821Y-63690457D01*
X121621180Y-63687282D01*
X121622993Y-63686623D01*
X121624275Y-63685448D01*
X121628471Y-63682963D01*
X121636168Y-63674557D01*
X121644575Y-63666859D01*
X121645984Y-63663838D01*
X121648234Y-63661382D01*
X121652128Y-63650672D01*
X121656950Y-63640341D01*
X121657096Y-63637012D01*
X121658235Y-63633881D01*
X121657734Y-63622493D01*
X121658235Y-63611105D01*
X121657096Y-63607973D01*
X121656950Y-63604645D01*
X121652128Y-63594313D01*
X121648234Y-63583604D01*
X121645984Y-63581147D01*
X121644575Y-63578127D01*
X121636168Y-63570428D01*
X121628471Y-63562023D01*
X121624275Y-63559537D01*
X121622993Y-63558363D01*
X121621180Y-63557703D01*
X121615821Y-63554529D01*
X121207887Y-63364160D01*
X121869819Y-63364160D01*
X121884451Y-63362719D01*
X121911487Y-63351520D01*
X121932179Y-63330828D01*
X121943378Y-63303792D01*
X121943378Y-63274528D01*
X121932179Y-63247492D01*
X121911487Y-63226800D01*
X121884451Y-63215601D01*
X121869819Y-63214160D01*
X120869819Y-63214160D01*
X120860197Y-63215107D01*
X120858431Y-63215030D01*
X120857482Y-63215374D01*
X120855187Y-63215601D01*
X120843160Y-63220582D01*
X120830930Y-63225030D01*
X120829696Y-63226159D01*
X120828151Y-63226800D01*
X120818945Y-63236005D01*
X120809349Y-63244794D01*
X120808641Y-63246309D01*
X120807459Y-63247492D01*
X120802479Y-63259513D01*
X120796973Y-63271312D01*
X120796899Y-63272983D01*
X120796260Y-63274528D01*
X120796260Y-63287546D01*
X120795689Y-63300548D01*
X120683708Y-63300548D01*
X120683708Y-62479636D01*
X120794819Y-62479636D01*
X120794819Y-62717731D01*
X120795548Y-62725136D01*
X120795408Y-62727111D01*
X120795998Y-62729708D01*
X120796260Y-62732363D01*
X120797018Y-62734194D01*
X120798668Y-62741448D01*
X120846287Y-62884305D01*
X120852281Y-62897730D01*
X120871455Y-62919837D01*
X120897628Y-62932924D01*
X120926818Y-62934999D01*
X120954580Y-62925745D01*
X120976688Y-62906571D01*
X120989774Y-62880397D01*
X120991849Y-62851207D01*
X120988589Y-62836870D01*
X120944819Y-62705560D01*
X120944819Y-62497341D01*
X120979077Y-62428825D01*
X121009484Y-62398418D01*
X121078000Y-62364160D01*
X121137828Y-62364160D01*
X121206344Y-62398418D01*
X121236751Y-62428825D01*
X121275244Y-62505812D01*
X121320867Y-62688302D01*
X121321252Y-62689381D01*
X121321291Y-62689921D01*
X121323618Y-62696002D01*
X121325814Y-62702148D01*
X121326136Y-62702583D01*
X121326546Y-62703653D01*
X121374165Y-62798891D01*
X121378129Y-62805190D01*
X121378887Y-62807018D01*
X121380575Y-62809074D01*
X121381997Y-62811334D01*
X121383495Y-62812633D01*
X121388214Y-62818383D01*
X121435833Y-62866002D01*
X121441582Y-62870720D01*
X121442882Y-62872219D01*
X121445141Y-62873640D01*
X121447198Y-62875329D01*
X121449025Y-62876086D01*
X121455325Y-62880051D01*
X121550563Y-62927670D01*
X121564294Y-62932925D01*
X121566983Y-62933116D01*
X121569472Y-62934147D01*
X121584104Y-62935588D01*
X121679342Y-62935588D01*
X121693974Y-62934147D01*
X121696463Y-62933115D01*
X121699151Y-62932925D01*
X121712883Y-62927670D01*
X121808121Y-62880051D01*
X121814417Y-62876087D01*
X121816247Y-62875330D01*
X121818305Y-62873640D01*
X121820564Y-62872219D01*
X121821863Y-62870720D01*
X121827612Y-62866003D01*
X121875232Y-62818384D01*
X121879950Y-62812634D01*
X121881450Y-62811334D01*
X121882872Y-62809074D01*
X121884560Y-62807018D01*
X121885317Y-62805190D01*
X121889282Y-62798891D01*
X121936901Y-62703653D01*
X121942156Y-62689922D01*
X121942347Y-62687232D01*
X121943378Y-62684744D01*
X121944819Y-62670112D01*
X121944819Y-62432017D01*
X121944089Y-62424610D01*
X121944230Y-62422636D01*
X121943639Y-62420038D01*
X121943378Y-62417385D01*
X121942619Y-62415554D01*
X121940970Y-62408299D01*
X121893351Y-62265443D01*
X121887357Y-62252017D01*
X121868183Y-62229910D01*
X121842010Y-62216824D01*
X121812820Y-62214749D01*
X121785057Y-62224003D01*
X121762950Y-62243177D01*
X121749864Y-62269350D01*
X121747789Y-62298540D01*
X121751049Y-62312877D01*
X121794819Y-62444187D01*
X121794819Y-62652407D01*
X121760561Y-62720922D01*
X121730153Y-62751329D01*
X121661637Y-62785588D01*
X121601809Y-62785588D01*
X121533293Y-62751330D01*
X121502886Y-62720923D01*
X121464392Y-62643936D01*
X121418770Y-62461446D01*
X121418384Y-62460366D01*
X121418346Y-62459826D01*
X121416015Y-62453736D01*
X121413823Y-62447600D01*
X121413500Y-62447164D01*
X121413091Y-62446095D01*
X121365472Y-62350857D01*
X121361507Y-62344557D01*
X121360750Y-62342730D01*
X121359061Y-62340673D01*
X121357640Y-62338414D01*
X121356141Y-62337114D01*
X121351423Y-62331365D01*
X121303804Y-62283746D01*
X121298054Y-62279027D01*
X121296755Y-62277529D01*
X121294495Y-62276107D01*
X121292439Y-62274419D01*
X121290611Y-62273661D01*
X121284312Y-62269697D01*
X121189074Y-62222078D01*
X121175342Y-62216823D01*
X121172654Y-62216632D01*
X121170165Y-62215601D01*
X121155533Y-62214160D01*
X121060295Y-62214160D01*
X121045663Y-62215601D01*
X121043174Y-62216631D01*
X121040485Y-62216823D01*
X121026754Y-62222078D01*
X120931516Y-62269697D01*
X120925216Y-62273661D01*
X120923389Y-62274419D01*
X120921332Y-62276107D01*
X120919073Y-62277529D01*
X120917773Y-62279027D01*
X120912024Y-62283746D01*
X120864405Y-62331365D01*
X120859686Y-62337114D01*
X120858188Y-62338414D01*
X120856766Y-62340673D01*
X120855078Y-62342730D01*
X120854320Y-62344557D01*
X120850356Y-62350857D01*
X120802737Y-62446095D01*
X120797482Y-62459827D01*
X120797291Y-62462514D01*
X120796260Y-62465004D01*
X120794819Y-62479636D01*
X120683708Y-62479636D01*
X120683708Y-62103049D01*
X122055930Y-62103049D01*
X122055930Y-65141348D01*
G37*
X120706077Y-151869819D02*
X120372744Y-152869819D01*
X120372744Y-152869819D02*
X120039411Y-151869819D01*
X119706077Y-151869819D02*
X119706077Y-152679342D01*
X119706077Y-152679342D02*
X119658458Y-152774580D01*
X119658458Y-152774580D02*
X119610839Y-152822200D01*
X119610839Y-152822200D02*
X119515601Y-152869819D01*
X119515601Y-152869819D02*
X119325125Y-152869819D01*
X119325125Y-152869819D02*
X119229887Y-152822200D01*
X119229887Y-152822200D02*
X119182268Y-152774580D01*
X119182268Y-152774580D02*
X119134649Y-152679342D01*
X119134649Y-152679342D02*
X119134649Y-151869819D01*
X118706077Y-152822200D02*
X118563220Y-152869819D01*
X118563220Y-152869819D02*
X118325125Y-152869819D01*
X118325125Y-152869819D02*
X118229887Y-152822200D01*
X118229887Y-152822200D02*
X118182268Y-152774580D01*
X118182268Y-152774580D02*
X118134649Y-152679342D01*
X118134649Y-152679342D02*
X118134649Y-152584104D01*
X118134649Y-152584104D02*
X118182268Y-152488866D01*
X118182268Y-152488866D02*
X118229887Y-152441247D01*
X118229887Y-152441247D02*
X118325125Y-152393628D01*
X118325125Y-152393628D02*
X118515601Y-152346009D01*
X118515601Y-152346009D02*
X118610839Y-152298390D01*
X118610839Y-152298390D02*
X118658458Y-152250771D01*
X118658458Y-152250771D02*
X118706077Y-152155533D01*
X118706077Y-152155533D02*
X118706077Y-152060295D01*
X118706077Y-152060295D02*
X118658458Y-151965057D01*
X118658458Y-151965057D02*
X118610839Y-151917438D01*
X118610839Y-151917438D02*
X118515601Y-151869819D01*
X118515601Y-151869819D02*
X118277506Y-151869819D01*
X118277506Y-151869819D02*
X118134649Y-151917438D01*
X117372744Y-152346009D02*
X117229887Y-152393628D01*
X117229887Y-152393628D02*
X117182268Y-152441247D01*
X117182268Y-152441247D02*
X117134649Y-152536485D01*
X117134649Y-152536485D02*
X117134649Y-152679342D01*
X117134649Y-152679342D02*
X117182268Y-152774580D01*
X117182268Y-152774580D02*
X117229887Y-152822200D01*
X117229887Y-152822200D02*
X117325125Y-152869819D01*
X117325125Y-152869819D02*
X117706077Y-152869819D01*
X117706077Y-152869819D02*
X117706077Y-151869819D01*
X117706077Y-151869819D02*
X117372744Y-151869819D01*
X117372744Y-151869819D02*
X117277506Y-151917438D01*
X117277506Y-151917438D02*
X117229887Y-151965057D01*
X117229887Y-151965057D02*
X117182268Y-152060295D01*
X117182268Y-152060295D02*
X117182268Y-152155533D01*
X117182268Y-152155533D02*
X117229887Y-152250771D01*
X117229887Y-152250771D02*
X117277506Y-152298390D01*
X117277506Y-152298390D02*
X117372744Y-152346009D01*
X117372744Y-152346009D02*
X117706077Y-152346009D01*
X106436779Y-139646009D02*
X106293922Y-139693628D01*
X106293922Y-139693628D02*
X106246303Y-139741247D01*
X106246303Y-139741247D02*
X106198684Y-139836485D01*
X106198684Y-139836485D02*
X106198684Y-139979342D01*
X106198684Y-139979342D02*
X106246303Y-140074580D01*
X106246303Y-140074580D02*
X106293922Y-140122200D01*
X106293922Y-140122200D02*
X106389160Y-140169819D01*
X106389160Y-140169819D02*
X106770112Y-140169819D01*
X106770112Y-140169819D02*
X106770112Y-139169819D01*
X106770112Y-139169819D02*
X106436779Y-139169819D01*
X106436779Y-139169819D02*
X106341541Y-139217438D01*
X106341541Y-139217438D02*
X106293922Y-139265057D01*
X106293922Y-139265057D02*
X106246303Y-139360295D01*
X106246303Y-139360295D02*
X106246303Y-139455533D01*
X106246303Y-139455533D02*
X106293922Y-139550771D01*
X106293922Y-139550771D02*
X106341541Y-139598390D01*
X106341541Y-139598390D02*
X106436779Y-139646009D01*
X106436779Y-139646009D02*
X106770112Y-139646009D01*
X105912969Y-139169819D02*
X105341541Y-139169819D01*
X105627255Y-140169819D02*
X105627255Y-139169819D01*
X105008207Y-140169819D02*
X105008207Y-139169819D01*
X105008207Y-139169819D02*
X104436779Y-140169819D01*
X104436779Y-140169819D02*
X104436779Y-139169819D01*
X104198684Y-140265057D02*
X103436779Y-140265057D01*
X103198683Y-140169819D02*
X103198683Y-139169819D01*
X103198683Y-139169819D02*
X102960588Y-139169819D01*
X102960588Y-139169819D02*
X102817731Y-139217438D01*
X102817731Y-139217438D02*
X102722493Y-139312676D01*
X102722493Y-139312676D02*
X102674874Y-139407914D01*
X102674874Y-139407914D02*
X102627255Y-139598390D01*
X102627255Y-139598390D02*
X102627255Y-139741247D01*
X102627255Y-139741247D02*
X102674874Y-139931723D01*
X102674874Y-139931723D02*
X102722493Y-140026961D01*
X102722493Y-140026961D02*
X102817731Y-140122200D01*
X102817731Y-140122200D02*
X102960588Y-140169819D01*
X102960588Y-140169819D02*
X103198683Y-140169819D01*
X102008207Y-139169819D02*
X101817731Y-139169819D01*
X101817731Y-139169819D02*
X101722493Y-139217438D01*
X101722493Y-139217438D02*
X101627255Y-139312676D01*
X101627255Y-139312676D02*
X101579636Y-139503152D01*
X101579636Y-139503152D02*
X101579636Y-139836485D01*
X101579636Y-139836485D02*
X101627255Y-140026961D01*
X101627255Y-140026961D02*
X101722493Y-140122200D01*
X101722493Y-140122200D02*
X101817731Y-140169819D01*
X101817731Y-140169819D02*
X102008207Y-140169819D01*
X102008207Y-140169819D02*
X102103445Y-140122200D01*
X102103445Y-140122200D02*
X102198683Y-140026961D01*
X102198683Y-140026961D02*
X102246302Y-139836485D01*
X102246302Y-139836485D02*
X102246302Y-139503152D01*
X102246302Y-139503152D02*
X102198683Y-139312676D01*
X102198683Y-139312676D02*
X102103445Y-139217438D01*
X102103445Y-139217438D02*
X102008207Y-139169819D01*
X101246302Y-139169819D02*
X101008207Y-140169819D01*
X101008207Y-140169819D02*
X100817731Y-139455533D01*
X100817731Y-139455533D02*
X100627255Y-140169819D01*
X100627255Y-140169819D02*
X100389160Y-139169819D01*
X100008207Y-140169819D02*
X100008207Y-139169819D01*
X100008207Y-139169819D02*
X99436779Y-140169819D01*
X99436779Y-140169819D02*
X99436779Y-139169819D01*
X120039411Y-149417438D02*
X120134649Y-149369819D01*
X120134649Y-149369819D02*
X120277506Y-149369819D01*
X120277506Y-149369819D02*
X120420363Y-149417438D01*
X120420363Y-149417438D02*
X120515601Y-149512676D01*
X120515601Y-149512676D02*
X120563220Y-149607914D01*
X120563220Y-149607914D02*
X120610839Y-149798390D01*
X120610839Y-149798390D02*
X120610839Y-149941247D01*
X120610839Y-149941247D02*
X120563220Y-150131723D01*
X120563220Y-150131723D02*
X120515601Y-150226961D01*
X120515601Y-150226961D02*
X120420363Y-150322200D01*
X120420363Y-150322200D02*
X120277506Y-150369819D01*
X120277506Y-150369819D02*
X120182268Y-150369819D01*
X120182268Y-150369819D02*
X120039411Y-150322200D01*
X120039411Y-150322200D02*
X119991792Y-150274580D01*
X119991792Y-150274580D02*
X119991792Y-149941247D01*
X119991792Y-149941247D02*
X120182268Y-149941247D01*
X119563220Y-150369819D02*
X119563220Y-149369819D01*
X119563220Y-149369819D02*
X118991792Y-150369819D01*
X118991792Y-150369819D02*
X118991792Y-149369819D01*
X118515601Y-150369819D02*
X118515601Y-149369819D01*
X118515601Y-149369819D02*
X118277506Y-149369819D01*
X118277506Y-149369819D02*
X118134649Y-149417438D01*
X118134649Y-149417438D02*
X118039411Y-149512676D01*
X118039411Y-149512676D02*
X117991792Y-149607914D01*
X117991792Y-149607914D02*
X117944173Y-149798390D01*
X117944173Y-149798390D02*
X117944173Y-149941247D01*
X117944173Y-149941247D02*
X117991792Y-150131723D01*
X117991792Y-150131723D02*
X118039411Y-150226961D01*
X118039411Y-150226961D02*
X118134649Y-150322200D01*
X118134649Y-150322200D02*
X118277506Y-150369819D01*
X118277506Y-150369819D02*
X118515601Y-150369819D01*
X120610839Y-132522200D02*
X120467982Y-132569819D01*
X120467982Y-132569819D02*
X120229887Y-132569819D01*
X120229887Y-132569819D02*
X120134649Y-132522200D01*
X120134649Y-132522200D02*
X120087030Y-132474580D01*
X120087030Y-132474580D02*
X120039411Y-132379342D01*
X120039411Y-132379342D02*
X120039411Y-132284104D01*
X120039411Y-132284104D02*
X120087030Y-132188866D01*
X120087030Y-132188866D02*
X120134649Y-132141247D01*
X120134649Y-132141247D02*
X120229887Y-132093628D01*
X120229887Y-132093628D02*
X120420363Y-132046009D01*
X120420363Y-132046009D02*
X120515601Y-131998390D01*
X120515601Y-131998390D02*
X120563220Y-131950771D01*
X120563220Y-131950771D02*
X120610839Y-131855533D01*
X120610839Y-131855533D02*
X120610839Y-131760295D01*
X120610839Y-131760295D02*
X120563220Y-131665057D01*
X120563220Y-131665057D02*
X120515601Y-131617438D01*
X120515601Y-131617438D02*
X120420363Y-131569819D01*
X120420363Y-131569819D02*
X120182268Y-131569819D01*
X120182268Y-131569819D02*
X120039411Y-131617438D01*
X119610839Y-132569819D02*
X119610839Y-131569819D01*
X119610839Y-131569819D02*
X119229887Y-131569819D01*
X119229887Y-131569819D02*
X119134649Y-131617438D01*
X119134649Y-131617438D02*
X119087030Y-131665057D01*
X119087030Y-131665057D02*
X119039411Y-131760295D01*
X119039411Y-131760295D02*
X119039411Y-131903152D01*
X119039411Y-131903152D02*
X119087030Y-131998390D01*
X119087030Y-131998390D02*
X119134649Y-132046009D01*
X119134649Y-132046009D02*
X119229887Y-132093628D01*
X119229887Y-132093628D02*
X119610839Y-132093628D01*
X118610839Y-132569819D02*
X118610839Y-131569819D01*
X118372745Y-132665057D02*
X117610840Y-132665057D01*
X116801316Y-132474580D02*
X116848935Y-132522200D01*
X116848935Y-132522200D02*
X116991792Y-132569819D01*
X116991792Y-132569819D02*
X117087030Y-132569819D01*
X117087030Y-132569819D02*
X117229887Y-132522200D01*
X117229887Y-132522200D02*
X117325125Y-132426961D01*
X117325125Y-132426961D02*
X117372744Y-132331723D01*
X117372744Y-132331723D02*
X117420363Y-132141247D01*
X117420363Y-132141247D02*
X117420363Y-131998390D01*
X117420363Y-131998390D02*
X117372744Y-131807914D01*
X117372744Y-131807914D02*
X117325125Y-131712676D01*
X117325125Y-131712676D02*
X117229887Y-131617438D01*
X117229887Y-131617438D02*
X117087030Y-131569819D01*
X117087030Y-131569819D02*
X116991792Y-131569819D01*
X116991792Y-131569819D02*
X116848935Y-131617438D01*
X116848935Y-131617438D02*
X116801316Y-131665057D01*
X115896554Y-132569819D02*
X116372744Y-132569819D01*
X116372744Y-132569819D02*
X116372744Y-131569819D01*
X115563220Y-132569819D02*
X115563220Y-131569819D01*
X114991792Y-132569819D02*
X115420363Y-131998390D01*
X114991792Y-131569819D02*
X115563220Y-132141247D01*
G36*
X106318628Y-89700026D02*
G01*
X106284370Y-89768542D01*
X106253963Y-89798949D01*
X106185447Y-89833207D01*
X106078000Y-89833207D01*
X106009484Y-89798949D01*
X105979077Y-89768542D01*
X105944819Y-89700026D01*
X105944819Y-89411779D01*
X106318628Y-89411779D01*
X106318628Y-89700026D01*
G37*
G36*
X107055930Y-92950872D02*
G01*
X105683708Y-92950872D01*
X105683708Y-92089304D01*
X105795408Y-92089304D01*
X105797483Y-92118494D01*
X105810569Y-92144667D01*
X105832676Y-92163841D01*
X105846102Y-92169835D01*
X106632648Y-92432017D01*
X105846102Y-92694199D01*
X105832676Y-92700193D01*
X105810569Y-92719367D01*
X105797483Y-92745540D01*
X105795408Y-92774730D01*
X105804662Y-92802493D01*
X105823836Y-92824600D01*
X105850009Y-92837686D01*
X105879199Y-92839761D01*
X105893536Y-92836501D01*
X106893536Y-92503168D01*
X106906961Y-92497174D01*
X106911008Y-92493663D01*
X106915802Y-92491267D01*
X106921966Y-92484159D01*
X106929068Y-92478000D01*
X106931463Y-92473208D01*
X106934976Y-92469159D01*
X106937950Y-92460236D01*
X106942155Y-92451827D01*
X106942534Y-92446482D01*
X106944230Y-92441397D01*
X106943563Y-92432017D01*
X106944230Y-92422637D01*
X106942534Y-92417551D01*
X106942155Y-92412207D01*
X106937950Y-92403797D01*
X106934976Y-92394875D01*
X106931463Y-92390825D01*
X106929068Y-92386034D01*
X106921966Y-92379874D01*
X106915802Y-92372767D01*
X106911008Y-92370370D01*
X106906961Y-92366860D01*
X106893536Y-92360866D01*
X105893536Y-92027533D01*
X105879199Y-92024273D01*
X105850009Y-92026348D01*
X105823836Y-92039434D01*
X105804662Y-92061541D01*
X105795408Y-92089304D01*
X105683708Y-92089304D01*
X105683708Y-91527255D01*
X105794819Y-91527255D01*
X105794819Y-91622493D01*
X105795548Y-91629898D01*
X105795408Y-91631873D01*
X105795998Y-91634470D01*
X105796260Y-91637125D01*
X105797018Y-91638956D01*
X105798668Y-91646210D01*
X105846287Y-91789067D01*
X105852281Y-91802492D01*
X105854046Y-91804527D01*
X105855078Y-91807018D01*
X105864405Y-91818383D01*
X105912024Y-91866002D01*
X105923389Y-91875329D01*
X105950425Y-91886528D01*
X105979688Y-91886528D01*
X106006724Y-91875329D01*
X106027417Y-91854636D01*
X106038616Y-91827600D01*
X106038616Y-91798337D01*
X106027417Y-91771301D01*
X106018090Y-91759936D01*
X105982990Y-91724836D01*
X105944819Y-91610322D01*
X105944819Y-91539425D01*
X105982990Y-91424911D01*
X106057103Y-91350799D01*
X106134090Y-91312305D01*
X106307624Y-91268922D01*
X106432013Y-91268922D01*
X106605547Y-91312305D01*
X106682534Y-91350799D01*
X106756648Y-91424912D01*
X106794819Y-91539425D01*
X106794819Y-91610323D01*
X106756648Y-91724835D01*
X106721548Y-91759935D01*
X106712220Y-91771301D01*
X106701021Y-91798337D01*
X106701021Y-91827600D01*
X106712219Y-91854636D01*
X106732912Y-91875329D01*
X106759948Y-91886528D01*
X106789211Y-91886528D01*
X106816247Y-91875330D01*
X106827612Y-91866003D01*
X106875232Y-91818384D01*
X106884560Y-91807018D01*
X106885590Y-91804529D01*
X106887357Y-91802493D01*
X106893351Y-91789067D01*
X106940970Y-91646211D01*
X106942619Y-91638955D01*
X106943378Y-91637125D01*
X106943639Y-91634471D01*
X106944230Y-91631874D01*
X106944089Y-91629899D01*
X106944819Y-91622493D01*
X106944819Y-91527255D01*
X106944089Y-91519848D01*
X106944230Y-91517874D01*
X106943639Y-91515276D01*
X106943378Y-91512623D01*
X106942619Y-91510792D01*
X106940970Y-91503537D01*
X106893351Y-91360681D01*
X106887357Y-91347255D01*
X106885592Y-91345220D01*
X106884561Y-91342730D01*
X106875233Y-91331365D01*
X106779994Y-91236127D01*
X106774244Y-91231408D01*
X106772945Y-91229910D01*
X106770686Y-91228488D01*
X106768628Y-91226799D01*
X106766798Y-91226041D01*
X106760502Y-91222078D01*
X106665264Y-91174459D01*
X106664194Y-91174049D01*
X106663759Y-91173727D01*
X106657613Y-91171531D01*
X106651532Y-91169204D01*
X106650992Y-91169165D01*
X106649913Y-91168780D01*
X106459437Y-91121161D01*
X106456900Y-91120785D01*
X106455879Y-91120363D01*
X106450366Y-91119820D01*
X106444893Y-91119011D01*
X106443800Y-91119173D01*
X106441247Y-91118922D01*
X106298390Y-91118922D01*
X106295836Y-91119173D01*
X106294744Y-91119011D01*
X106289270Y-91119820D01*
X106283758Y-91120363D01*
X106282736Y-91120785D01*
X106280200Y-91121161D01*
X106089724Y-91168780D01*
X106088644Y-91169165D01*
X106088104Y-91169204D01*
X106082014Y-91171534D01*
X106075878Y-91173727D01*
X106075442Y-91174049D01*
X106074373Y-91174459D01*
X105979135Y-91222078D01*
X105972840Y-91226040D01*
X105971008Y-91226799D01*
X105968946Y-91228490D01*
X105966692Y-91229910D01*
X105965393Y-91231406D01*
X105959643Y-91236127D01*
X105864405Y-91331365D01*
X105855078Y-91342730D01*
X105854046Y-91345220D01*
X105852281Y-91347256D01*
X105846287Y-91360681D01*
X105798668Y-91503538D01*
X105797018Y-91510791D01*
X105796260Y-91512623D01*
X105795998Y-91515277D01*
X105795408Y-91517875D01*
X105795548Y-91519849D01*
X105794819Y-91527255D01*
X105683708Y-91527255D01*
X105683708Y-90336779D01*
X105794819Y-90336779D01*
X105794819Y-90812969D01*
X105796260Y-90827601D01*
X105807459Y-90854637D01*
X105828151Y-90875329D01*
X105855187Y-90886528D01*
X105884451Y-90886528D01*
X105911487Y-90875329D01*
X105932179Y-90854637D01*
X105943378Y-90827601D01*
X105944819Y-90812969D01*
X105944819Y-90411779D01*
X106271009Y-90411779D01*
X106271009Y-90670112D01*
X106272450Y-90684744D01*
X106283649Y-90711780D01*
X106304341Y-90732472D01*
X106331377Y-90743671D01*
X106360641Y-90743671D01*
X106387677Y-90732472D01*
X106408369Y-90711780D01*
X106419568Y-90684744D01*
X106421009Y-90670112D01*
X106421009Y-90411779D01*
X106794819Y-90411779D01*
X106794819Y-90812969D01*
X106796260Y-90827601D01*
X106807459Y-90854637D01*
X106828151Y-90875329D01*
X106855187Y-90886528D01*
X106884451Y-90886528D01*
X106911487Y-90875329D01*
X106932179Y-90854637D01*
X106943378Y-90827601D01*
X106944819Y-90812969D01*
X106944819Y-90336779D01*
X106943378Y-90322147D01*
X106932179Y-90295111D01*
X106911487Y-90274419D01*
X106884451Y-90263220D01*
X106869819Y-90261779D01*
X105869819Y-90261779D01*
X105855187Y-90263220D01*
X105828151Y-90274419D01*
X105807459Y-90295111D01*
X105796260Y-90322147D01*
X105794819Y-90336779D01*
X105683708Y-90336779D01*
X105683708Y-89336779D01*
X105794819Y-89336779D01*
X105794819Y-89717731D01*
X105796260Y-89732363D01*
X105797291Y-89734852D01*
X105797482Y-89737540D01*
X105802737Y-89751272D01*
X105850356Y-89846510D01*
X105854320Y-89852809D01*
X105855078Y-89854637D01*
X105856766Y-89856693D01*
X105858188Y-89858953D01*
X105859686Y-89860252D01*
X105864405Y-89866002D01*
X105912024Y-89913621D01*
X105917773Y-89918339D01*
X105919073Y-89919838D01*
X105921332Y-89921259D01*
X105923389Y-89922948D01*
X105925216Y-89923705D01*
X105931516Y-89927670D01*
X106026754Y-89975289D01*
X106040485Y-89980544D01*
X106043174Y-89980735D01*
X106045663Y-89981766D01*
X106060295Y-89983207D01*
X106203152Y-89983207D01*
X106217784Y-89981766D01*
X106220273Y-89980734D01*
X106222961Y-89980544D01*
X106236693Y-89975289D01*
X106331931Y-89927670D01*
X106338230Y-89923705D01*
X106340058Y-89922948D01*
X106342114Y-89921259D01*
X106344374Y-89919838D01*
X106345673Y-89918339D01*
X106351423Y-89913621D01*
X106399042Y-89866002D01*
X106403760Y-89860252D01*
X106405259Y-89858953D01*
X106406680Y-89856693D01*
X106408369Y-89854637D01*
X106409126Y-89852809D01*
X106413091Y-89846510D01*
X106460710Y-89751272D01*
X106465965Y-89737541D01*
X106466156Y-89734851D01*
X106467187Y-89732363D01*
X106468518Y-89718846D01*
X106826810Y-89969650D01*
X106839623Y-89976860D01*
X106868194Y-89983189D01*
X106897012Y-89978104D01*
X106921690Y-89962377D01*
X106938472Y-89938403D01*
X106944802Y-89909832D01*
X106939716Y-89881015D01*
X106923989Y-89856336D01*
X106912829Y-89846765D01*
X106468628Y-89535824D01*
X106468628Y-89411779D01*
X106869819Y-89411779D01*
X106884451Y-89410338D01*
X106911487Y-89399139D01*
X106932179Y-89378447D01*
X106943378Y-89351411D01*
X106943378Y-89322147D01*
X106932179Y-89295111D01*
X106911487Y-89274419D01*
X106884451Y-89263220D01*
X106869819Y-89261779D01*
X105869819Y-89261779D01*
X105855187Y-89263220D01*
X105828151Y-89274419D01*
X105807459Y-89295111D01*
X105796260Y-89322147D01*
X105794819Y-89336779D01*
X105683708Y-89336779D01*
X105683708Y-89150668D01*
X107055930Y-89150668D01*
X107055930Y-92950872D01*
G37*
X120610839Y-135022200D02*
X120467982Y-135069819D01*
X120467982Y-135069819D02*
X120229887Y-135069819D01*
X120229887Y-135069819D02*
X120134649Y-135022200D01*
X120134649Y-135022200D02*
X120087030Y-134974580D01*
X120087030Y-134974580D02*
X120039411Y-134879342D01*
X120039411Y-134879342D02*
X120039411Y-134784104D01*
X120039411Y-134784104D02*
X120087030Y-134688866D01*
X120087030Y-134688866D02*
X120134649Y-134641247D01*
X120134649Y-134641247D02*
X120229887Y-134593628D01*
X120229887Y-134593628D02*
X120420363Y-134546009D01*
X120420363Y-134546009D02*
X120515601Y-134498390D01*
X120515601Y-134498390D02*
X120563220Y-134450771D01*
X120563220Y-134450771D02*
X120610839Y-134355533D01*
X120610839Y-134355533D02*
X120610839Y-134260295D01*
X120610839Y-134260295D02*
X120563220Y-134165057D01*
X120563220Y-134165057D02*
X120515601Y-134117438D01*
X120515601Y-134117438D02*
X120420363Y-134069819D01*
X120420363Y-134069819D02*
X120182268Y-134069819D01*
X120182268Y-134069819D02*
X120039411Y-134117438D01*
X119610839Y-135069819D02*
X119610839Y-134069819D01*
X119610839Y-134069819D02*
X119229887Y-134069819D01*
X119229887Y-134069819D02*
X119134649Y-134117438D01*
X119134649Y-134117438D02*
X119087030Y-134165057D01*
X119087030Y-134165057D02*
X119039411Y-134260295D01*
X119039411Y-134260295D02*
X119039411Y-134403152D01*
X119039411Y-134403152D02*
X119087030Y-134498390D01*
X119087030Y-134498390D02*
X119134649Y-134546009D01*
X119134649Y-134546009D02*
X119229887Y-134593628D01*
X119229887Y-134593628D02*
X119610839Y-134593628D01*
X118610839Y-135069819D02*
X118610839Y-134069819D01*
X118372745Y-135165057D02*
X117610840Y-135165057D01*
X117372744Y-135069819D02*
X117372744Y-134069819D01*
X117372744Y-134069819D02*
X117039411Y-134784104D01*
X117039411Y-134784104D02*
X116706078Y-134069819D01*
X116706078Y-134069819D02*
X116706078Y-135069819D01*
X116039411Y-134069819D02*
X115848935Y-134069819D01*
X115848935Y-134069819D02*
X115753697Y-134117438D01*
X115753697Y-134117438D02*
X115658459Y-134212676D01*
X115658459Y-134212676D02*
X115610840Y-134403152D01*
X115610840Y-134403152D02*
X115610840Y-134736485D01*
X115610840Y-134736485D02*
X115658459Y-134926961D01*
X115658459Y-134926961D02*
X115753697Y-135022200D01*
X115753697Y-135022200D02*
X115848935Y-135069819D01*
X115848935Y-135069819D02*
X116039411Y-135069819D01*
X116039411Y-135069819D02*
X116134649Y-135022200D01*
X116134649Y-135022200D02*
X116229887Y-134926961D01*
X116229887Y-134926961D02*
X116277506Y-134736485D01*
X116277506Y-134736485D02*
X116277506Y-134403152D01*
X116277506Y-134403152D02*
X116229887Y-134212676D01*
X116229887Y-134212676D02*
X116134649Y-134117438D01*
X116134649Y-134117438D02*
X116039411Y-134069819D01*
X115229887Y-135022200D02*
X115087030Y-135069819D01*
X115087030Y-135069819D02*
X114848935Y-135069819D01*
X114848935Y-135069819D02*
X114753697Y-135022200D01*
X114753697Y-135022200D02*
X114706078Y-134974580D01*
X114706078Y-134974580D02*
X114658459Y-134879342D01*
X114658459Y-134879342D02*
X114658459Y-134784104D01*
X114658459Y-134784104D02*
X114706078Y-134688866D01*
X114706078Y-134688866D02*
X114753697Y-134641247D01*
X114753697Y-134641247D02*
X114848935Y-134593628D01*
X114848935Y-134593628D02*
X115039411Y-134546009D01*
X115039411Y-134546009D02*
X115134649Y-134498390D01*
X115134649Y-134498390D02*
X115182268Y-134450771D01*
X115182268Y-134450771D02*
X115229887Y-134355533D01*
X115229887Y-134355533D02*
X115229887Y-134260295D01*
X115229887Y-134260295D02*
X115182268Y-134165057D01*
X115182268Y-134165057D02*
X115134649Y-134117438D01*
X115134649Y-134117438D02*
X115039411Y-134069819D01*
X115039411Y-134069819D02*
X114801316Y-134069819D01*
X114801316Y-134069819D02*
X114658459Y-134117438D01*
X114229887Y-135069819D02*
X114229887Y-134069819D01*
X105103445Y-135069819D02*
X105103445Y-134069819D01*
X105103445Y-134069819D02*
X104865350Y-134069819D01*
X104865350Y-134069819D02*
X104722493Y-134117438D01*
X104722493Y-134117438D02*
X104627255Y-134212676D01*
X104627255Y-134212676D02*
X104579636Y-134307914D01*
X104579636Y-134307914D02*
X104532017Y-134498390D01*
X104532017Y-134498390D02*
X104532017Y-134641247D01*
X104532017Y-134641247D02*
X104579636Y-134831723D01*
X104579636Y-134831723D02*
X104627255Y-134926961D01*
X104627255Y-134926961D02*
X104722493Y-135022200D01*
X104722493Y-135022200D02*
X104865350Y-135069819D01*
X104865350Y-135069819D02*
X105103445Y-135069819D01*
X104103445Y-135069819D02*
X104103445Y-134069819D01*
X103674874Y-135022200D02*
X103532017Y-135069819D01*
X103532017Y-135069819D02*
X103293922Y-135069819D01*
X103293922Y-135069819D02*
X103198684Y-135022200D01*
X103198684Y-135022200D02*
X103151065Y-134974580D01*
X103151065Y-134974580D02*
X103103446Y-134879342D01*
X103103446Y-134879342D02*
X103103446Y-134784104D01*
X103103446Y-134784104D02*
X103151065Y-134688866D01*
X103151065Y-134688866D02*
X103198684Y-134641247D01*
X103198684Y-134641247D02*
X103293922Y-134593628D01*
X103293922Y-134593628D02*
X103484398Y-134546009D01*
X103484398Y-134546009D02*
X103579636Y-134498390D01*
X103579636Y-134498390D02*
X103627255Y-134450771D01*
X103627255Y-134450771D02*
X103674874Y-134355533D01*
X103674874Y-134355533D02*
X103674874Y-134260295D01*
X103674874Y-134260295D02*
X103627255Y-134165057D01*
X103627255Y-134165057D02*
X103579636Y-134117438D01*
X103579636Y-134117438D02*
X103484398Y-134069819D01*
X103484398Y-134069819D02*
X103246303Y-134069819D01*
X103246303Y-134069819D02*
X103103446Y-134117438D01*
X102674874Y-135069819D02*
X102674874Y-134069819D01*
X102674874Y-134069819D02*
X102293922Y-134069819D01*
X102293922Y-134069819D02*
X102198684Y-134117438D01*
X102198684Y-134117438D02*
X102151065Y-134165057D01*
X102151065Y-134165057D02*
X102103446Y-134260295D01*
X102103446Y-134260295D02*
X102103446Y-134403152D01*
X102103446Y-134403152D02*
X102151065Y-134498390D01*
X102151065Y-134498390D02*
X102198684Y-134546009D01*
X102198684Y-134546009D02*
X102293922Y-134593628D01*
X102293922Y-134593628D02*
X102674874Y-134593628D01*
X101912970Y-135165057D02*
X101151065Y-135165057D01*
X100341541Y-134974580D02*
X100389160Y-135022200D01*
X100389160Y-135022200D02*
X100532017Y-135069819D01*
X100532017Y-135069819D02*
X100627255Y-135069819D01*
X100627255Y-135069819D02*
X100770112Y-135022200D01*
X100770112Y-135022200D02*
X100865350Y-134926961D01*
X100865350Y-134926961D02*
X100912969Y-134831723D01*
X100912969Y-134831723D02*
X100960588Y-134641247D01*
X100960588Y-134641247D02*
X100960588Y-134498390D01*
X100960588Y-134498390D02*
X100912969Y-134307914D01*
X100912969Y-134307914D02*
X100865350Y-134212676D01*
X100865350Y-134212676D02*
X100770112Y-134117438D01*
X100770112Y-134117438D02*
X100627255Y-134069819D01*
X100627255Y-134069819D02*
X100532017Y-134069819D01*
X100532017Y-134069819D02*
X100389160Y-134117438D01*
X100389160Y-134117438D02*
X100341541Y-134165057D01*
X99960588Y-135022200D02*
X99817731Y-135069819D01*
X99817731Y-135069819D02*
X99579636Y-135069819D01*
X99579636Y-135069819D02*
X99484398Y-135022200D01*
X99484398Y-135022200D02*
X99436779Y-134974580D01*
X99436779Y-134974580D02*
X99389160Y-134879342D01*
X99389160Y-134879342D02*
X99389160Y-134784104D01*
X99389160Y-134784104D02*
X99436779Y-134688866D01*
X99436779Y-134688866D02*
X99484398Y-134641247D01*
X99484398Y-134641247D02*
X99579636Y-134593628D01*
X99579636Y-134593628D02*
X99770112Y-134546009D01*
X99770112Y-134546009D02*
X99865350Y-134498390D01*
X99865350Y-134498390D02*
X99912969Y-134450771D01*
X99912969Y-134450771D02*
X99960588Y-134355533D01*
X99960588Y-134355533D02*
X99960588Y-134260295D01*
X99960588Y-134260295D02*
X99912969Y-134165057D01*
X99912969Y-134165057D02*
X99865350Y-134117438D01*
X99865350Y-134117438D02*
X99770112Y-134069819D01*
X99770112Y-134069819D02*
X99532017Y-134069819D01*
X99532017Y-134069819D02*
X99389160Y-134117438D01*
X126328750Y-104208207D02*
X126290655Y-104132017D01*
X126290655Y-104132017D02*
X126290655Y-104017731D01*
X126290655Y-104017731D02*
X126328750Y-103903445D01*
X126328750Y-103903445D02*
X126404940Y-103827255D01*
X126404940Y-103827255D02*
X126481131Y-103789160D01*
X126481131Y-103789160D02*
X126633512Y-103751064D01*
X126633512Y-103751064D02*
X126747798Y-103751064D01*
X126747798Y-103751064D02*
X126900179Y-103789160D01*
X126900179Y-103789160D02*
X126976369Y-103827255D01*
X126976369Y-103827255D02*
X127052560Y-103903445D01*
X127052560Y-103903445D02*
X127090655Y-104017731D01*
X127090655Y-104017731D02*
X127090655Y-104093922D01*
X127090655Y-104093922D02*
X127052560Y-104208207D01*
X127052560Y-104208207D02*
X127014464Y-104246303D01*
X127014464Y-104246303D02*
X126747798Y-104246303D01*
X126747798Y-104246303D02*
X126747798Y-104093922D01*
X127090655Y-104589160D02*
X126290655Y-104589160D01*
X126290655Y-104589160D02*
X127090655Y-105046303D01*
X127090655Y-105046303D02*
X126290655Y-105046303D01*
X127090655Y-105427255D02*
X126290655Y-105427255D01*
X126290655Y-105427255D02*
X126290655Y-105617731D01*
X126290655Y-105617731D02*
X126328750Y-105732017D01*
X126328750Y-105732017D02*
X126404940Y-105808207D01*
X126404940Y-105808207D02*
X126481131Y-105846302D01*
X126481131Y-105846302D02*
X126633512Y-105884398D01*
X126633512Y-105884398D02*
X126747798Y-105884398D01*
X126747798Y-105884398D02*
X126900179Y-105846302D01*
X126900179Y-105846302D02*
X126976369Y-105808207D01*
X126976369Y-105808207D02*
X127052560Y-105732017D01*
X127052560Y-105732017D02*
X127090655Y-105617731D01*
X127090655Y-105617731D02*
X127090655Y-105427255D01*
X128378610Y-103712969D02*
X127845276Y-104132017D01*
X127845276Y-103712969D02*
X128378610Y-104132017D01*
X129666565Y-103712969D02*
X129133231Y-104132017D01*
X129133231Y-103712969D02*
X129666565Y-104132017D01*
X130954520Y-104246303D02*
X130573567Y-103979636D01*
X130954520Y-103789160D02*
X130154520Y-103789160D01*
X130154520Y-103789160D02*
X130154520Y-104093922D01*
X130154520Y-104093922D02*
X130192615Y-104170112D01*
X130192615Y-104170112D02*
X130230710Y-104208207D01*
X130230710Y-104208207D02*
X130306901Y-104246303D01*
X130306901Y-104246303D02*
X130421186Y-104246303D01*
X130421186Y-104246303D02*
X130497377Y-104208207D01*
X130497377Y-104208207D02*
X130535472Y-104170112D01*
X130535472Y-104170112D02*
X130573567Y-104093922D01*
X130573567Y-104093922D02*
X130573567Y-103789160D01*
X130916425Y-104551064D02*
X130954520Y-104665350D01*
X130954520Y-104665350D02*
X130954520Y-104855826D01*
X130954520Y-104855826D02*
X130916425Y-104932017D01*
X130916425Y-104932017D02*
X130878329Y-104970112D01*
X130878329Y-104970112D02*
X130802139Y-105008207D01*
X130802139Y-105008207D02*
X130725948Y-105008207D01*
X130725948Y-105008207D02*
X130649758Y-104970112D01*
X130649758Y-104970112D02*
X130611663Y-104932017D01*
X130611663Y-104932017D02*
X130573567Y-104855826D01*
X130573567Y-104855826D02*
X130535472Y-104703445D01*
X130535472Y-104703445D02*
X130497377Y-104627255D01*
X130497377Y-104627255D02*
X130459282Y-104589160D01*
X130459282Y-104589160D02*
X130383091Y-104551064D01*
X130383091Y-104551064D02*
X130306901Y-104551064D01*
X130306901Y-104551064D02*
X130230710Y-104589160D01*
X130230710Y-104589160D02*
X130192615Y-104627255D01*
X130192615Y-104627255D02*
X130154520Y-104703445D01*
X130154520Y-104703445D02*
X130154520Y-104893922D01*
X130154520Y-104893922D02*
X130192615Y-105008207D01*
X130916425Y-105312969D02*
X130954520Y-105427255D01*
X130954520Y-105427255D02*
X130954520Y-105617731D01*
X130954520Y-105617731D02*
X130916425Y-105693922D01*
X130916425Y-105693922D02*
X130878329Y-105732017D01*
X130878329Y-105732017D02*
X130802139Y-105770112D01*
X130802139Y-105770112D02*
X130725948Y-105770112D01*
X130725948Y-105770112D02*
X130649758Y-105732017D01*
X130649758Y-105732017D02*
X130611663Y-105693922D01*
X130611663Y-105693922D02*
X130573567Y-105617731D01*
X130573567Y-105617731D02*
X130535472Y-105465350D01*
X130535472Y-105465350D02*
X130497377Y-105389160D01*
X130497377Y-105389160D02*
X130459282Y-105351065D01*
X130459282Y-105351065D02*
X130383091Y-105312969D01*
X130383091Y-105312969D02*
X130306901Y-105312969D01*
X130306901Y-105312969D02*
X130230710Y-105351065D01*
X130230710Y-105351065D02*
X130192615Y-105389160D01*
X130192615Y-105389160D02*
X130154520Y-105465350D01*
X130154520Y-105465350D02*
X130154520Y-105655827D01*
X130154520Y-105655827D02*
X130192615Y-105770112D01*
X130954520Y-106112970D02*
X130154520Y-106112970D01*
X131442475Y-103674874D02*
X132242475Y-103941541D01*
X132242475Y-103941541D02*
X131442475Y-104208207D01*
X131937713Y-104474874D02*
X131937713Y-105084398D01*
X132242475Y-104779636D02*
X131632951Y-104779636D01*
X132768525Y-104208207D02*
X132730430Y-104132017D01*
X132730430Y-104132017D02*
X132730430Y-104017731D01*
X132730430Y-104017731D02*
X132768525Y-103903445D01*
X132768525Y-103903445D02*
X132844715Y-103827255D01*
X132844715Y-103827255D02*
X132920906Y-103789160D01*
X132920906Y-103789160D02*
X133073287Y-103751064D01*
X133073287Y-103751064D02*
X133187573Y-103751064D01*
X133187573Y-103751064D02*
X133339954Y-103789160D01*
X133339954Y-103789160D02*
X133416144Y-103827255D01*
X133416144Y-103827255D02*
X133492335Y-103903445D01*
X133492335Y-103903445D02*
X133530430Y-104017731D01*
X133530430Y-104017731D02*
X133530430Y-104093922D01*
X133530430Y-104093922D02*
X133492335Y-104208207D01*
X133492335Y-104208207D02*
X133454239Y-104246303D01*
X133454239Y-104246303D02*
X133187573Y-104246303D01*
X133187573Y-104246303D02*
X133187573Y-104093922D01*
X133530430Y-104589160D02*
X132730430Y-104589160D01*
X132730430Y-104589160D02*
X133530430Y-105046303D01*
X133530430Y-105046303D02*
X132730430Y-105046303D01*
X133530430Y-105427255D02*
X132730430Y-105427255D01*
X132730430Y-105427255D02*
X132730430Y-105617731D01*
X132730430Y-105617731D02*
X132768525Y-105732017D01*
X132768525Y-105732017D02*
X132844715Y-105808207D01*
X132844715Y-105808207D02*
X132920906Y-105846302D01*
X132920906Y-105846302D02*
X133073287Y-105884398D01*
X133073287Y-105884398D02*
X133187573Y-105884398D01*
X133187573Y-105884398D02*
X133339954Y-105846302D01*
X133339954Y-105846302D02*
X133416144Y-105808207D01*
X133416144Y-105808207D02*
X133492335Y-105732017D01*
X133492335Y-105732017D02*
X133530430Y-105617731D01*
X133530430Y-105617731D02*
X133530430Y-105427255D01*
X134742194Y-104246303D02*
X134780290Y-104208207D01*
X134780290Y-104208207D02*
X134818385Y-104093922D01*
X134818385Y-104093922D02*
X134818385Y-104017731D01*
X134818385Y-104017731D02*
X134780290Y-103903445D01*
X134780290Y-103903445D02*
X134704099Y-103827255D01*
X134704099Y-103827255D02*
X134627909Y-103789160D01*
X134627909Y-103789160D02*
X134475528Y-103751064D01*
X134475528Y-103751064D02*
X134361242Y-103751064D01*
X134361242Y-103751064D02*
X134208861Y-103789160D01*
X134208861Y-103789160D02*
X134132670Y-103827255D01*
X134132670Y-103827255D02*
X134056480Y-103903445D01*
X134056480Y-103903445D02*
X134018385Y-104017731D01*
X134018385Y-104017731D02*
X134018385Y-104093922D01*
X134018385Y-104093922D02*
X134056480Y-104208207D01*
X134056480Y-104208207D02*
X134094575Y-104246303D01*
X134818385Y-104970112D02*
X134818385Y-104589160D01*
X134818385Y-104589160D02*
X134018385Y-104589160D01*
X134818385Y-105236779D02*
X134018385Y-105236779D01*
X134818385Y-105693922D02*
X134361242Y-105351064D01*
X134018385Y-105693922D02*
X134475528Y-105236779D01*
X136030149Y-104246303D02*
X136068245Y-104208207D01*
X136068245Y-104208207D02*
X136106340Y-104093922D01*
X136106340Y-104093922D02*
X136106340Y-104017731D01*
X136106340Y-104017731D02*
X136068245Y-103903445D01*
X136068245Y-103903445D02*
X135992054Y-103827255D01*
X135992054Y-103827255D02*
X135915864Y-103789160D01*
X135915864Y-103789160D02*
X135763483Y-103751064D01*
X135763483Y-103751064D02*
X135649197Y-103751064D01*
X135649197Y-103751064D02*
X135496816Y-103789160D01*
X135496816Y-103789160D02*
X135420625Y-103827255D01*
X135420625Y-103827255D02*
X135344435Y-103903445D01*
X135344435Y-103903445D02*
X135306340Y-104017731D01*
X135306340Y-104017731D02*
X135306340Y-104093922D01*
X135306340Y-104093922D02*
X135344435Y-104208207D01*
X135344435Y-104208207D02*
X135382530Y-104246303D01*
X136068245Y-104551064D02*
X136106340Y-104665350D01*
X136106340Y-104665350D02*
X136106340Y-104855826D01*
X136106340Y-104855826D02*
X136068245Y-104932017D01*
X136068245Y-104932017D02*
X136030149Y-104970112D01*
X136030149Y-104970112D02*
X135953959Y-105008207D01*
X135953959Y-105008207D02*
X135877768Y-105008207D01*
X135877768Y-105008207D02*
X135801578Y-104970112D01*
X135801578Y-104970112D02*
X135763483Y-104932017D01*
X135763483Y-104932017D02*
X135725387Y-104855826D01*
X135725387Y-104855826D02*
X135687292Y-104703445D01*
X135687292Y-104703445D02*
X135649197Y-104627255D01*
X135649197Y-104627255D02*
X135611102Y-104589160D01*
X135611102Y-104589160D02*
X135534911Y-104551064D01*
X135534911Y-104551064D02*
X135458721Y-104551064D01*
X135458721Y-104551064D02*
X135382530Y-104589160D01*
X135382530Y-104589160D02*
X135344435Y-104627255D01*
X135344435Y-104627255D02*
X135306340Y-104703445D01*
X135306340Y-104703445D02*
X135306340Y-104893922D01*
X135306340Y-104893922D02*
X135344435Y-105008207D01*
X137394295Y-103789160D02*
X136594295Y-103789160D01*
X136594295Y-103789160D02*
X137165723Y-104055826D01*
X137165723Y-104055826D02*
X136594295Y-104322493D01*
X136594295Y-104322493D02*
X137394295Y-104322493D01*
X136594295Y-104855827D02*
X136594295Y-105008208D01*
X136594295Y-105008208D02*
X136632390Y-105084398D01*
X136632390Y-105084398D02*
X136708580Y-105160589D01*
X136708580Y-105160589D02*
X136860961Y-105198684D01*
X136860961Y-105198684D02*
X137127628Y-105198684D01*
X137127628Y-105198684D02*
X137280009Y-105160589D01*
X137280009Y-105160589D02*
X137356200Y-105084398D01*
X137356200Y-105084398D02*
X137394295Y-105008208D01*
X137394295Y-105008208D02*
X137394295Y-104855827D01*
X137394295Y-104855827D02*
X137356200Y-104779636D01*
X137356200Y-104779636D02*
X137280009Y-104703446D01*
X137280009Y-104703446D02*
X137127628Y-104665350D01*
X137127628Y-104665350D02*
X136860961Y-104665350D01*
X136860961Y-104665350D02*
X136708580Y-104703446D01*
X136708580Y-104703446D02*
X136632390Y-104779636D01*
X136632390Y-104779636D02*
X136594295Y-104855827D01*
X137356200Y-105503445D02*
X137394295Y-105617731D01*
X137394295Y-105617731D02*
X137394295Y-105808207D01*
X137394295Y-105808207D02*
X137356200Y-105884398D01*
X137356200Y-105884398D02*
X137318104Y-105922493D01*
X137318104Y-105922493D02*
X137241914Y-105960588D01*
X137241914Y-105960588D02*
X137165723Y-105960588D01*
X137165723Y-105960588D02*
X137089533Y-105922493D01*
X137089533Y-105922493D02*
X137051438Y-105884398D01*
X137051438Y-105884398D02*
X137013342Y-105808207D01*
X137013342Y-105808207D02*
X136975247Y-105655826D01*
X136975247Y-105655826D02*
X136937152Y-105579636D01*
X136937152Y-105579636D02*
X136899057Y-105541541D01*
X136899057Y-105541541D02*
X136822866Y-105503445D01*
X136822866Y-105503445D02*
X136746676Y-105503445D01*
X136746676Y-105503445D02*
X136670485Y-105541541D01*
X136670485Y-105541541D02*
X136632390Y-105579636D01*
X136632390Y-105579636D02*
X136594295Y-105655826D01*
X136594295Y-105655826D02*
X136594295Y-105846303D01*
X136594295Y-105846303D02*
X136632390Y-105960588D01*
X137394295Y-106303446D02*
X136594295Y-106303446D01*
D11*
X138261904Y-122642533D02*
X136738095Y-122642533D01*
X137499999Y-123404438D02*
X137499999Y-121880628D01*
D10*
X120229887Y-137146009D02*
X120087030Y-137193628D01*
X120087030Y-137193628D02*
X120039411Y-137241247D01*
X120039411Y-137241247D02*
X119991792Y-137336485D01*
X119991792Y-137336485D02*
X119991792Y-137479342D01*
X119991792Y-137479342D02*
X120039411Y-137574580D01*
X120039411Y-137574580D02*
X120087030Y-137622200D01*
X120087030Y-137622200D02*
X120182268Y-137669819D01*
X120182268Y-137669819D02*
X120563220Y-137669819D01*
X120563220Y-137669819D02*
X120563220Y-136669819D01*
X120563220Y-136669819D02*
X120229887Y-136669819D01*
X120229887Y-136669819D02*
X120134649Y-136717438D01*
X120134649Y-136717438D02*
X120087030Y-136765057D01*
X120087030Y-136765057D02*
X120039411Y-136860295D01*
X120039411Y-136860295D02*
X120039411Y-136955533D01*
X120039411Y-136955533D02*
X120087030Y-137050771D01*
X120087030Y-137050771D02*
X120134649Y-137098390D01*
X120134649Y-137098390D02*
X120229887Y-137146009D01*
X120229887Y-137146009D02*
X120563220Y-137146009D01*
X119706077Y-136669819D02*
X119134649Y-136669819D01*
X119420363Y-137669819D02*
X119420363Y-136669819D01*
X118801315Y-137669819D02*
X118801315Y-136669819D01*
X118801315Y-136669819D02*
X118229887Y-137669819D01*
X118229887Y-137669819D02*
X118229887Y-136669819D01*
X117991792Y-137765057D02*
X117229887Y-137765057D01*
X116420363Y-137669819D02*
X116753696Y-137193628D01*
X116991791Y-137669819D02*
X116991791Y-136669819D01*
X116991791Y-136669819D02*
X116610839Y-136669819D01*
X116610839Y-136669819D02*
X116515601Y-136717438D01*
X116515601Y-136717438D02*
X116467982Y-136765057D01*
X116467982Y-136765057D02*
X116420363Y-136860295D01*
X116420363Y-136860295D02*
X116420363Y-137003152D01*
X116420363Y-137003152D02*
X116467982Y-137098390D01*
X116467982Y-137098390D02*
X116515601Y-137146009D01*
X116515601Y-137146009D02*
X116610839Y-137193628D01*
X116610839Y-137193628D02*
X116991791Y-137193628D01*
X115991791Y-137669819D02*
X115991791Y-136669819D01*
X114991792Y-136717438D02*
X115087030Y-136669819D01*
X115087030Y-136669819D02*
X115229887Y-136669819D01*
X115229887Y-136669819D02*
X115372744Y-136717438D01*
X115372744Y-136717438D02*
X115467982Y-136812676D01*
X115467982Y-136812676D02*
X115515601Y-136907914D01*
X115515601Y-136907914D02*
X115563220Y-137098390D01*
X115563220Y-137098390D02*
X115563220Y-137241247D01*
X115563220Y-137241247D02*
X115515601Y-137431723D01*
X115515601Y-137431723D02*
X115467982Y-137526961D01*
X115467982Y-137526961D02*
X115372744Y-137622200D01*
X115372744Y-137622200D02*
X115229887Y-137669819D01*
X115229887Y-137669819D02*
X115134649Y-137669819D01*
X115134649Y-137669819D02*
X114991792Y-137622200D01*
X114991792Y-137622200D02*
X114944173Y-137574580D01*
X114944173Y-137574580D02*
X114944173Y-137241247D01*
X114944173Y-137241247D02*
X115134649Y-137241247D01*
X114515601Y-137669819D02*
X114515601Y-136669819D01*
X114515601Y-137146009D02*
X113944173Y-137146009D01*
X113944173Y-137669819D02*
X113944173Y-136669819D01*
X113610839Y-136669819D02*
X113039411Y-136669819D01*
X113325125Y-137669819D02*
X113325125Y-136669819D01*
X104246303Y-149846009D02*
X104103446Y-149893628D01*
X104103446Y-149893628D02*
X104055827Y-149941247D01*
X104055827Y-149941247D02*
X104008208Y-150036485D01*
X104008208Y-150036485D02*
X104008208Y-150179342D01*
X104008208Y-150179342D02*
X104055827Y-150274580D01*
X104055827Y-150274580D02*
X104103446Y-150322200D01*
X104103446Y-150322200D02*
X104198684Y-150369819D01*
X104198684Y-150369819D02*
X104579636Y-150369819D01*
X104579636Y-150369819D02*
X104579636Y-149369819D01*
X104579636Y-149369819D02*
X104246303Y-149369819D01*
X104246303Y-149369819D02*
X104151065Y-149417438D01*
X104151065Y-149417438D02*
X104103446Y-149465057D01*
X104103446Y-149465057D02*
X104055827Y-149560295D01*
X104055827Y-149560295D02*
X104055827Y-149655533D01*
X104055827Y-149655533D02*
X104103446Y-149750771D01*
X104103446Y-149750771D02*
X104151065Y-149798390D01*
X104151065Y-149798390D02*
X104246303Y-149846009D01*
X104246303Y-149846009D02*
X104579636Y-149846009D01*
X103722493Y-149369819D02*
X103151065Y-149369819D01*
X103436779Y-150369819D02*
X103436779Y-149369819D01*
X102817731Y-150369819D02*
X102817731Y-149369819D01*
X102817731Y-149369819D02*
X102246303Y-150369819D01*
X102246303Y-150369819D02*
X102246303Y-149369819D01*
X102008208Y-150465057D02*
X101246303Y-150465057D01*
X101008207Y-149369819D02*
X101008207Y-150179342D01*
X101008207Y-150179342D02*
X100960588Y-150274580D01*
X100960588Y-150274580D02*
X100912969Y-150322200D01*
X100912969Y-150322200D02*
X100817731Y-150369819D01*
X100817731Y-150369819D02*
X100627255Y-150369819D01*
X100627255Y-150369819D02*
X100532017Y-150322200D01*
X100532017Y-150322200D02*
X100484398Y-150274580D01*
X100484398Y-150274580D02*
X100436779Y-150179342D01*
X100436779Y-150179342D02*
X100436779Y-149369819D01*
X99960588Y-150369819D02*
X99960588Y-149369819D01*
X99960588Y-149369819D02*
X99579636Y-149369819D01*
X99579636Y-149369819D02*
X99484398Y-149417438D01*
X99484398Y-149417438D02*
X99436779Y-149465057D01*
X99436779Y-149465057D02*
X99389160Y-149560295D01*
X99389160Y-149560295D02*
X99389160Y-149703152D01*
X99389160Y-149703152D02*
X99436779Y-149798390D01*
X99436779Y-149798390D02*
X99484398Y-149846009D01*
X99484398Y-149846009D02*
X99579636Y-149893628D01*
X99579636Y-149893628D02*
X99960588Y-149893628D01*
X112340374Y-102246303D02*
X112378470Y-102208207D01*
X112378470Y-102208207D02*
X112416565Y-102093922D01*
X112416565Y-102093922D02*
X112416565Y-102017731D01*
X112416565Y-102017731D02*
X112378470Y-101903445D01*
X112378470Y-101903445D02*
X112302279Y-101827255D01*
X112302279Y-101827255D02*
X112226089Y-101789160D01*
X112226089Y-101789160D02*
X112073708Y-101751064D01*
X112073708Y-101751064D02*
X111959422Y-101751064D01*
X111959422Y-101751064D02*
X111807041Y-101789160D01*
X111807041Y-101789160D02*
X111730850Y-101827255D01*
X111730850Y-101827255D02*
X111654660Y-101903445D01*
X111654660Y-101903445D02*
X111616565Y-102017731D01*
X111616565Y-102017731D02*
X111616565Y-102093922D01*
X111616565Y-102093922D02*
X111654660Y-102208207D01*
X111654660Y-102208207D02*
X111692755Y-102246303D01*
X112378470Y-102551064D02*
X112416565Y-102665350D01*
X112416565Y-102665350D02*
X112416565Y-102855826D01*
X112416565Y-102855826D02*
X112378470Y-102932017D01*
X112378470Y-102932017D02*
X112340374Y-102970112D01*
X112340374Y-102970112D02*
X112264184Y-103008207D01*
X112264184Y-103008207D02*
X112187993Y-103008207D01*
X112187993Y-103008207D02*
X112111803Y-102970112D01*
X112111803Y-102970112D02*
X112073708Y-102932017D01*
X112073708Y-102932017D02*
X112035612Y-102855826D01*
X112035612Y-102855826D02*
X111997517Y-102703445D01*
X111997517Y-102703445D02*
X111959422Y-102627255D01*
X111959422Y-102627255D02*
X111921327Y-102589160D01*
X111921327Y-102589160D02*
X111845136Y-102551064D01*
X111845136Y-102551064D02*
X111768946Y-102551064D01*
X111768946Y-102551064D02*
X111692755Y-102589160D01*
X111692755Y-102589160D02*
X111654660Y-102627255D01*
X111654660Y-102627255D02*
X111616565Y-102703445D01*
X111616565Y-102703445D02*
X111616565Y-102893922D01*
X111616565Y-102893922D02*
X111654660Y-103008207D01*
X113704520Y-101789160D02*
X112904520Y-101789160D01*
X112904520Y-101789160D02*
X112904520Y-101979636D01*
X112904520Y-101979636D02*
X112942615Y-102093922D01*
X112942615Y-102093922D02*
X113018805Y-102170112D01*
X113018805Y-102170112D02*
X113094996Y-102208207D01*
X113094996Y-102208207D02*
X113247377Y-102246303D01*
X113247377Y-102246303D02*
X113361663Y-102246303D01*
X113361663Y-102246303D02*
X113514044Y-102208207D01*
X113514044Y-102208207D02*
X113590234Y-102170112D01*
X113590234Y-102170112D02*
X113666425Y-102093922D01*
X113666425Y-102093922D02*
X113704520Y-101979636D01*
X113704520Y-101979636D02*
X113704520Y-101789160D01*
X113628329Y-103046303D02*
X113666425Y-103008207D01*
X113666425Y-103008207D02*
X113704520Y-102893922D01*
X113704520Y-102893922D02*
X113704520Y-102817731D01*
X113704520Y-102817731D02*
X113666425Y-102703445D01*
X113666425Y-102703445D02*
X113590234Y-102627255D01*
X113590234Y-102627255D02*
X113514044Y-102589160D01*
X113514044Y-102589160D02*
X113361663Y-102551064D01*
X113361663Y-102551064D02*
X113247377Y-102551064D01*
X113247377Y-102551064D02*
X113094996Y-102589160D01*
X113094996Y-102589160D02*
X113018805Y-102627255D01*
X113018805Y-102627255D02*
X112942615Y-102703445D01*
X112942615Y-102703445D02*
X112904520Y-102817731D01*
X112904520Y-102817731D02*
X112904520Y-102893922D01*
X112904520Y-102893922D02*
X112942615Y-103008207D01*
X112942615Y-103008207D02*
X112980710Y-103046303D01*
X114992475Y-102246303D02*
X114611522Y-101979636D01*
X114992475Y-101789160D02*
X114192475Y-101789160D01*
X114192475Y-101789160D02*
X114192475Y-102093922D01*
X114192475Y-102093922D02*
X114230570Y-102170112D01*
X114230570Y-102170112D02*
X114268665Y-102208207D01*
X114268665Y-102208207D02*
X114344856Y-102246303D01*
X114344856Y-102246303D02*
X114459141Y-102246303D01*
X114459141Y-102246303D02*
X114535332Y-102208207D01*
X114535332Y-102208207D02*
X114573427Y-102170112D01*
X114573427Y-102170112D02*
X114611522Y-102093922D01*
X114611522Y-102093922D02*
X114611522Y-101789160D01*
X114954380Y-102551064D02*
X114992475Y-102665350D01*
X114992475Y-102665350D02*
X114992475Y-102855826D01*
X114992475Y-102855826D02*
X114954380Y-102932017D01*
X114954380Y-102932017D02*
X114916284Y-102970112D01*
X114916284Y-102970112D02*
X114840094Y-103008207D01*
X114840094Y-103008207D02*
X114763903Y-103008207D01*
X114763903Y-103008207D02*
X114687713Y-102970112D01*
X114687713Y-102970112D02*
X114649618Y-102932017D01*
X114649618Y-102932017D02*
X114611522Y-102855826D01*
X114611522Y-102855826D02*
X114573427Y-102703445D01*
X114573427Y-102703445D02*
X114535332Y-102627255D01*
X114535332Y-102627255D02*
X114497237Y-102589160D01*
X114497237Y-102589160D02*
X114421046Y-102551064D01*
X114421046Y-102551064D02*
X114344856Y-102551064D01*
X114344856Y-102551064D02*
X114268665Y-102589160D01*
X114268665Y-102589160D02*
X114230570Y-102627255D01*
X114230570Y-102627255D02*
X114192475Y-102703445D01*
X114192475Y-102703445D02*
X114192475Y-102893922D01*
X114192475Y-102893922D02*
X114230570Y-103008207D01*
X114192475Y-103236779D02*
X114192475Y-103693922D01*
X114992475Y-103465350D02*
X114192475Y-103465350D01*
X116280430Y-101789160D02*
X115480430Y-101789160D01*
X115480430Y-101789160D02*
X116051858Y-102055826D01*
X116051858Y-102055826D02*
X115480430Y-102322493D01*
X115480430Y-102322493D02*
X116280430Y-102322493D01*
X115480430Y-102855827D02*
X115480430Y-103008208D01*
X115480430Y-103008208D02*
X115518525Y-103084398D01*
X115518525Y-103084398D02*
X115594715Y-103160589D01*
X115594715Y-103160589D02*
X115747096Y-103198684D01*
X115747096Y-103198684D02*
X116013763Y-103198684D01*
X116013763Y-103198684D02*
X116166144Y-103160589D01*
X116166144Y-103160589D02*
X116242335Y-103084398D01*
X116242335Y-103084398D02*
X116280430Y-103008208D01*
X116280430Y-103008208D02*
X116280430Y-102855827D01*
X116280430Y-102855827D02*
X116242335Y-102779636D01*
X116242335Y-102779636D02*
X116166144Y-102703446D01*
X116166144Y-102703446D02*
X116013763Y-102665350D01*
X116013763Y-102665350D02*
X115747096Y-102665350D01*
X115747096Y-102665350D02*
X115594715Y-102703446D01*
X115594715Y-102703446D02*
X115518525Y-102779636D01*
X115518525Y-102779636D02*
X115480430Y-102855827D01*
X116242335Y-103503445D02*
X116280430Y-103617731D01*
X116280430Y-103617731D02*
X116280430Y-103808207D01*
X116280430Y-103808207D02*
X116242335Y-103884398D01*
X116242335Y-103884398D02*
X116204239Y-103922493D01*
X116204239Y-103922493D02*
X116128049Y-103960588D01*
X116128049Y-103960588D02*
X116051858Y-103960588D01*
X116051858Y-103960588D02*
X115975668Y-103922493D01*
X115975668Y-103922493D02*
X115937573Y-103884398D01*
X115937573Y-103884398D02*
X115899477Y-103808207D01*
X115899477Y-103808207D02*
X115861382Y-103655826D01*
X115861382Y-103655826D02*
X115823287Y-103579636D01*
X115823287Y-103579636D02*
X115785192Y-103541541D01*
X115785192Y-103541541D02*
X115709001Y-103503445D01*
X115709001Y-103503445D02*
X115632811Y-103503445D01*
X115632811Y-103503445D02*
X115556620Y-103541541D01*
X115556620Y-103541541D02*
X115518525Y-103579636D01*
X115518525Y-103579636D02*
X115480430Y-103655826D01*
X115480430Y-103655826D02*
X115480430Y-103846303D01*
X115480430Y-103846303D02*
X115518525Y-103960588D01*
X116280430Y-104303446D02*
X115480430Y-104303446D01*
X117492194Y-102246303D02*
X117530290Y-102208207D01*
X117530290Y-102208207D02*
X117568385Y-102093922D01*
X117568385Y-102093922D02*
X117568385Y-102017731D01*
X117568385Y-102017731D02*
X117530290Y-101903445D01*
X117530290Y-101903445D02*
X117454099Y-101827255D01*
X117454099Y-101827255D02*
X117377909Y-101789160D01*
X117377909Y-101789160D02*
X117225528Y-101751064D01*
X117225528Y-101751064D02*
X117111242Y-101751064D01*
X117111242Y-101751064D02*
X116958861Y-101789160D01*
X116958861Y-101789160D02*
X116882670Y-101827255D01*
X116882670Y-101827255D02*
X116806480Y-101903445D01*
X116806480Y-101903445D02*
X116768385Y-102017731D01*
X116768385Y-102017731D02*
X116768385Y-102093922D01*
X116768385Y-102093922D02*
X116806480Y-102208207D01*
X116806480Y-102208207D02*
X116844575Y-102246303D01*
X117568385Y-102970112D02*
X117568385Y-102589160D01*
X117568385Y-102589160D02*
X116768385Y-102589160D01*
X117568385Y-103236779D02*
X116768385Y-103236779D01*
X117568385Y-103693922D02*
X117111242Y-103351064D01*
X116768385Y-103693922D02*
X117225528Y-103236779D01*
X118056340Y-101674874D02*
X118856340Y-101941541D01*
X118856340Y-101941541D02*
X118056340Y-102208207D01*
X118818245Y-102436778D02*
X118856340Y-102551064D01*
X118856340Y-102551064D02*
X118856340Y-102741540D01*
X118856340Y-102741540D02*
X118818245Y-102817731D01*
X118818245Y-102817731D02*
X118780149Y-102855826D01*
X118780149Y-102855826D02*
X118703959Y-102893921D01*
X118703959Y-102893921D02*
X118627768Y-102893921D01*
X118627768Y-102893921D02*
X118551578Y-102855826D01*
X118551578Y-102855826D02*
X118513483Y-102817731D01*
X118513483Y-102817731D02*
X118475387Y-102741540D01*
X118475387Y-102741540D02*
X118437292Y-102589159D01*
X118437292Y-102589159D02*
X118399197Y-102512969D01*
X118399197Y-102512969D02*
X118361102Y-102474874D01*
X118361102Y-102474874D02*
X118284911Y-102436778D01*
X118284911Y-102436778D02*
X118208721Y-102436778D01*
X118208721Y-102436778D02*
X118132530Y-102474874D01*
X118132530Y-102474874D02*
X118094435Y-102512969D01*
X118094435Y-102512969D02*
X118056340Y-102589159D01*
X118056340Y-102589159D02*
X118056340Y-102779636D01*
X118056340Y-102779636D02*
X118094435Y-102893921D01*
X118056340Y-103160588D02*
X118856340Y-103351064D01*
X118856340Y-103351064D02*
X118284911Y-103503445D01*
X118284911Y-103503445D02*
X118856340Y-103655826D01*
X118856340Y-103655826D02*
X118056340Y-103846303D01*
X119382390Y-102208207D02*
X119344295Y-102132017D01*
X119344295Y-102132017D02*
X119344295Y-102017731D01*
X119344295Y-102017731D02*
X119382390Y-101903445D01*
X119382390Y-101903445D02*
X119458580Y-101827255D01*
X119458580Y-101827255D02*
X119534771Y-101789160D01*
X119534771Y-101789160D02*
X119687152Y-101751064D01*
X119687152Y-101751064D02*
X119801438Y-101751064D01*
X119801438Y-101751064D02*
X119953819Y-101789160D01*
X119953819Y-101789160D02*
X120030009Y-101827255D01*
X120030009Y-101827255D02*
X120106200Y-101903445D01*
X120106200Y-101903445D02*
X120144295Y-102017731D01*
X120144295Y-102017731D02*
X120144295Y-102093922D01*
X120144295Y-102093922D02*
X120106200Y-102208207D01*
X120106200Y-102208207D02*
X120068104Y-102246303D01*
X120068104Y-102246303D02*
X119801438Y-102246303D01*
X119801438Y-102246303D02*
X119801438Y-102093922D01*
X120144295Y-102589160D02*
X119344295Y-102589160D01*
X119344295Y-102589160D02*
X120144295Y-103046303D01*
X120144295Y-103046303D02*
X119344295Y-103046303D01*
X120144295Y-103427255D02*
X119344295Y-103427255D01*
X119344295Y-103427255D02*
X119344295Y-103617731D01*
X119344295Y-103617731D02*
X119382390Y-103732017D01*
X119382390Y-103732017D02*
X119458580Y-103808207D01*
X119458580Y-103808207D02*
X119534771Y-103846302D01*
X119534771Y-103846302D02*
X119687152Y-103884398D01*
X119687152Y-103884398D02*
X119801438Y-103884398D01*
X119801438Y-103884398D02*
X119953819Y-103846302D01*
X119953819Y-103846302D02*
X120030009Y-103808207D01*
X120030009Y-103808207D02*
X120106200Y-103732017D01*
X120106200Y-103732017D02*
X120144295Y-103617731D01*
X120144295Y-103617731D02*
X120144295Y-103427255D01*
X119991792Y-145269819D02*
X120325125Y-144793628D01*
X120563220Y-145269819D02*
X120563220Y-144269819D01*
X120563220Y-144269819D02*
X120182268Y-144269819D01*
X120182268Y-144269819D02*
X120087030Y-144317438D01*
X120087030Y-144317438D02*
X120039411Y-144365057D01*
X120039411Y-144365057D02*
X119991792Y-144460295D01*
X119991792Y-144460295D02*
X119991792Y-144603152D01*
X119991792Y-144603152D02*
X120039411Y-144698390D01*
X120039411Y-144698390D02*
X120087030Y-144746009D01*
X120087030Y-144746009D02*
X120182268Y-144793628D01*
X120182268Y-144793628D02*
X120563220Y-144793628D01*
X119610839Y-145222200D02*
X119467982Y-145269819D01*
X119467982Y-145269819D02*
X119229887Y-145269819D01*
X119229887Y-145269819D02*
X119134649Y-145222200D01*
X119134649Y-145222200D02*
X119087030Y-145174580D01*
X119087030Y-145174580D02*
X119039411Y-145079342D01*
X119039411Y-145079342D02*
X119039411Y-144984104D01*
X119039411Y-144984104D02*
X119087030Y-144888866D01*
X119087030Y-144888866D02*
X119134649Y-144841247D01*
X119134649Y-144841247D02*
X119229887Y-144793628D01*
X119229887Y-144793628D02*
X119420363Y-144746009D01*
X119420363Y-144746009D02*
X119515601Y-144698390D01*
X119515601Y-144698390D02*
X119563220Y-144650771D01*
X119563220Y-144650771D02*
X119610839Y-144555533D01*
X119610839Y-144555533D02*
X119610839Y-144460295D01*
X119610839Y-144460295D02*
X119563220Y-144365057D01*
X119563220Y-144365057D02*
X119515601Y-144317438D01*
X119515601Y-144317438D02*
X119420363Y-144269819D01*
X119420363Y-144269819D02*
X119182268Y-144269819D01*
X119182268Y-144269819D02*
X119039411Y-144317438D01*
X118658458Y-145222200D02*
X118515601Y-145269819D01*
X118515601Y-145269819D02*
X118277506Y-145269819D01*
X118277506Y-145269819D02*
X118182268Y-145222200D01*
X118182268Y-145222200D02*
X118134649Y-145174580D01*
X118134649Y-145174580D02*
X118087030Y-145079342D01*
X118087030Y-145079342D02*
X118087030Y-144984104D01*
X118087030Y-144984104D02*
X118134649Y-144888866D01*
X118134649Y-144888866D02*
X118182268Y-144841247D01*
X118182268Y-144841247D02*
X118277506Y-144793628D01*
X118277506Y-144793628D02*
X118467982Y-144746009D01*
X118467982Y-144746009D02*
X118563220Y-144698390D01*
X118563220Y-144698390D02*
X118610839Y-144650771D01*
X118610839Y-144650771D02*
X118658458Y-144555533D01*
X118658458Y-144555533D02*
X118658458Y-144460295D01*
X118658458Y-144460295D02*
X118610839Y-144365057D01*
X118610839Y-144365057D02*
X118563220Y-144317438D01*
X118563220Y-144317438D02*
X118467982Y-144269819D01*
X118467982Y-144269819D02*
X118229887Y-144269819D01*
X118229887Y-144269819D02*
X118087030Y-144317438D01*
X117658458Y-145269819D02*
X117658458Y-144269819D01*
X105532018Y-152346009D02*
X105389161Y-152393628D01*
X105389161Y-152393628D02*
X105341542Y-152441247D01*
X105341542Y-152441247D02*
X105293923Y-152536485D01*
X105293923Y-152536485D02*
X105293923Y-152679342D01*
X105293923Y-152679342D02*
X105341542Y-152774580D01*
X105341542Y-152774580D02*
X105389161Y-152822200D01*
X105389161Y-152822200D02*
X105484399Y-152869819D01*
X105484399Y-152869819D02*
X105865351Y-152869819D01*
X105865351Y-152869819D02*
X105865351Y-151869819D01*
X105865351Y-151869819D02*
X105532018Y-151869819D01*
X105532018Y-151869819D02*
X105436780Y-151917438D01*
X105436780Y-151917438D02*
X105389161Y-151965057D01*
X105389161Y-151965057D02*
X105341542Y-152060295D01*
X105341542Y-152060295D02*
X105341542Y-152155533D01*
X105341542Y-152155533D02*
X105389161Y-152250771D01*
X105389161Y-152250771D02*
X105436780Y-152298390D01*
X105436780Y-152298390D02*
X105532018Y-152346009D01*
X105532018Y-152346009D02*
X105865351Y-152346009D01*
X105008208Y-151869819D02*
X104436780Y-151869819D01*
X104722494Y-152869819D02*
X104722494Y-151869819D01*
X104103446Y-152869819D02*
X104103446Y-151869819D01*
X104103446Y-151869819D02*
X103532018Y-152869819D01*
X103532018Y-152869819D02*
X103532018Y-151869819D01*
X103293923Y-152965057D02*
X102532018Y-152965057D01*
X101817732Y-152869819D02*
X102293922Y-152869819D01*
X102293922Y-152869819D02*
X102293922Y-151869819D01*
X101484398Y-152346009D02*
X101151065Y-152346009D01*
X101008208Y-152869819D02*
X101484398Y-152869819D01*
X101484398Y-152869819D02*
X101484398Y-151869819D01*
X101484398Y-151869819D02*
X101008208Y-151869819D01*
X100246303Y-152346009D02*
X100579636Y-152346009D01*
X100579636Y-152869819D02*
X100579636Y-151869819D01*
X100579636Y-151869819D02*
X100103446Y-151869819D01*
X99865350Y-151869819D02*
X99293922Y-151869819D01*
X99579636Y-152869819D02*
X99579636Y-151869819D01*
X120563220Y-140169819D02*
X120563220Y-139169819D01*
X120563220Y-139169819D02*
X120325125Y-139169819D01*
X120325125Y-139169819D02*
X120182268Y-139217438D01*
X120182268Y-139217438D02*
X120087030Y-139312676D01*
X120087030Y-139312676D02*
X120039411Y-139407914D01*
X120039411Y-139407914D02*
X119991792Y-139598390D01*
X119991792Y-139598390D02*
X119991792Y-139741247D01*
X119991792Y-139741247D02*
X120039411Y-139931723D01*
X120039411Y-139931723D02*
X120087030Y-140026961D01*
X120087030Y-140026961D02*
X120182268Y-140122200D01*
X120182268Y-140122200D02*
X120325125Y-140169819D01*
X120325125Y-140169819D02*
X120563220Y-140169819D01*
X119563220Y-140169819D02*
X119563220Y-139169819D01*
X119134649Y-140122200D02*
X118991792Y-140169819D01*
X118991792Y-140169819D02*
X118753697Y-140169819D01*
X118753697Y-140169819D02*
X118658459Y-140122200D01*
X118658459Y-140122200D02*
X118610840Y-140074580D01*
X118610840Y-140074580D02*
X118563221Y-139979342D01*
X118563221Y-139979342D02*
X118563221Y-139884104D01*
X118563221Y-139884104D02*
X118610840Y-139788866D01*
X118610840Y-139788866D02*
X118658459Y-139741247D01*
X118658459Y-139741247D02*
X118753697Y-139693628D01*
X118753697Y-139693628D02*
X118944173Y-139646009D01*
X118944173Y-139646009D02*
X119039411Y-139598390D01*
X119039411Y-139598390D02*
X119087030Y-139550771D01*
X119087030Y-139550771D02*
X119134649Y-139455533D01*
X119134649Y-139455533D02*
X119134649Y-139360295D01*
X119134649Y-139360295D02*
X119087030Y-139265057D01*
X119087030Y-139265057D02*
X119039411Y-139217438D01*
X119039411Y-139217438D02*
X118944173Y-139169819D01*
X118944173Y-139169819D02*
X118706078Y-139169819D01*
X118706078Y-139169819D02*
X118563221Y-139217438D01*
X118134649Y-140169819D02*
X118134649Y-139169819D01*
X118134649Y-139169819D02*
X117753697Y-139169819D01*
X117753697Y-139169819D02*
X117658459Y-139217438D01*
X117658459Y-139217438D02*
X117610840Y-139265057D01*
X117610840Y-139265057D02*
X117563221Y-139360295D01*
X117563221Y-139360295D02*
X117563221Y-139503152D01*
X117563221Y-139503152D02*
X117610840Y-139598390D01*
X117610840Y-139598390D02*
X117658459Y-139646009D01*
X117658459Y-139646009D02*
X117753697Y-139693628D01*
X117753697Y-139693628D02*
X118134649Y-139693628D01*
X117372745Y-140265057D02*
X116610840Y-140265057D01*
X115801316Y-140169819D02*
X116134649Y-139693628D01*
X116372744Y-140169819D02*
X116372744Y-139169819D01*
X116372744Y-139169819D02*
X115991792Y-139169819D01*
X115991792Y-139169819D02*
X115896554Y-139217438D01*
X115896554Y-139217438D02*
X115848935Y-139265057D01*
X115848935Y-139265057D02*
X115801316Y-139360295D01*
X115801316Y-139360295D02*
X115801316Y-139503152D01*
X115801316Y-139503152D02*
X115848935Y-139598390D01*
X115848935Y-139598390D02*
X115896554Y-139646009D01*
X115896554Y-139646009D02*
X115991792Y-139693628D01*
X115991792Y-139693628D02*
X116372744Y-139693628D01*
X115420363Y-140122200D02*
X115277506Y-140169819D01*
X115277506Y-140169819D02*
X115039411Y-140169819D01*
X115039411Y-140169819D02*
X114944173Y-140122200D01*
X114944173Y-140122200D02*
X114896554Y-140074580D01*
X114896554Y-140074580D02*
X114848935Y-139979342D01*
X114848935Y-139979342D02*
X114848935Y-139884104D01*
X114848935Y-139884104D02*
X114896554Y-139788866D01*
X114896554Y-139788866D02*
X114944173Y-139741247D01*
X114944173Y-139741247D02*
X115039411Y-139693628D01*
X115039411Y-139693628D02*
X115229887Y-139646009D01*
X115229887Y-139646009D02*
X115325125Y-139598390D01*
X115325125Y-139598390D02*
X115372744Y-139550771D01*
X115372744Y-139550771D02*
X115420363Y-139455533D01*
X115420363Y-139455533D02*
X115420363Y-139360295D01*
X115420363Y-139360295D02*
X115372744Y-139265057D01*
X115372744Y-139265057D02*
X115325125Y-139217438D01*
X115325125Y-139217438D02*
X115229887Y-139169819D01*
X115229887Y-139169819D02*
X114991792Y-139169819D01*
X114991792Y-139169819D02*
X114848935Y-139217438D01*
X114563220Y-139169819D02*
X113991792Y-139169819D01*
X114277506Y-140169819D02*
X114277506Y-139169819D01*
D12*
X98229400Y-68983082D02*
X98300828Y-69197368D01*
X98300828Y-69197368D02*
X98300828Y-69554510D01*
X98300828Y-69554510D02*
X98229400Y-69697368D01*
X98229400Y-69697368D02*
X98157971Y-69768796D01*
X98157971Y-69768796D02*
X98015114Y-69840225D01*
X98015114Y-69840225D02*
X97872257Y-69840225D01*
X97872257Y-69840225D02*
X97729400Y-69768796D01*
X97729400Y-69768796D02*
X97657971Y-69697368D01*
X97657971Y-69697368D02*
X97586542Y-69554510D01*
X97586542Y-69554510D02*
X97515114Y-69268796D01*
X97515114Y-69268796D02*
X97443685Y-69125939D01*
X97443685Y-69125939D02*
X97372257Y-69054510D01*
X97372257Y-69054510D02*
X97229400Y-68983082D01*
X97229400Y-68983082D02*
X97086542Y-68983082D01*
X97086542Y-68983082D02*
X96943685Y-69054510D01*
X96943685Y-69054510D02*
X96872257Y-69125939D01*
X96872257Y-69125939D02*
X96800828Y-69268796D01*
X96800828Y-69268796D02*
X96800828Y-69625939D01*
X96800828Y-69625939D02*
X96872257Y-69840225D01*
X97300828Y-70483081D02*
X98800828Y-70483081D01*
X97372257Y-70483081D02*
X97300828Y-70625939D01*
X97300828Y-70625939D02*
X97300828Y-70911653D01*
X97300828Y-70911653D02*
X97372257Y-71054510D01*
X97372257Y-71054510D02*
X97443685Y-71125939D01*
X97443685Y-71125939D02*
X97586542Y-71197367D01*
X97586542Y-71197367D02*
X98015114Y-71197367D01*
X98015114Y-71197367D02*
X98157971Y-71125939D01*
X98157971Y-71125939D02*
X98229400Y-71054510D01*
X98229400Y-71054510D02*
X98300828Y-70911653D01*
X98300828Y-70911653D02*
X98300828Y-70625939D01*
X98300828Y-70625939D02*
X98229400Y-70483081D01*
X98229400Y-72411653D02*
X98300828Y-72268796D01*
X98300828Y-72268796D02*
X98300828Y-71983082D01*
X98300828Y-71983082D02*
X98229400Y-71840224D01*
X98229400Y-71840224D02*
X98086542Y-71768796D01*
X98086542Y-71768796D02*
X97515114Y-71768796D01*
X97515114Y-71768796D02*
X97372257Y-71840224D01*
X97372257Y-71840224D02*
X97300828Y-71983082D01*
X97300828Y-71983082D02*
X97300828Y-72268796D01*
X97300828Y-72268796D02*
X97372257Y-72411653D01*
X97372257Y-72411653D02*
X97515114Y-72483082D01*
X97515114Y-72483082D02*
X97657971Y-72483082D01*
X97657971Y-72483082D02*
X97800828Y-71768796D01*
X98229400Y-73768796D02*
X98300828Y-73625938D01*
X98300828Y-73625938D02*
X98300828Y-73340224D01*
X98300828Y-73340224D02*
X98229400Y-73197367D01*
X98229400Y-73197367D02*
X98157971Y-73125938D01*
X98157971Y-73125938D02*
X98015114Y-73054510D01*
X98015114Y-73054510D02*
X97586542Y-73054510D01*
X97586542Y-73054510D02*
X97443685Y-73125938D01*
X97443685Y-73125938D02*
X97372257Y-73197367D01*
X97372257Y-73197367D02*
X97300828Y-73340224D01*
X97300828Y-73340224D02*
X97300828Y-73625938D01*
X97300828Y-73625938D02*
X97372257Y-73768796D01*
X97300828Y-74197367D02*
X97300828Y-74768795D01*
X96800828Y-74411652D02*
X98086542Y-74411652D01*
X98086542Y-74411652D02*
X98229400Y-74483081D01*
X98229400Y-74483081D02*
X98300828Y-74625938D01*
X98300828Y-74625938D02*
X98300828Y-74768795D01*
X98300828Y-75268795D02*
X97300828Y-75268795D01*
X97586542Y-75268795D02*
X97443685Y-75340224D01*
X97443685Y-75340224D02*
X97372257Y-75411653D01*
X97372257Y-75411653D02*
X97300828Y-75554510D01*
X97300828Y-75554510D02*
X97300828Y-75697367D01*
X97300828Y-76840224D02*
X98300828Y-76840224D01*
X97300828Y-76197366D02*
X98086542Y-76197366D01*
X98086542Y-76197366D02*
X98229400Y-76268795D01*
X98229400Y-76268795D02*
X98300828Y-76411652D01*
X98300828Y-76411652D02*
X98300828Y-76625938D01*
X98300828Y-76625938D02*
X98229400Y-76768795D01*
X98229400Y-76768795D02*
X98157971Y-76840224D01*
X98300828Y-77554509D02*
X97300828Y-77554509D01*
X97443685Y-77554509D02*
X97372257Y-77625938D01*
X97372257Y-77625938D02*
X97300828Y-77768795D01*
X97300828Y-77768795D02*
X97300828Y-77983081D01*
X97300828Y-77983081D02*
X97372257Y-78125938D01*
X97372257Y-78125938D02*
X97515114Y-78197367D01*
X97515114Y-78197367D02*
X98300828Y-78197367D01*
X97515114Y-78197367D02*
X97372257Y-78268795D01*
X97372257Y-78268795D02*
X97300828Y-78411652D01*
X97300828Y-78411652D02*
X97300828Y-78625938D01*
X97300828Y-78625938D02*
X97372257Y-78768795D01*
X97372257Y-78768795D02*
X97515114Y-78840224D01*
X97515114Y-78840224D02*
X98300828Y-78840224D01*
X98300828Y-81340224D02*
X97515114Y-81340224D01*
X97515114Y-81340224D02*
X97372257Y-81268795D01*
X97372257Y-81268795D02*
X97300828Y-81125938D01*
X97300828Y-81125938D02*
X97300828Y-80840224D01*
X97300828Y-80840224D02*
X97372257Y-80697366D01*
X98229400Y-81340224D02*
X98300828Y-81197366D01*
X98300828Y-81197366D02*
X98300828Y-80840224D01*
X98300828Y-80840224D02*
X98229400Y-80697366D01*
X98229400Y-80697366D02*
X98086542Y-80625938D01*
X98086542Y-80625938D02*
X97943685Y-80625938D01*
X97943685Y-80625938D02*
X97800828Y-80697366D01*
X97800828Y-80697366D02*
X97729400Y-80840224D01*
X97729400Y-80840224D02*
X97729400Y-81197366D01*
X97729400Y-81197366D02*
X97657971Y-81340224D01*
X97300828Y-82054509D02*
X98300828Y-82054509D01*
X97443685Y-82054509D02*
X97372257Y-82125938D01*
X97372257Y-82125938D02*
X97300828Y-82268795D01*
X97300828Y-82268795D02*
X97300828Y-82483081D01*
X97300828Y-82483081D02*
X97372257Y-82625938D01*
X97372257Y-82625938D02*
X97515114Y-82697367D01*
X97515114Y-82697367D02*
X98300828Y-82697367D01*
X98300828Y-84054510D02*
X97515114Y-84054510D01*
X97515114Y-84054510D02*
X97372257Y-83983081D01*
X97372257Y-83983081D02*
X97300828Y-83840224D01*
X97300828Y-83840224D02*
X97300828Y-83554510D01*
X97300828Y-83554510D02*
X97372257Y-83411652D01*
X98229400Y-84054510D02*
X98300828Y-83911652D01*
X98300828Y-83911652D02*
X98300828Y-83554510D01*
X98300828Y-83554510D02*
X98229400Y-83411652D01*
X98229400Y-83411652D02*
X98086542Y-83340224D01*
X98086542Y-83340224D02*
X97943685Y-83340224D01*
X97943685Y-83340224D02*
X97800828Y-83411652D01*
X97800828Y-83411652D02*
X97729400Y-83554510D01*
X97729400Y-83554510D02*
X97729400Y-83911652D01*
X97729400Y-83911652D02*
X97657971Y-84054510D01*
X98300828Y-84983081D02*
X98229400Y-84840224D01*
X98229400Y-84840224D02*
X98086542Y-84768795D01*
X98086542Y-84768795D02*
X96800828Y-84768795D01*
X97300828Y-85411652D02*
X98300828Y-85768795D01*
X97300828Y-86125938D02*
X98300828Y-85768795D01*
X98300828Y-85768795D02*
X98657971Y-85625938D01*
X98657971Y-85625938D02*
X98729400Y-85554509D01*
X98729400Y-85554509D02*
X98800828Y-85411652D01*
X98229400Y-86625938D02*
X98300828Y-86768795D01*
X98300828Y-86768795D02*
X98300828Y-87054509D01*
X98300828Y-87054509D02*
X98229400Y-87197366D01*
X98229400Y-87197366D02*
X98086542Y-87268795D01*
X98086542Y-87268795D02*
X98015114Y-87268795D01*
X98015114Y-87268795D02*
X97872257Y-87197366D01*
X97872257Y-87197366D02*
X97800828Y-87054509D01*
X97800828Y-87054509D02*
X97800828Y-86840224D01*
X97800828Y-86840224D02*
X97729400Y-86697366D01*
X97729400Y-86697366D02*
X97586542Y-86625938D01*
X97586542Y-86625938D02*
X97515114Y-86625938D01*
X97515114Y-86625938D02*
X97372257Y-86697366D01*
X97372257Y-86697366D02*
X97300828Y-86840224D01*
X97300828Y-86840224D02*
X97300828Y-87054509D01*
X97300828Y-87054509D02*
X97372257Y-87197366D01*
X98229400Y-88483081D02*
X98300828Y-88340224D01*
X98300828Y-88340224D02*
X98300828Y-88054510D01*
X98300828Y-88054510D02*
X98229400Y-87911652D01*
X98229400Y-87911652D02*
X98086542Y-87840224D01*
X98086542Y-87840224D02*
X97515114Y-87840224D01*
X97515114Y-87840224D02*
X97372257Y-87911652D01*
X97372257Y-87911652D02*
X97300828Y-88054510D01*
X97300828Y-88054510D02*
X97300828Y-88340224D01*
X97300828Y-88340224D02*
X97372257Y-88483081D01*
X97372257Y-88483081D02*
X97515114Y-88554510D01*
X97515114Y-88554510D02*
X97657971Y-88554510D01*
X97657971Y-88554510D02*
X97800828Y-87840224D01*
X98300828Y-89197366D02*
X97300828Y-89197366D01*
X97586542Y-89197366D02*
X97443685Y-89268795D01*
X97443685Y-89268795D02*
X97372257Y-89340224D01*
X97372257Y-89340224D02*
X97300828Y-89483081D01*
X97300828Y-89483081D02*
X97300828Y-89625938D01*
X97300828Y-91125937D02*
X98300828Y-91483080D01*
X98300828Y-91483080D02*
X97300828Y-91840223D01*
X98300828Y-93197366D02*
X98300828Y-92340223D01*
X98300828Y-92768794D02*
X96800828Y-92768794D01*
X96800828Y-92768794D02*
X97015114Y-92625937D01*
X97015114Y-92625937D02*
X97157971Y-92483080D01*
X97157971Y-92483080D02*
X97229400Y-92340223D01*
X98157971Y-93840222D02*
X98229400Y-93911651D01*
X98229400Y-93911651D02*
X98300828Y-93840222D01*
X98300828Y-93840222D02*
X98229400Y-93768794D01*
X98229400Y-93768794D02*
X98157971Y-93840222D01*
X98157971Y-93840222D02*
X98300828Y-93840222D01*
X96800828Y-94840223D02*
X96800828Y-94983080D01*
X96800828Y-94983080D02*
X96872257Y-95125937D01*
X96872257Y-95125937D02*
X96943685Y-95197366D01*
X96943685Y-95197366D02*
X97086542Y-95268794D01*
X97086542Y-95268794D02*
X97372257Y-95340223D01*
X97372257Y-95340223D02*
X97729400Y-95340223D01*
X97729400Y-95340223D02*
X98015114Y-95268794D01*
X98015114Y-95268794D02*
X98157971Y-95197366D01*
X98157971Y-95197366D02*
X98229400Y-95125937D01*
X98229400Y-95125937D02*
X98300828Y-94983080D01*
X98300828Y-94983080D02*
X98300828Y-94840223D01*
X98300828Y-94840223D02*
X98229400Y-94697366D01*
X98229400Y-94697366D02*
X98157971Y-94625937D01*
X98157971Y-94625937D02*
X98015114Y-94554508D01*
X98015114Y-94554508D02*
X97729400Y-94483080D01*
X97729400Y-94483080D02*
X97372257Y-94483080D01*
X97372257Y-94483080D02*
X97086542Y-94554508D01*
X97086542Y-94554508D02*
X96943685Y-94625937D01*
X96943685Y-94625937D02*
X96872257Y-94697366D01*
X96872257Y-94697366D02*
X96800828Y-94840223D01*
D10*
X105151064Y-137669819D02*
X105151064Y-136669819D01*
X105151064Y-136669819D02*
X104912969Y-136669819D01*
X104912969Y-136669819D02*
X104770112Y-136717438D01*
X104770112Y-136717438D02*
X104674874Y-136812676D01*
X104674874Y-136812676D02*
X104627255Y-136907914D01*
X104627255Y-136907914D02*
X104579636Y-137098390D01*
X104579636Y-137098390D02*
X104579636Y-137241247D01*
X104579636Y-137241247D02*
X104627255Y-137431723D01*
X104627255Y-137431723D02*
X104674874Y-137526961D01*
X104674874Y-137526961D02*
X104770112Y-137622200D01*
X104770112Y-137622200D02*
X104912969Y-137669819D01*
X104912969Y-137669819D02*
X105151064Y-137669819D01*
X104151064Y-137669819D02*
X104151064Y-136669819D01*
X103722493Y-137622200D02*
X103579636Y-137669819D01*
X103579636Y-137669819D02*
X103341541Y-137669819D01*
X103341541Y-137669819D02*
X103246303Y-137622200D01*
X103246303Y-137622200D02*
X103198684Y-137574580D01*
X103198684Y-137574580D02*
X103151065Y-137479342D01*
X103151065Y-137479342D02*
X103151065Y-137384104D01*
X103151065Y-137384104D02*
X103198684Y-137288866D01*
X103198684Y-137288866D02*
X103246303Y-137241247D01*
X103246303Y-137241247D02*
X103341541Y-137193628D01*
X103341541Y-137193628D02*
X103532017Y-137146009D01*
X103532017Y-137146009D02*
X103627255Y-137098390D01*
X103627255Y-137098390D02*
X103674874Y-137050771D01*
X103674874Y-137050771D02*
X103722493Y-136955533D01*
X103722493Y-136955533D02*
X103722493Y-136860295D01*
X103722493Y-136860295D02*
X103674874Y-136765057D01*
X103674874Y-136765057D02*
X103627255Y-136717438D01*
X103627255Y-136717438D02*
X103532017Y-136669819D01*
X103532017Y-136669819D02*
X103293922Y-136669819D01*
X103293922Y-136669819D02*
X103151065Y-136717438D01*
X102722493Y-137669819D02*
X102722493Y-136669819D01*
X102722493Y-136669819D02*
X102341541Y-136669819D01*
X102341541Y-136669819D02*
X102246303Y-136717438D01*
X102246303Y-136717438D02*
X102198684Y-136765057D01*
X102198684Y-136765057D02*
X102151065Y-136860295D01*
X102151065Y-136860295D02*
X102151065Y-137003152D01*
X102151065Y-137003152D02*
X102198684Y-137098390D01*
X102198684Y-137098390D02*
X102246303Y-137146009D01*
X102246303Y-137146009D02*
X102341541Y-137193628D01*
X102341541Y-137193628D02*
X102722493Y-137193628D01*
X101960589Y-137765057D02*
X101198684Y-137765057D01*
X100960588Y-137669819D02*
X100960588Y-136669819D01*
X100960588Y-136669819D02*
X100722493Y-136669819D01*
X100722493Y-136669819D02*
X100579636Y-136717438D01*
X100579636Y-136717438D02*
X100484398Y-136812676D01*
X100484398Y-136812676D02*
X100436779Y-136907914D01*
X100436779Y-136907914D02*
X100389160Y-137098390D01*
X100389160Y-137098390D02*
X100389160Y-137241247D01*
X100389160Y-137241247D02*
X100436779Y-137431723D01*
X100436779Y-137431723D02*
X100484398Y-137526961D01*
X100484398Y-137526961D02*
X100579636Y-137622200D01*
X100579636Y-137622200D02*
X100722493Y-137669819D01*
X100722493Y-137669819D02*
X100960588Y-137669819D01*
X99389160Y-137574580D02*
X99436779Y-137622200D01*
X99436779Y-137622200D02*
X99579636Y-137669819D01*
X99579636Y-137669819D02*
X99674874Y-137669819D01*
X99674874Y-137669819D02*
X99817731Y-137622200D01*
X99817731Y-137622200D02*
X99912969Y-137526961D01*
X99912969Y-137526961D02*
X99960588Y-137431723D01*
X99960588Y-137431723D02*
X100008207Y-137241247D01*
X100008207Y-137241247D02*
X100008207Y-137098390D01*
X100008207Y-137098390D02*
X99960588Y-136907914D01*
X99960588Y-136907914D02*
X99912969Y-136812676D01*
X99912969Y-136812676D02*
X99817731Y-136717438D01*
X99817731Y-136717438D02*
X99674874Y-136669819D01*
X99674874Y-136669819D02*
X99579636Y-136669819D01*
X99579636Y-136669819D02*
X99436779Y-136717438D01*
X99436779Y-136717438D02*
X99389160Y-136765057D01*
X103055827Y-132569819D02*
X103389160Y-132093628D01*
X103627255Y-132569819D02*
X103627255Y-131569819D01*
X103627255Y-131569819D02*
X103246303Y-131569819D01*
X103246303Y-131569819D02*
X103151065Y-131617438D01*
X103151065Y-131617438D02*
X103103446Y-131665057D01*
X103103446Y-131665057D02*
X103055827Y-131760295D01*
X103055827Y-131760295D02*
X103055827Y-131903152D01*
X103055827Y-131903152D02*
X103103446Y-131998390D01*
X103103446Y-131998390D02*
X103151065Y-132046009D01*
X103151065Y-132046009D02*
X103246303Y-132093628D01*
X103246303Y-132093628D02*
X103627255Y-132093628D01*
X102722493Y-131569819D02*
X102055827Y-132569819D01*
X102055827Y-131569819D02*
X102722493Y-132569819D01*
X101912970Y-132665057D02*
X101151065Y-132665057D01*
X100341541Y-132474580D02*
X100389160Y-132522200D01*
X100389160Y-132522200D02*
X100532017Y-132569819D01*
X100532017Y-132569819D02*
X100627255Y-132569819D01*
X100627255Y-132569819D02*
X100770112Y-132522200D01*
X100770112Y-132522200D02*
X100865350Y-132426961D01*
X100865350Y-132426961D02*
X100912969Y-132331723D01*
X100912969Y-132331723D02*
X100960588Y-132141247D01*
X100960588Y-132141247D02*
X100960588Y-131998390D01*
X100960588Y-131998390D02*
X100912969Y-131807914D01*
X100912969Y-131807914D02*
X100865350Y-131712676D01*
X100865350Y-131712676D02*
X100770112Y-131617438D01*
X100770112Y-131617438D02*
X100627255Y-131569819D01*
X100627255Y-131569819D02*
X100532017Y-131569819D01*
X100532017Y-131569819D02*
X100389160Y-131617438D01*
X100389160Y-131617438D02*
X100341541Y-131665057D01*
X99960588Y-132522200D02*
X99817731Y-132569819D01*
X99817731Y-132569819D02*
X99579636Y-132569819D01*
X99579636Y-132569819D02*
X99484398Y-132522200D01*
X99484398Y-132522200D02*
X99436779Y-132474580D01*
X99436779Y-132474580D02*
X99389160Y-132379342D01*
X99389160Y-132379342D02*
X99389160Y-132284104D01*
X99389160Y-132284104D02*
X99436779Y-132188866D01*
X99436779Y-132188866D02*
X99484398Y-132141247D01*
X99484398Y-132141247D02*
X99579636Y-132093628D01*
X99579636Y-132093628D02*
X99770112Y-132046009D01*
X99770112Y-132046009D02*
X99865350Y-131998390D01*
X99865350Y-131998390D02*
X99912969Y-131950771D01*
X99912969Y-131950771D02*
X99960588Y-131855533D01*
X99960588Y-131855533D02*
X99960588Y-131760295D01*
X99960588Y-131760295D02*
X99912969Y-131665057D01*
X99912969Y-131665057D02*
X99865350Y-131617438D01*
X99865350Y-131617438D02*
X99770112Y-131569819D01*
X99770112Y-131569819D02*
X99532017Y-131569819D01*
X99532017Y-131569819D02*
X99389160Y-131617438D01*
X99869819Y-69193922D02*
X99869819Y-69765350D01*
X100869819Y-69479636D02*
X99869819Y-69479636D01*
X100869819Y-70098684D02*
X99869819Y-70098684D01*
X100869819Y-70527255D02*
X100346009Y-70527255D01*
X100346009Y-70527255D02*
X100250771Y-70479636D01*
X100250771Y-70479636D02*
X100203152Y-70384398D01*
X100203152Y-70384398D02*
X100203152Y-70241541D01*
X100203152Y-70241541D02*
X100250771Y-70146303D01*
X100250771Y-70146303D02*
X100298390Y-70098684D01*
X100869819Y-71432017D02*
X100346009Y-71432017D01*
X100346009Y-71432017D02*
X100250771Y-71384398D01*
X100250771Y-71384398D02*
X100203152Y-71289160D01*
X100203152Y-71289160D02*
X100203152Y-71098684D01*
X100203152Y-71098684D02*
X100250771Y-71003446D01*
X100822200Y-71432017D02*
X100869819Y-71336779D01*
X100869819Y-71336779D02*
X100869819Y-71098684D01*
X100869819Y-71098684D02*
X100822200Y-71003446D01*
X100822200Y-71003446D02*
X100726961Y-70955827D01*
X100726961Y-70955827D02*
X100631723Y-70955827D01*
X100631723Y-70955827D02*
X100536485Y-71003446D01*
X100536485Y-71003446D02*
X100488866Y-71098684D01*
X100488866Y-71098684D02*
X100488866Y-71336779D01*
X100488866Y-71336779D02*
X100441247Y-71432017D01*
X100203152Y-71908208D02*
X100869819Y-71908208D01*
X100298390Y-71908208D02*
X100250771Y-71955827D01*
X100250771Y-71955827D02*
X100203152Y-72051065D01*
X100203152Y-72051065D02*
X100203152Y-72193922D01*
X100203152Y-72193922D02*
X100250771Y-72289160D01*
X100250771Y-72289160D02*
X100346009Y-72336779D01*
X100346009Y-72336779D02*
X100869819Y-72336779D01*
X100869819Y-73241541D02*
X100346009Y-73241541D01*
X100346009Y-73241541D02*
X100250771Y-73193922D01*
X100250771Y-73193922D02*
X100203152Y-73098684D01*
X100203152Y-73098684D02*
X100203152Y-72908208D01*
X100203152Y-72908208D02*
X100250771Y-72812970D01*
X100822200Y-73241541D02*
X100869819Y-73146303D01*
X100869819Y-73146303D02*
X100869819Y-72908208D01*
X100869819Y-72908208D02*
X100822200Y-72812970D01*
X100822200Y-72812970D02*
X100726961Y-72765351D01*
X100726961Y-72765351D02*
X100631723Y-72765351D01*
X100631723Y-72765351D02*
X100536485Y-72812970D01*
X100536485Y-72812970D02*
X100488866Y-72908208D01*
X100488866Y-72908208D02*
X100488866Y-73146303D01*
X100488866Y-73146303D02*
X100441247Y-73241541D01*
X100822200Y-73670113D02*
X100869819Y-73765351D01*
X100869819Y-73765351D02*
X100869819Y-73955827D01*
X100869819Y-73955827D02*
X100822200Y-74051065D01*
X100822200Y-74051065D02*
X100726961Y-74098684D01*
X100726961Y-74098684D02*
X100679342Y-74098684D01*
X100679342Y-74098684D02*
X100584104Y-74051065D01*
X100584104Y-74051065D02*
X100536485Y-73955827D01*
X100536485Y-73955827D02*
X100536485Y-73812970D01*
X100536485Y-73812970D02*
X100488866Y-73717732D01*
X100488866Y-73717732D02*
X100393628Y-73670113D01*
X100393628Y-73670113D02*
X100346009Y-73670113D01*
X100346009Y-73670113D02*
X100250771Y-73717732D01*
X100250771Y-73717732D02*
X100203152Y-73812970D01*
X100203152Y-73812970D02*
X100203152Y-73955827D01*
X100203152Y-73955827D02*
X100250771Y-74051065D01*
X100822200Y-74479637D02*
X100869819Y-74574875D01*
X100869819Y-74574875D02*
X100869819Y-74765351D01*
X100869819Y-74765351D02*
X100822200Y-74860589D01*
X100822200Y-74860589D02*
X100726961Y-74908208D01*
X100726961Y-74908208D02*
X100679342Y-74908208D01*
X100679342Y-74908208D02*
X100584104Y-74860589D01*
X100584104Y-74860589D02*
X100536485Y-74765351D01*
X100536485Y-74765351D02*
X100536485Y-74622494D01*
X100536485Y-74622494D02*
X100488866Y-74527256D01*
X100488866Y-74527256D02*
X100393628Y-74479637D01*
X100393628Y-74479637D02*
X100346009Y-74479637D01*
X100346009Y-74479637D02*
X100250771Y-74527256D01*
X100250771Y-74527256D02*
X100203152Y-74622494D01*
X100203152Y-74622494D02*
X100203152Y-74765351D01*
X100203152Y-74765351D02*
X100250771Y-74860589D01*
X100869819Y-75336780D02*
X100203152Y-75336780D01*
X99869819Y-75336780D02*
X99917438Y-75289161D01*
X99917438Y-75289161D02*
X99965057Y-75336780D01*
X99965057Y-75336780D02*
X99917438Y-75384399D01*
X99917438Y-75384399D02*
X99869819Y-75336780D01*
X99869819Y-75336780D02*
X99965057Y-75336780D01*
X100822200Y-75765351D02*
X100869819Y-75860589D01*
X100869819Y-75860589D02*
X100869819Y-76051065D01*
X100869819Y-76051065D02*
X100822200Y-76146303D01*
X100822200Y-76146303D02*
X100726961Y-76193922D01*
X100726961Y-76193922D02*
X100679342Y-76193922D01*
X100679342Y-76193922D02*
X100584104Y-76146303D01*
X100584104Y-76146303D02*
X100536485Y-76051065D01*
X100536485Y-76051065D02*
X100536485Y-75908208D01*
X100536485Y-75908208D02*
X100488866Y-75812970D01*
X100488866Y-75812970D02*
X100393628Y-75765351D01*
X100393628Y-75765351D02*
X100346009Y-75765351D01*
X100346009Y-75765351D02*
X100250771Y-75812970D01*
X100250771Y-75812970D02*
X100203152Y-75908208D01*
X100203152Y-75908208D02*
X100203152Y-76051065D01*
X100203152Y-76051065D02*
X100250771Y-76146303D01*
X100346009Y-77717732D02*
X100346009Y-77384399D01*
X100869819Y-77384399D02*
X99869819Y-77384399D01*
X99869819Y-77384399D02*
X99869819Y-77860589D01*
X100869819Y-78241542D02*
X100203152Y-78241542D01*
X100393628Y-78241542D02*
X100298390Y-78289161D01*
X100298390Y-78289161D02*
X100250771Y-78336780D01*
X100250771Y-78336780D02*
X100203152Y-78432018D01*
X100203152Y-78432018D02*
X100203152Y-78527256D01*
X100869819Y-79289161D02*
X100346009Y-79289161D01*
X100346009Y-79289161D02*
X100250771Y-79241542D01*
X100250771Y-79241542D02*
X100203152Y-79146304D01*
X100203152Y-79146304D02*
X100203152Y-78955828D01*
X100203152Y-78955828D02*
X100250771Y-78860590D01*
X100822200Y-79289161D02*
X100869819Y-79193923D01*
X100869819Y-79193923D02*
X100869819Y-78955828D01*
X100869819Y-78955828D02*
X100822200Y-78860590D01*
X100822200Y-78860590D02*
X100726961Y-78812971D01*
X100726961Y-78812971D02*
X100631723Y-78812971D01*
X100631723Y-78812971D02*
X100536485Y-78860590D01*
X100536485Y-78860590D02*
X100488866Y-78955828D01*
X100488866Y-78955828D02*
X100488866Y-79193923D01*
X100488866Y-79193923D02*
X100441247Y-79289161D01*
X100203152Y-79765352D02*
X100869819Y-79765352D01*
X100298390Y-79765352D02*
X100250771Y-79812971D01*
X100250771Y-79812971D02*
X100203152Y-79908209D01*
X100203152Y-79908209D02*
X100203152Y-80051066D01*
X100203152Y-80051066D02*
X100250771Y-80146304D01*
X100250771Y-80146304D02*
X100346009Y-80193923D01*
X100346009Y-80193923D02*
X100869819Y-80193923D01*
X100869819Y-80670114D02*
X99869819Y-80670114D01*
X100488866Y-80765352D02*
X100869819Y-81051066D01*
X100203152Y-81051066D02*
X100584104Y-80670114D01*
X100869819Y-82765352D02*
X100869819Y-82193924D01*
X100869819Y-82479638D02*
X99869819Y-82479638D01*
X99869819Y-82479638D02*
X100012676Y-82384400D01*
X100012676Y-82384400D02*
X100107914Y-82289162D01*
X100107914Y-82289162D02*
X100155533Y-82193924D01*
X100869819Y-83717733D02*
X100869819Y-83146305D01*
X100869819Y-83432019D02*
X99869819Y-83432019D01*
X99869819Y-83432019D02*
X100012676Y-83336781D01*
X100012676Y-83336781D02*
X100107914Y-83241543D01*
X100107914Y-83241543D02*
X100155533Y-83146305D01*
X99822200Y-84860590D02*
X101107914Y-84003448D01*
X99965057Y-85146305D02*
X99917438Y-85193924D01*
X99917438Y-85193924D02*
X99869819Y-85289162D01*
X99869819Y-85289162D02*
X99869819Y-85527257D01*
X99869819Y-85527257D02*
X99917438Y-85622495D01*
X99917438Y-85622495D02*
X99965057Y-85670114D01*
X99965057Y-85670114D02*
X100060295Y-85717733D01*
X100060295Y-85717733D02*
X100155533Y-85717733D01*
X100155533Y-85717733D02*
X100298390Y-85670114D01*
X100298390Y-85670114D02*
X100869819Y-85098686D01*
X100869819Y-85098686D02*
X100869819Y-85717733D01*
X100203152Y-86574876D02*
X100869819Y-86574876D01*
X99822200Y-86336781D02*
X100536485Y-86098686D01*
X100536485Y-86098686D02*
X100536485Y-86717733D01*
X120658458Y-146769819D02*
X120039411Y-146769819D01*
X120039411Y-146769819D02*
X120372744Y-147150771D01*
X120372744Y-147150771D02*
X120229887Y-147150771D01*
X120229887Y-147150771D02*
X120134649Y-147198390D01*
X120134649Y-147198390D02*
X120087030Y-147246009D01*
X120087030Y-147246009D02*
X120039411Y-147341247D01*
X120039411Y-147341247D02*
X120039411Y-147579342D01*
X120039411Y-147579342D02*
X120087030Y-147674580D01*
X120087030Y-147674580D02*
X120134649Y-147722200D01*
X120134649Y-147722200D02*
X120229887Y-147769819D01*
X120229887Y-147769819D02*
X120515601Y-147769819D01*
X120515601Y-147769819D02*
X120610839Y-147722200D01*
X120610839Y-147722200D02*
X120658458Y-147674580D01*
X119753696Y-146769819D02*
X119420363Y-147769819D01*
X119420363Y-147769819D02*
X119087030Y-146769819D01*
X118848934Y-146769819D02*
X118229887Y-146769819D01*
X118229887Y-146769819D02*
X118563220Y-147150771D01*
X118563220Y-147150771D02*
X118420363Y-147150771D01*
X118420363Y-147150771D02*
X118325125Y-147198390D01*
X118325125Y-147198390D02*
X118277506Y-147246009D01*
X118277506Y-147246009D02*
X118229887Y-147341247D01*
X118229887Y-147341247D02*
X118229887Y-147579342D01*
X118229887Y-147579342D02*
X118277506Y-147674580D01*
X118277506Y-147674580D02*
X118325125Y-147722200D01*
X118325125Y-147722200D02*
X118420363Y-147769819D01*
X118420363Y-147769819D02*
X118706077Y-147769819D01*
X118706077Y-147769819D02*
X118801315Y-147722200D01*
X118801315Y-147722200D02*
X118848934Y-147674580D01*
X109257144Y-61594295D02*
X109066668Y-62394295D01*
X109066668Y-62394295D02*
X108914287Y-61822866D01*
X108914287Y-61822866D02*
X108761906Y-62394295D01*
X108761906Y-62394295D02*
X108571430Y-61594295D01*
X107923810Y-62394295D02*
X107923810Y-61975247D01*
X107923810Y-61975247D02*
X107961905Y-61899057D01*
X107961905Y-61899057D02*
X108038096Y-61860961D01*
X108038096Y-61860961D02*
X108190477Y-61860961D01*
X108190477Y-61860961D02*
X108266667Y-61899057D01*
X107923810Y-62356200D02*
X108000001Y-62394295D01*
X108000001Y-62394295D02*
X108190477Y-62394295D01*
X108190477Y-62394295D02*
X108266667Y-62356200D01*
X108266667Y-62356200D02*
X108304763Y-62280009D01*
X108304763Y-62280009D02*
X108304763Y-62203819D01*
X108304763Y-62203819D02*
X108266667Y-62127628D01*
X108266667Y-62127628D02*
X108190477Y-62089533D01*
X108190477Y-62089533D02*
X108000001Y-62089533D01*
X108000001Y-62089533D02*
X107923810Y-62051438D01*
X107619048Y-61860961D02*
X107428572Y-62394295D01*
X107238095Y-61860961D02*
X107428572Y-62394295D01*
X107428572Y-62394295D02*
X107504762Y-62584771D01*
X107504762Y-62584771D02*
X107542857Y-62622866D01*
X107542857Y-62622866D02*
X107619048Y-62660961D01*
X107009524Y-61594295D02*
X106819048Y-62394295D01*
X106819048Y-62394295D02*
X106666667Y-61822866D01*
X106666667Y-61822866D02*
X106514286Y-62394295D01*
X106514286Y-62394295D02*
X106323810Y-61594295D01*
X105676190Y-62394295D02*
X105676190Y-61975247D01*
X105676190Y-61975247D02*
X105714285Y-61899057D01*
X105714285Y-61899057D02*
X105790476Y-61860961D01*
X105790476Y-61860961D02*
X105942857Y-61860961D01*
X105942857Y-61860961D02*
X106019047Y-61899057D01*
X105676190Y-62356200D02*
X105752381Y-62394295D01*
X105752381Y-62394295D02*
X105942857Y-62394295D01*
X105942857Y-62394295D02*
X106019047Y-62356200D01*
X106019047Y-62356200D02*
X106057143Y-62280009D01*
X106057143Y-62280009D02*
X106057143Y-62203819D01*
X106057143Y-62203819D02*
X106019047Y-62127628D01*
X106019047Y-62127628D02*
X105942857Y-62089533D01*
X105942857Y-62089533D02*
X105752381Y-62089533D01*
X105752381Y-62089533D02*
X105676190Y-62051438D01*
X105371428Y-61860961D02*
X105180952Y-62394295D01*
X104990475Y-61860961D02*
X105180952Y-62394295D01*
X105180952Y-62394295D02*
X105257142Y-62584771D01*
X105257142Y-62584771D02*
X105295237Y-62622866D01*
X105295237Y-62622866D02*
X105371428Y-62660961D01*
X104761904Y-61594295D02*
X104571428Y-62394295D01*
X104571428Y-62394295D02*
X104419047Y-61822866D01*
X104419047Y-61822866D02*
X104266666Y-62394295D01*
X104266666Y-62394295D02*
X104076190Y-61594295D01*
X103428570Y-62394295D02*
X103428570Y-61975247D01*
X103428570Y-61975247D02*
X103466665Y-61899057D01*
X103466665Y-61899057D02*
X103542856Y-61860961D01*
X103542856Y-61860961D02*
X103695237Y-61860961D01*
X103695237Y-61860961D02*
X103771427Y-61899057D01*
X103428570Y-62356200D02*
X103504761Y-62394295D01*
X103504761Y-62394295D02*
X103695237Y-62394295D01*
X103695237Y-62394295D02*
X103771427Y-62356200D01*
X103771427Y-62356200D02*
X103809523Y-62280009D01*
X103809523Y-62280009D02*
X103809523Y-62203819D01*
X103809523Y-62203819D02*
X103771427Y-62127628D01*
X103771427Y-62127628D02*
X103695237Y-62089533D01*
X103695237Y-62089533D02*
X103504761Y-62089533D01*
X103504761Y-62089533D02*
X103428570Y-62051438D01*
X103123808Y-61860961D02*
X102933332Y-62394295D01*
X102742855Y-61860961D02*
X102933332Y-62394295D01*
X102933332Y-62394295D02*
X103009522Y-62584771D01*
X103009522Y-62584771D02*
X103047617Y-62622866D01*
X103047617Y-62622866D02*
X103123808Y-62660961D01*
D13*
X132957419Y-92238095D02*
X133766942Y-92238095D01*
X133766942Y-92238095D02*
X133862180Y-92285714D01*
X133862180Y-92285714D02*
X133909800Y-92333333D01*
X133909800Y-92333333D02*
X133957419Y-92428571D01*
X133957419Y-92428571D02*
X133957419Y-92619047D01*
X133957419Y-92619047D02*
X133909800Y-92714285D01*
X133909800Y-92714285D02*
X133862180Y-92761904D01*
X133862180Y-92761904D02*
X133766942Y-92809523D01*
X133766942Y-92809523D02*
X132957419Y-92809523D01*
X133290752Y-93714285D02*
X133957419Y-93714285D01*
X132909800Y-93476190D02*
X133624085Y-93238095D01*
X133624085Y-93238095D02*
X133624085Y-93857142D01*
X129323734Y-71886704D02*
X128847544Y-71886704D01*
X129418972Y-72172419D02*
X129085639Y-71172419D01*
X129085639Y-71172419D02*
X128752306Y-72172419D01*
X128418972Y-72172419D02*
X128418972Y-71172419D01*
X128418972Y-71172419D02*
X127847544Y-72172419D01*
X127847544Y-72172419D02*
X127847544Y-71172419D01*
X127514210Y-71172419D02*
X126942782Y-71172419D01*
X127228496Y-72172419D02*
X127228496Y-71172419D01*
X126609448Y-72077180D02*
X126561829Y-72124800D01*
X126561829Y-72124800D02*
X126609448Y-72172419D01*
X126609448Y-72172419D02*
X126657067Y-72124800D01*
X126657067Y-72124800D02*
X126609448Y-72077180D01*
X126609448Y-72077180D02*
X126609448Y-72172419D01*
D14*
X123888898Y-81917219D02*
X124222231Y-81441028D01*
X124460326Y-81917219D02*
X124460326Y-80917219D01*
X124460326Y-80917219D02*
X124079374Y-80917219D01*
X124079374Y-80917219D02*
X123984136Y-80964838D01*
X123984136Y-80964838D02*
X123936517Y-81012457D01*
X123936517Y-81012457D02*
X123888898Y-81107695D01*
X123888898Y-81107695D02*
X123888898Y-81250552D01*
X123888898Y-81250552D02*
X123936517Y-81345790D01*
X123936517Y-81345790D02*
X123984136Y-81393409D01*
X123984136Y-81393409D02*
X124079374Y-81441028D01*
X124079374Y-81441028D02*
X124460326Y-81441028D01*
X123555564Y-80917219D02*
X122888898Y-81917219D01*
X122888898Y-80917219D02*
X123555564Y-81917219D01*
X122031755Y-80917219D02*
X122507945Y-80917219D01*
X122507945Y-80917219D02*
X122555564Y-81393409D01*
X122555564Y-81393409D02*
X122507945Y-81345790D01*
X122507945Y-81345790D02*
X122412707Y-81298171D01*
X122412707Y-81298171D02*
X122174612Y-81298171D01*
X122174612Y-81298171D02*
X122079374Y-81345790D01*
X122079374Y-81345790D02*
X122031755Y-81393409D01*
X122031755Y-81393409D02*
X121984136Y-81488647D01*
X121984136Y-81488647D02*
X121984136Y-81726742D01*
X121984136Y-81726742D02*
X122031755Y-81821980D01*
X122031755Y-81821980D02*
X122079374Y-81869600D01*
X122079374Y-81869600D02*
X122174612Y-81917219D01*
X122174612Y-81917219D02*
X122412707Y-81917219D01*
X122412707Y-81917219D02*
X122507945Y-81869600D01*
X122507945Y-81869600D02*
X122555564Y-81821980D01*
X121412707Y-81345790D02*
X121507945Y-81298171D01*
X121507945Y-81298171D02*
X121555564Y-81250552D01*
X121555564Y-81250552D02*
X121603183Y-81155314D01*
X121603183Y-81155314D02*
X121603183Y-81107695D01*
X121603183Y-81107695D02*
X121555564Y-81012457D01*
X121555564Y-81012457D02*
X121507945Y-80964838D01*
X121507945Y-80964838D02*
X121412707Y-80917219D01*
X121412707Y-80917219D02*
X121222231Y-80917219D01*
X121222231Y-80917219D02*
X121126993Y-80964838D01*
X121126993Y-80964838D02*
X121079374Y-81012457D01*
X121079374Y-81012457D02*
X121031755Y-81107695D01*
X121031755Y-81107695D02*
X121031755Y-81155314D01*
X121031755Y-81155314D02*
X121079374Y-81250552D01*
X121079374Y-81250552D02*
X121126993Y-81298171D01*
X121126993Y-81298171D02*
X121222231Y-81345790D01*
X121222231Y-81345790D02*
X121412707Y-81345790D01*
X121412707Y-81345790D02*
X121507945Y-81393409D01*
X121507945Y-81393409D02*
X121555564Y-81441028D01*
X121555564Y-81441028D02*
X121603183Y-81536266D01*
X121603183Y-81536266D02*
X121603183Y-81726742D01*
X121603183Y-81726742D02*
X121555564Y-81821980D01*
X121555564Y-81821980D02*
X121507945Y-81869600D01*
X121507945Y-81869600D02*
X121412707Y-81917219D01*
X121412707Y-81917219D02*
X121222231Y-81917219D01*
X121222231Y-81917219D02*
X121126993Y-81869600D01*
X121126993Y-81869600D02*
X121079374Y-81821980D01*
X121079374Y-81821980D02*
X121031755Y-81726742D01*
X121031755Y-81726742D02*
X121031755Y-81536266D01*
X121031755Y-81536266D02*
X121079374Y-81441028D01*
X121079374Y-81441028D02*
X121126993Y-81393409D01*
X121126993Y-81393409D02*
X121222231Y-81345790D01*
X120412707Y-80917219D02*
X120317469Y-80917219D01*
X120317469Y-80917219D02*
X120222231Y-80964838D01*
X120222231Y-80964838D02*
X120174612Y-81012457D01*
X120174612Y-81012457D02*
X120126993Y-81107695D01*
X120126993Y-81107695D02*
X120079374Y-81298171D01*
X120079374Y-81298171D02*
X120079374Y-81536266D01*
X120079374Y-81536266D02*
X120126993Y-81726742D01*
X120126993Y-81726742D02*
X120174612Y-81821980D01*
X120174612Y-81821980D02*
X120222231Y-81869600D01*
X120222231Y-81869600D02*
X120317469Y-81917219D01*
X120317469Y-81917219D02*
X120412707Y-81917219D01*
X120412707Y-81917219D02*
X120507945Y-81869600D01*
X120507945Y-81869600D02*
X120555564Y-81821980D01*
X120555564Y-81821980D02*
X120603183Y-81726742D01*
X120603183Y-81726742D02*
X120650802Y-81536266D01*
X120650802Y-81536266D02*
X120650802Y-81298171D01*
X120650802Y-81298171D02*
X120603183Y-81107695D01*
X120603183Y-81107695D02*
X120555564Y-81012457D01*
X120555564Y-81012457D02*
X120507945Y-80964838D01*
X120507945Y-80964838D02*
X120412707Y-80917219D01*
X119507945Y-81345790D02*
X119603183Y-81298171D01*
X119603183Y-81298171D02*
X119650802Y-81250552D01*
X119650802Y-81250552D02*
X119698421Y-81155314D01*
X119698421Y-81155314D02*
X119698421Y-81107695D01*
X119698421Y-81107695D02*
X119650802Y-81012457D01*
X119650802Y-81012457D02*
X119603183Y-80964838D01*
X119603183Y-80964838D02*
X119507945Y-80917219D01*
X119507945Y-80917219D02*
X119317469Y-80917219D01*
X119317469Y-80917219D02*
X119222231Y-80964838D01*
X119222231Y-80964838D02*
X119174612Y-81012457D01*
X119174612Y-81012457D02*
X119126993Y-81107695D01*
X119126993Y-81107695D02*
X119126993Y-81155314D01*
X119126993Y-81155314D02*
X119174612Y-81250552D01*
X119174612Y-81250552D02*
X119222231Y-81298171D01*
X119222231Y-81298171D02*
X119317469Y-81345790D01*
X119317469Y-81345790D02*
X119507945Y-81345790D01*
X119507945Y-81345790D02*
X119603183Y-81393409D01*
X119603183Y-81393409D02*
X119650802Y-81441028D01*
X119650802Y-81441028D02*
X119698421Y-81536266D01*
X119698421Y-81536266D02*
X119698421Y-81726742D01*
X119698421Y-81726742D02*
X119650802Y-81821980D01*
X119650802Y-81821980D02*
X119603183Y-81869600D01*
X119603183Y-81869600D02*
X119507945Y-81917219D01*
X119507945Y-81917219D02*
X119317469Y-81917219D01*
X119317469Y-81917219D02*
X119222231Y-81869600D01*
X119222231Y-81869600D02*
X119174612Y-81821980D01*
X119174612Y-81821980D02*
X119126993Y-81726742D01*
X119126993Y-81726742D02*
X119126993Y-81536266D01*
X119126993Y-81536266D02*
X119174612Y-81441028D01*
X119174612Y-81441028D02*
X119222231Y-81393409D01*
X119222231Y-81393409D02*
X119317469Y-81345790D01*
X118412707Y-82298171D02*
X118460326Y-82250552D01*
X118460326Y-82250552D02*
X118555564Y-82107695D01*
X118555564Y-82107695D02*
X118603183Y-82012457D01*
X118603183Y-82012457D02*
X118650802Y-81869600D01*
X118650802Y-81869600D02*
X118698421Y-81631504D01*
X118698421Y-81631504D02*
X118698421Y-81441028D01*
X118698421Y-81441028D02*
X118650802Y-81202933D01*
X118650802Y-81202933D02*
X118603183Y-81060076D01*
X118603183Y-81060076D02*
X118555564Y-80964838D01*
X118555564Y-80964838D02*
X118460326Y-80821980D01*
X118460326Y-80821980D02*
X118412707Y-80774361D01*
X118174611Y-80917219D02*
X117841278Y-81917219D01*
X117841278Y-81917219D02*
X117507945Y-80917219D01*
X117269849Y-80917219D02*
X116650802Y-80917219D01*
X116650802Y-80917219D02*
X116984135Y-81298171D01*
X116984135Y-81298171D02*
X116841278Y-81298171D01*
X116841278Y-81298171D02*
X116746040Y-81345790D01*
X116746040Y-81345790D02*
X116698421Y-81393409D01*
X116698421Y-81393409D02*
X116650802Y-81488647D01*
X116650802Y-81488647D02*
X116650802Y-81726742D01*
X116650802Y-81726742D02*
X116698421Y-81821980D01*
X116698421Y-81821980D02*
X116746040Y-81869600D01*
X116746040Y-81869600D02*
X116841278Y-81917219D01*
X116841278Y-81917219D02*
X117126992Y-81917219D01*
X117126992Y-81917219D02*
X117222230Y-81869600D01*
X117222230Y-81869600D02*
X117269849Y-81821980D01*
X116222230Y-81821980D02*
X116174611Y-81869600D01*
X116174611Y-81869600D02*
X116222230Y-81917219D01*
X116222230Y-81917219D02*
X116269849Y-81869600D01*
X116269849Y-81869600D02*
X116222230Y-81821980D01*
X116222230Y-81821980D02*
X116222230Y-81917219D01*
X115841278Y-80917219D02*
X115222231Y-80917219D01*
X115222231Y-80917219D02*
X115555564Y-81298171D01*
X115555564Y-81298171D02*
X115412707Y-81298171D01*
X115412707Y-81298171D02*
X115317469Y-81345790D01*
X115317469Y-81345790D02*
X115269850Y-81393409D01*
X115269850Y-81393409D02*
X115222231Y-81488647D01*
X115222231Y-81488647D02*
X115222231Y-81726742D01*
X115222231Y-81726742D02*
X115269850Y-81821980D01*
X115269850Y-81821980D02*
X115317469Y-81869600D01*
X115317469Y-81869600D02*
X115412707Y-81917219D01*
X115412707Y-81917219D02*
X115698421Y-81917219D01*
X115698421Y-81917219D02*
X115793659Y-81869600D01*
X115793659Y-81869600D02*
X115841278Y-81821980D01*
X114888897Y-82298171D02*
X114841278Y-82250552D01*
X114841278Y-82250552D02*
X114746040Y-82107695D01*
X114746040Y-82107695D02*
X114698421Y-82012457D01*
X114698421Y-82012457D02*
X114650802Y-81869600D01*
X114650802Y-81869600D02*
X114603183Y-81631504D01*
X114603183Y-81631504D02*
X114603183Y-81441028D01*
X114603183Y-81441028D02*
X114650802Y-81202933D01*
X114650802Y-81202933D02*
X114698421Y-81060076D01*
X114698421Y-81060076D02*
X114746040Y-80964838D01*
X114746040Y-80964838D02*
X114841278Y-80821980D01*
X114841278Y-80821980D02*
X114888897Y-80774361D01*
D10*
X133954819Y-62166666D02*
X134669104Y-62166666D01*
X134669104Y-62166666D02*
X134811961Y-62119047D01*
X134811961Y-62119047D02*
X134907200Y-62023809D01*
X134907200Y-62023809D02*
X134954819Y-61880952D01*
X134954819Y-61880952D02*
X134954819Y-61785714D01*
X134954819Y-63166666D02*
X134954819Y-62595238D01*
X134954819Y-62880952D02*
X133954819Y-62880952D01*
X133954819Y-62880952D02*
X134097676Y-62785714D01*
X134097676Y-62785714D02*
X134192914Y-62690476D01*
X134192914Y-62690476D02*
X134240533Y-62595238D01*
D13*
%TO.C,U4*%
X107830000Y-67050000D02*
X108580000Y-67050000D01*
X107830000Y-95550000D02*
X107830000Y-67050000D01*
X107830000Y-95550000D02*
X108580000Y-95550000D01*
X124080000Y-67050000D02*
X116080000Y-67050000D01*
X131580000Y-95550000D02*
X132330000Y-95550000D01*
X132330000Y-67050000D02*
X131580000Y-67050000D01*
X132330000Y-67050000D02*
X132330000Y-95550000D01*
X132330000Y-95550000D02*
X131580000Y-95550000D01*
D15*
%TO.C,J1*%
X127160000Y-60622500D02*
X126050000Y-60622500D01*
X127160000Y-63872500D02*
X126050000Y-63872500D01*
X127750000Y-64922500D02*
X128250000Y-64922500D01*
X128000000Y-64422500D02*
X127750000Y-64922500D01*
X128250000Y-64922500D02*
X128000000Y-64422500D01*
X129950000Y-60622500D02*
X128840000Y-60622500D01*
X129950000Y-63872500D02*
X128840000Y-63872500D01*
%TD*%
M02*
